<?xml version="1.0" encoding="utf-8"?>
<!-- Generator: Adobe Illustrator 24.0.1, SVG Export Plug-In . SVG Version: 6.00 Build 0)  -->
<svg xmlns:xlink="http://www.w3.org/1999/xlink" version="1.1" id="Road_3" xmlns="http://www.w3.org/2000/svg" x="0px"
     y="0px"
     viewBox="0 0 190 170" style="enable-background:new 0 0 190 170;" xml:space="preserve">
<style type="text/css">
	.st0{enable-background:new    ;}
	.st1{fill:#272727;}
	.st2{fill:#1B1B1B;}
	.st3{fill:#2C2B2B;}
	.st4{fill:#6B6C6D;}
	.st5{fill:#FFFFFF;}
	.st6{fill:#DCDCDC;}
</style>
    <g>
	<g class="st0">
		<g>
			<polygon class="st1" points="162.6,62.2 162.6,65 99.9,101.4 99.9,98.6 			"/>
		</g>
        <g>
			<polygon class="st2" points="60.7,100.8 60.7,103.6 26,83.6 26,80.8 			"/>
		</g>
        <g>
			<polygon class="st2" points="113.2,131.1 113.2,133.8 78.5,113.8 78.5,111.1 			"/>
		</g>
        <g>
			<polygon class="st1" points="134.6,118.7 134.6,121.4 113.2,133.8 113.2,131.1 			"/>
		</g>
        <g>
			<polygon class="st2" points="43.9,131.2 43.8,134 26.1,123.7 26.1,120.9 			"/>
		</g>
        <g>
			<polygon class="st1" points="78.5,111.1 78.5,113.8 43.8,134 43.9,131.2 			"/>
		</g>
        <g>
			<polygon class="st3" points="162.6,62.2 99.9,98.6 134.6,118.7 113.2,131.1 78.5,111.1 43.9,131.2 26.1,120.9 60.7,100.8
				26,80.8 47.5,68.3 82.2,88.4 144.8,51.9 			"/>
		</g>
	</g>
</g>
    <g>
	<polygon class="st4" points="60.6,102.8 28.6,121.3 28.1,121 60.1,102.4 	"/>
</g>
    <g>
	<polygon class="st4" points="145.7,53 84.2,88.7 83.7,88.5 145.2,52.7 	"/>
</g>
    <g>
	<polygon class="st4" points="81.9,89.5 81.4,89.7 47.3,70 47.7,69.7 	"/>
</g>
    <g>
	<polygon class="st4" points="63,100.2 62.5,100.5 28.4,80.8 28.9,80.6 	"/>
</g>
    <g>
	<polygon class="st4" points="113.8,129.4 113.3,129.8 79.2,110 79.7,109.8 	"/>
</g>
    <g>
	<polygon class="st4" points="132.2,119.2 131.8,119.4 97.7,99.7 98.1,99.4 	"/>
</g>
    <g>
	<polygon class="st4" points="160.3,62 98.8,97.7 98.3,97.5 159.8,61.7 	"/>
</g>
    <g>
	<polygon class="st4" points="75.9,111.5 43.9,130.1 43.4,129.8 75.4,111.2 	"/>
</g>
    <g>
	<path class="st5" d="M87.9,99.2l16.4,9.5l0.5-0.2L88.4,99c-0.2-0.2-2.5-2,0.5-3.9l1,0.6v-1.4h-2.4l0.9,0.5
		C84.8,97,87.8,99.2,87.9,99.2z"/>
</g>
    <g>
	<polygon class="st6" points="73.2,94.4 72.2,95 38.3,75.3 39.2,74.9 	"/>
</g>
    <g>
	<polygon class="st6" points="123.2,124.1 122.2,124.7 86.6,104.1 87.6,103.6 	"/>
</g>
    <g>
	<g class="st0">
		<g>
			<path class="st5"
                  d="M84.1,106.5l-0.6,0.2c-3.3-2.4-8.7-3.3-12.5-1.8l-0.4-0.3C74.7,102.9,80.7,103.8,84.1,106.5z"/>
		</g>
        <g>
			<polygon class="st5" points="85.5,106.1 84.9,107.6 82.2,107 83.5,106.7 84.1,106.5 			"/>
		</g>
	</g>
</g>
    <g>
	<g class="st0">
		<g>
			<polygon class="st5" points="127.1,66.4 128.7,67.4 140.8,60.4 139.2,59.4 			"/>
		</g>
        <g>
			<polygon class="st5" points="129.9,68.1 131.4,69 143.6,62 142,61.1 			"/>
		</g>
        <g>
			<polygon class="st5" points="132.7,69.7 134.2,70.6 146.4,63.6 144.7,62.7 			"/>
		</g>
        <g>
			<polygon class="st5" points="135.4,71.3 137,72.2 149.1,65.2 147.5,64.3 			"/>
		</g>
	</g>
</g>
    <g>
	<g>
		<polygon class="st5" points="123.8,74.9 93.4,92.5 92.9,92.2 123.3,74.6 		"/>
	</g>
        <g>
		<polygon class="st5" points="124.4,75.7 124.4,74.3 122,74.3 		"/>
	</g>
</g>
    <g>
	<g>
		<polygon class="st5" points="67.3,107.9 39.4,124.2 38.9,124 66.8,107.6 		"/>
	</g>
        <g>
		<polygon class="st5" points="68,108.7 68,107.3 65.6,107.3 		"/>
	</g>
</g>
    <g>
	<g>
		<polygon class="st5" points="46.6,74.6 74.5,91 75,90.7 47.1,74.4 		"/>
	</g>
        <g>
		<polygon class="st5" points="45.9,75.4 45.9,74 48.3,74 		"/>
	</g>
</g>
    <g>
	<g>
		<polygon class="st5" points="109.1,111.2 125.1,120.6 125.6,120.4 109.6,111 		"/>
	</g>
        <g>
		<polygon class="st5" points="108.3,112.1 108.4,110.7 110.8,110.7 		"/>
	</g>
</g>
    <polygon class="st5" points="35,79.1 35.4,78.8 65.7,96.3 66.5,95.8 66.5,97.3 64,97.3 65.2,96.6 "/>
    <polygon class="st5" points="86.5,108.7 87,108.4 117.2,126 118.1,125.5 118.1,127 115.5,126.9 116.7,126.2 "/>
</svg>
