<?xml version="1.0" encoding="utf-8"?>
<!-- Generator: Adobe Illustrator 24.0.1, SVG Export Plug-In . SVG Version: 6.00 Build 0)  -->
<svg xmlns:xlink="http://www.w3.org/1999/xlink" version="1.1" id="Road_1" xmlns="http://www.w3.org/2000/svg" x="0px"
     y="0px"
     viewBox="0 0 190 170" style="enable-background:new 0 0 190 170;" xml:space="preserve">
<style type="text/css">
	.st0{enable-background:new    ;}
	.st1{fill:#272727;}
	.st2{fill:#1B1B1B;}
	.st3{fill:#2C2B2B;}
	.st4{fill:#6B6C6D;}
	.st5{fill:#FFFFFF;}
</style>
    <g>
	<g>
		<g class="st0">
			<g>
				<polygon class="st1" points="163,65.4 163,67.8 49,134 49,131.6 				"/>
			</g>
            <g>
				<polygon class="st2" points="49,131.6 49,134 25.7,120.5 25.7,118.2 				"/>
			</g>
            <g>
				<polygon class="st3" points="163,65.4 49,131.6 25.7,118.2 139.7,51.9 				"/>
			</g>
		</g>
	</g>
</g>
    <g>
	<polygon class="st4" points="140.2,53.9 29.9,118 29.2,117.7 139.6,53.6 	"/>
</g>
    <g>
	<polygon class="st4" points="159.5,66 49.1,130.2 48.5,129.8 158.9,65.6 	"/>
</g>
    <g>
	<g>
		<polygon class="st5" points="42.1,121.6 40.3,122.7 39.1,121.9 40.9,120.9 		"/>
	</g>
        <g>
		<polygon class="st5" points="140.7,62.9 142,63.6 138.4,65.6 137.2,65 		"/>
	</g>
        <g>
		<polygon class="st5" points="130,69.1 133.6,67 134.9,67.8 131.3,69.8 		"/>
	</g>
        <g>
		<polygon class="st5" points="122.9,73.2 126.5,71.2 127.7,71.8 124.2,74 		"/>
	</g>
        <g>
		<polygon class="st5" points="115.8,77.4 119.4,75.3 120.6,76 117,78.1 		"/>
	</g>
        <g>
		<polygon class="st5" points="108.7,81.5 112.3,79.4 113.4,80.2 109.9,82.2 		"/>
	</g>
        <g>
		<polygon class="st5" points="101.5,85.7 105.1,83.6 106.3,84.3 102.7,86.4 		"/>
	</g>
        <g>
		<polygon class="st5" points="94.4,89.9 98,87.7 99.1,88.5 95.6,90.5 		"/>
	</g>
        <g>
		<polygon class="st5" points="87.2,93.9 90.8,91.9 92,92.6 88.4,94.7 		"/>
	</g>
        <g>
		<polygon class="st5" points="80.1,98.1 83.7,96.1 84.8,96.7 81.3,98.8 		"/>
	</g>
        <g>
		<polygon class="st5" points="73,102.3 76.5,100.2 77.7,100.9 74.2,103 		"/>
	</g>
        <g>
		<polygon class="st5" points="65.8,106.4 69.4,104.3 70.6,105 67.1,107.1 		"/>
	</g>
        <g>
		<polygon class="st5" points="58.7,110.6 62.2,108.5 63.5,109.2 59.9,111.2 		"/>
	</g>
        <g>
		<polygon class="st5" points="51.6,114.7 55.1,112.6 56.4,113.4 52.8,115.4 		"/>
	</g>
        <g>
		<polygon class="st5" points="44.5,118.8 48.1,116.8 49.2,117.4 45.6,119.6 		"/>
	</g>
        <g>
		<polygon class="st5" points="147.3,60.5 145.5,61.5 144.3,60.8 146.1,59.8 		"/>
	</g>
</g>
    <g>
	<g>
		<polygon class="st5" points="83.4,105.6 45.4,127.6 44.9,127.3 82.8,105.3 		"/>
	</g>
        <g>
		<polygon class="st5" points="84.3,106.6 84.3,104.9 81.3,104.9 		"/>
	</g>
</g>
    <polygon class="st5" points="144.2,56.9 143.6,56.5 105.7,78.5 104.7,77.9 104.7,79.7 107.8,79.7 106.3,78.8 "/>
</svg>
