<?xml version="1.0" encoding="utf-8"?>
<!-- Generator: Adobe Illustrator 24.0.1, SVG Export Plug-In . SVG Version: 6.00 Build 0)  -->
<svg xmlns:xlink="http://www.w3.org/1999/xlink" version="1.1" id="Road_2" xmlns="http://www.w3.org/2000/svg" x="0px"
     y="0px"
     viewBox="0 0 190 170" style="enable-background:new 0 0 190 170;" xml:space="preserve">
<style type="text/css">
	.st0{enable-background:new    ;}
	.st1{fill:#272727;}
	.st2{fill:#1B1B1B;}
	.st3{fill:#2C2B2B;}
	.st4{fill:#FFFFFF;}
	.st5{fill:#6B6C6D;}
</style>
    <g>
	<g class="st0">
		<g>
			<polygon class="st1" points="147.7,57.3 147.7,59.4 106.9,83 106.9,81 			"/>
		</g>
        <g>
			<polygon class="st1" points="86.5,92.9 86.5,94.9 47.6,117.5 47.6,115.5 			"/>
		</g>
        <g>
			<polygon class="st2" points="47.6,115.5 47.6,117.5 27,105.7 27,103.7 			"/>
		</g>
        <g>
			<polygon class="st2" points="142.4,125.1 142.4,127.1 86.5,94.9 86.5,92.9 			"/>
		</g>
        <g>
			<polygon class="st1" points="162.8,113.2 162.8,115.2 142.4,127.1 142.4,125.1 			"/>
		</g>
        <g>
			<polygon class="st3"
                     points="147.7,57.3 106.9,81 162.8,113.2 142.4,125.1 86.5,92.9 47.6,115.5 27,103.7 127.2,45.4 			"/>
		</g>
	</g>
</g>
    <g>
	<g class="st0">
		<g>
			<polygon class="st4" points="155.6,114.3 153.9,115.3 140.5,107.6 142.3,106.6 			"/>
		</g>
        <g>
			<polygon class="st4" points="152.6,116.1 150.8,117.1 137.5,109.4 139.2,108.4 			"/>
		</g>
        <g>
			<polygon class="st4" points="149.5,117.8 147.7,118.8 134.4,111.2 136.2,110.1 			"/>
		</g>
        <g>
			<polygon class="st4" points="146.4,119.6 144.7,120.6 131.3,113 133.1,111.9 			"/>
		</g>
	</g>
</g>
    <g>
	<polygon class="st4" points="136.8,52.6 38.7,109.6 37.7,109 135.8,51.9 	"/>
</g>
    <g>
	<polygon class="st5" points="127.3,47.1 30.3,103.5 29.7,103.2 126.7,46.8 	"/>
</g>
    <g>
	<polygon class="st5" points="144.2,57.7 106.1,79.8 105.6,79.6 143.7,57.5 	"/>
</g>
    <g>
	<polygon class="st5" points="85.9,92.2 47.2,114.7 46.6,114.5 85.3,92 	"/>
</g>
    <g>
	<polygon class="st5" points="142.7,123.5 142.2,123.8 86.7,91.7 87.3,91.5 	"/>
</g>
    <g>
	<polygon class="st5" points="160.6,113.1 160,113.4 104.5,81.4 105.1,81.1 	"/>
</g>
    <g>
	<g>
		<polygon class="st4" points="97.7,86.3 97.2,86.6 95.5,85.7 96.1,85.4 		"/>
	</g>
        <g>
		<polygon class="st4" points="126.3,102.8 129.5,104.6 129,105 125.8,103.1 		"/>
	</g>
        <g>
		<polygon class="st4" points="119.4,99.4 119.9,99.1 123.1,101 122.6,101.3 		"/>
	</g>
        <g>
		<polygon class="st4" points="113.1,95.7 113.6,95.4 116.7,97.3 116.3,97.6 		"/>
	</g>
        <g>
		<polygon class="st4" points="106.7,92.1 107.2,91.7 110.4,93.6 109.9,93.9 		"/>
	</g>
        <g>
		<polygon class="st4" points="100.3,88.4 100.8,88.1 104,89.9 103.5,90.3 		"/>
	</g>
        <g>
		<polygon class="st4" points="134.2,107.4 133.7,107.6 132.1,106.8 132.7,106.4 		"/>
	</g>
</g>
    <g>
	<path class="st4" d="M101.6,82l18,10.5l0.6-0.3l-18-10.4c-0.2-0.2-2.9-2.2,0.5-4.3l1.1,0.7v-1.6h-2.6l1,0.6
		C98.2,79.6,101.5,81.9,101.6,82z"/>
</g>
    <g>
	<g>
		<polygon class="st4" points="77,92.4 43.6,111.7 43.2,111.4 76.4,92.1 		"/>
	</g>
        <g>
		<polygon class="st4" points="77.8,93.3 77.7,91.7 75.1,91.7 		"/>
	</g>
</g>
    <g>
	<g>
		<polygon class="st4" points="139.7,55.8 106.3,75.2 105.7,74.9 139.1,55.4 		"/>
	</g>
        <g>
		<polygon class="st4" points="140.4,56.7 140.4,55.2 137.8,55.2 		"/>
	</g>
</g>
    <g>
	<g class="st0">
		<g>
			<path class="st4" d="M95.4,91.8L94.7,92c-3.6-2.7-9.6-3.6-13.7-2l-0.5-0.4C85,87.9,91.5,88.9,95.4,91.8z"/>
		</g>
        <g>
			<polygon class="st4" points="96.8,91.4 96.2,93 93.2,92.4 94.8,92 95.4,91.8 			"/>
		</g>
	</g>
</g>
    <polygon class="st4" points="70,85.1 69.4,84.8 36.2,104.1 35.2,103.6 35.2,105.2 38,105.2 36.7,104.5 "/>
    <polygon class="st4" points="130.8,49.6 130.2,49.2 97,68.6 96,68 96,69.6 98.8,69.6 97.5,68.8 "/>
</svg>
