<svg xmlns:xlink="http://www.w3.org/1999/xlink" viewBox="0 0 190 170" xmlns="http://www.w3.org/2000/svg">
    <linearGradient id="a" gradientTransform="matrix(-1 0 0 1 -214.259 0)" gradientUnits="userSpaceOnUse" x1="-264.216"
                    x2="-235.098" y1="140.326" y2="116.464">
        <stop offset="0" stop-color="#35312d"/>
        <stop offset="1" stop-color="#4d4641"/>
    </linearGradient>
    <path
        d="m11.859 114.133a.37.37 0 0 1 .372.038l1.518.876a1.131 1.131 0 0 1 .518.889v5.583a.367.367 0 0 1 -.152.333l-.452.263-2.256-7.715z"
        fill="#cd8005"/>
    <path
        d="m11.259 114.724c0-.328.235-.454.52-.29l1.518.877a1.129 1.129 0 0 1 .518.888v5.584c0 .328-.236.462-.521.3l-1.518-.876a1.145 1.145 0 0 1 -.517-.9z"
        fill="#ee9d11"/>
    <path
        d="m13.045 115.043a.17.17 0 0 0 .17-.17v-3.506l4.683-2.7a5.386 5.386 0 0 1 4.869 0l3.2 1.849a.17.17 0 0 0 .171-.3l-3.2-1.85a5.77 5.77 0 0 0 -5.211 0l-4.767 2.753a.169.169 0 0 0 -.085.147v3.605a.17.17 0 0 0 .17.172z"
        fill="#47433f"/>
    <path
        d="m12.471 114.687a.171.171 0 0 0 .171-.171v-2.6l.523-.524a.17.17 0 1 0 -.24-.241l-.574.574a.17.17 0 0 0 -.05.12v2.674a.171.171 0 0 0 .17.168z"
        fill="#47433f"/>
    <g fill="#26231f">
        <path d="m84.432 126.688 7.457 2.272-.639 6.392-2.137 4.494-13.987-8.075z"/>
        <path d="m151.243 88.114 7.457 2.273-.639 6.392-2.137 4.494-13.987-8.075z"/>
        <path
            d="m77.671 132.608c1.722-.994 3.28-1.077 4.4-.408l3.859 2.228-8.8 15.05-3.859-2.228c-1.092-.654-1.765-2.025-1.765-3.966a13.624 13.624 0 0 1 6.165-10.676z"/>
    </g>
    <ellipse cx="81.53" cy="141.953" fill="#3f3932" rx="8.716" ry="5.032"
             transform="matrix(.5 -.8660254 .8660254 .5 -82.17 141.583)"/>
    <path
        d="m81.538 147.266a9.8 9.8 0 0 0 4.524-7.657c.043-2.87-1.913-4.094-4.369-2.735a9.8 9.8 0 0 0 -4.525 7.656c-.042 2.87 1.914 4.094 4.37 2.736z"
        fill="#a8a8a8"/>
    <path
        d="m82.013 145.719a6.4 6.4 0 0 0 2.954-5c.028-1.874-1.249-2.673-2.853-1.786a6.4 6.4 0 0 0 -2.954 5c-.028 1.874 1.249 2.674 2.853 1.786z"
        fill="#a8a8a8"/>
    <path
        d="m81.549 146.489a8.33 8.33 0 0 0 3.848-6.512c.037-2.441-1.627-3.482-3.716-2.327a8.34 8.34 0 0 0 -3.848 6.513v.291c.1 2.23 1.713 3.146 3.716 2.035zm-2.386-2.332c0-.073 0-.147 0-.223a6.4 6.4 0 0 1 2.954-5c1.6-.887 2.881-.088 2.853 1.786a6.4 6.4 0 0 1 -2.954 5c-1.541.851-2.779.15-2.853-1.563z"
        fill="#bebebe"/>
    <path
        d="m78.865 140.639 1.087.589a5.93 5.93 0 0 0 -.792 2.706v.223l-1.326.3c0-.095-.005-.192 0-.291a7.726 7.726 0 0 1 1.032-3.524z"
        fill="#e4e4e4"/>
    <path
        d="m144.7 93.911c1.722-.994 3.279-1.077 4.4-.408l3.858 2.228-8.8 15.05-3.859-2.228c-1.091-.654-1.765-2.025-1.765-3.967a13.624 13.624 0 0 1 6.166-10.675z"
        fill="#26231f"/>
    <ellipse cx="148.555" cy="103.256" fill="#3f3932" rx="8.716" ry="5.032"
             transform="matrix(.5 -.8660254 .8660254 .5 -15.144 180.281)"/>
    <ellipse cx="148.641" cy="103.372" fill="#a8a8a8" rx="6.29" ry="3.643"
             transform="matrix(.49753424 -.86744434 .86744434 .49753424 -14.983 180.878)"/>
    <path
        d="m149.038 107.022a6.4 6.4 0 0 0 2.955-5c.028-1.874-1.25-2.673-2.853-1.786a6.4 6.4 0 0 0 -2.954 5c-.028 1.874 1.249 2.674 2.852 1.786z"
        fill="#a8a8a8"/>
    <path
        d="m148.575 107.792a8.335 8.335 0 0 0 3.848-6.512c.036-2.441-1.627-3.483-3.716-2.327a8.333 8.333 0 0 0 -3.848 6.512v.292c.099 2.23 1.712 3.143 3.716 2.035zm-2.386-2.332c0-.073 0-.147 0-.224a6.391 6.391 0 0 1 2.954-5c1.6-.887 2.881-.088 2.853 1.786a6.4 6.4 0 0 1 -2.955 5c-1.541.851-2.779.15-2.852-1.562z"
        fill="#bebebe"/>
    <path
        d="m145.89 101.942 1.087.589a5.94 5.94 0 0 0 -.791 2.7v.224l-1.326.3c0-.095-.006-.192 0-.292a7.72 7.72 0 0 1 1.031-3.523z"
        fill="#e4e4e4"/>
    <path
        d="m21.64 143.09 30.834 17.91.01-8.39a1.241 1.241 0 0 0 .631-.163l2.283-1.319a.755.755 0 0 0 .378-.654l-.008-23.074a.054.054 0 0 0 -.081-.047l-2.687 1.547a.952.952 0 0 1 -.485.126l.008-6.335-30.834-17.91-.007 6.283a.545.545 0 0 0 .272.474l.252.146-.048 23.037-.219.127a.573.573 0 0 0 -.288.5zm3.585-29.674 8.7 5.021-7.863 4.539a.555.555 0 0 1 -.833-.481z"
        fill="#ee9d11"/>
    <path
        d="m22.158 134.722.048-23.037c0-.012 3.019 1.731 3.019 1.731v9.084a.555.555 0 0 0 .833.481l7.863-4.539 18.125 10.458a.992.992 0 0 0 .954 0l2.687-1.551a.054.054 0 0 1 .081.047l.008 23.077a.755.755 0 0 1 -.378.654l-2.283 1.319a1.207 1.207 0 0 1 -.306.124 1.3 1.3 0 0 1 -.325.039 1.244 1.244 0 0 1 -.6-.163l-29.609-17.093a.236.236 0 0 1 -.118-.205z"
        fill="#282523"/>
    <path d="m178.719 48.639-30.834-17.91-125.162 72.262 30.834 17.91z" fill="#ffbc27"/>
    <path
        d="m21.869 104a2.463 2.463 0 0 1 .4-.63 1.835 1.835 0 0 1 .453-.382l30.835 17.912a1.817 1.817 0 0 0 -.453.382 2.451 2.451 0 0 0 -.4.631 1.943 1.943 0 0 0 -.18.778l-30.834-17.91a1.952 1.952 0 0 1 .179-.781z"
        fill="#ffcb39"/>
    <path
        d="m52.484 152.61-.01 8.39 22.163-12.8v-2.463a15.894 15.894 0 0 1 7.216-12.5c4-2.307 7.25-.458 7.263 4.139v2.465l52.334-30.215v-2.463a15.893 15.893 0 0 1 7.215-12.5c4-2.307 7.25-.459 7.264 4.139l-.006 2.465 14.363-8.293 7.653-6.7a2.371 2.371 0 0 0 .808-1.779l-.027-35.864-125.163 72.269a2.279 2.279 0 0 0 -1.034 1.791l-.008 6.335a.952.952 0 0 0 .485-.126l2.687-1.551a.054.054 0 0 1 .081.047l.008 23.077a.755.755 0 0 1 -.378.654l-2.283 1.319a1.241 1.241 0 0 1 -.631.164zm111.761-87.431a.989.989 0 0 1 .494-.856l10.678-6.164a.363.363 0 0 1 .545.314s0 15.5-.011 15.547l-11.706-6.759zm-2.3.756.562-.325a.364.364 0 0 1 .546.315v.65z"
        fill="#cd8005"/>
    <path d="m121.545 69.797 48.648-28.086v2.074l-48.648 28.087z" fill="#cd8005"/>
    <path d="m106.373 63.112 15.172 8.76v-2.075l-15.172-8.759z" fill="#ee9d11"/>
    <path d="m121.545 69.797 48.648-28.086-15.172-8.76-48.648 28.087z" fill="#ffbc27"/>
    <path
        d="m58.756 122.886v20.657l118.806-68.593v-20.657zm105.489-57.707a.989.989 0 0 1 .494-.856l10.678-6.164a.363.363 0 0 1 .545.314s0 15.5-.011 15.547l-11.706-6.759zm-2.3.756.562-.325a.364.364 0 0 1 .546.315v.65z"
        fill="#282523"/>
    <path d="m56.984 158.396 16.145-9.321v-34.492l-16.145 9.321z" fill="#282523"/>
    <path d="m110.198 127.673 16.145-9.321v-34.492l-16.145 9.321z" fill="#282523"/>
    <path
        d="m53 128.9 2.687-1.551a.054.054 0 0 1 .081.047l.008 23.077a.755.755 0 0 1 -.378.654l-2.283 1.319a1.234 1.234 0 0 1 -1.233 0l-29.607-17.093a.236.236 0 0 1 -.118-.205l.049-23.475 29.84 17.227a.951.951 0 0 0 .954 0z"
        fill="url(#a)" opacity=".8"/>
    <path
        d="m118.784 90.962 6.465-3.733v24.971l-6.465 3.732zm-7.418 29.248 6.465-3.732v-24.966l-6.465 3.733zm-45.717 1.429 6.465-3.733v24.966l-6.465 3.728zm-7.418 29.249 6.465-3.733v-24.966l-6.465 3.733zm34.043-29.064v-15.092a.987.987 0 0 1 .494-.856l16.484-9.517a.363.363 0 0 1 .545.315v15.5a.85.85 0 0 1 -.426.737l-16.264 9.39a.556.556 0 0 1 -.833-.477zm-17.874 11.285 16.264-9.39a.852.852 0 0 0 .426-.737v-15.5a.364.364 0 0 0 -.546-.314l-16.483 9.516a.989.989 0 0 0 -.494.856v15.093a.555.555 0 0 0 .833.476zm71.971-41.552 16.264-9.39a.851.851 0 0 0 .425-.737v-15.505a.363.363 0 0 0 -.545-.315l-16.483 9.517a.987.987 0 0 0 -.494.856v15.092a.556.556 0 0 0 .828.482zm-18.712 10.8 16.264-9.39a.851.851 0 0 0 .425-.737v-15.502a.363.363 0 0 0 -.545-.314l-16.488 9.516a.989.989 0 0 0 -.494.856v15.093a.555.555 0 0 0 .833.481zm37.424-21.607 10.458-6.038a.852.852 0 0 0 .426-.737v-15.5a.363.363 0 0 0 -.545-.314l-10.678 6.164a.989.989 0 0 0 -.494.856v15.091a.555.555 0 0 0 .828.481z"
        fill="#35312d" opacity=".8"/>
    <path
        d="m52.16 137.4a.372.372 0 0 1 .372.037l1.518.877a1.129 1.129 0 0 1 .518.888v5.584a.364.364 0 0 1 -.152.332l-.452.264-2.251-7.718z"
        fill="#cd8005"/>
    <path
        d="m51.56 137.992c0-.328.235-.455.52-.29l1.518.877a1.13 1.13 0 0 1 .518.888l-.005 5.584c0 .328-.236.462-.521.3l-1.518-.877a1.144 1.144 0 0 1 -.517-.9z"
        fill="#ee9d11"/>
    <path
        d="m52.766 137.951a.17.17 0 0 0 .17-.17v-3.481l4.683-2.7a1.7 1.7 0 0 0 0-3.205l-3.2-1.85a.171.171 0 0 0 -.171.3l3.2 1.849a1.371 1.371 0 0 1 0 2.615l-4.768 2.752a.172.172 0 0 0 -.084.148v3.58a.17.17 0 0 0 .17.162z"
        fill="#47433f"/>
    <path
        d="m53.375 138.287a.17.17 0 0 0 .17-.17v-2.838a.186.186 0 0 0 -.021-.083l-.61-1.079a.171.171 0 0 0 -.3.168l.588 1.039v2.793a.17.17 0 0 0 .173.17z"
        fill="#47433f"/>
    <path d="m51.977 94.418 15.654 9.038 15.653-9.038-15.653-9.037z" fill="#ee9d11" opacity=".3"/>
    <path d="m67.631 86.504-14.68 8.476-.974-.562 15.654-9.037 15.653 9.037-.973.562z" fill="#ee9d11"/>
    <path d="m45.156 152.091 5.701 3.291v-1.856l-5.701-3.291z" fill="#fdffef"/>
    <path d="m50.664 155.27 1.815 1.049v-1.856l-1.815-1.049z" fill="#e9751c"/>
    <path d="m53.207 155.895-.733.424v-1.856l.733-.424z" fill="#cb5e12"/>
    <path d="m28.965 142.743-5.701-3.292v-1.856l5.701 3.292z" fill="#fdffef"/>
    <path d="m23.458 139.563-1.816-1.048v-1.856l1.816 1.048z" fill="#e9751c"/>
    <path
        d="m30.313 141.665 13.518 7.8v.362l-13.518-7.8zm0 1.072 13.518 7.8v-.361l-13.518-7.805zm0 .71 13.518 7.805v-.362l-13.518-7.8zm0 .71 13.518 7.8v-.357l-13.518-7.805zm0 .71 13.518 7.805v-.362l-13.518-7.8zm0 .711 13.518 7.8v-.362l-13.518-7.8z"
        fill="#cd8005" opacity=".9"/>
    <path d="m23.945 112.664 26.068 15.062v-5.266l-26.068-15.051z" fill="#282523"/>
    <path
        d="m45.4 121.728 3.4 1.963v1.5l-3.4-1.963zm-6.8-2.428 5.27 3.043v-1.5l-5.27-3.043zm-5.083-2.934 3.553 2.051v-1.5l-3.553-2.051zm-8.329-4.809 2.554 1.475v-1.5l-2.554-1.475z"
        fill="#e9751c"/>
    <path
        d="m89.878 132.654v-.135a.646.646 0 0 1 .312-.491l1.176-.679c.172-.1.311-.04.311.132v.134a.648.648 0 0 1 -.311.492l-1.176.679c-.172.099-.312.04-.312-.132zm84.822-48.654 1.177-.679a.651.651 0 0 0 .311-.492v-.139c0-.172-.14-.231-.311-.132l-1.177.679a.644.644 0 0 0 -.311.491v.135c-.002.172.137.231.311.137z"
        fill="#cb5e12"/>
    <path d="m143.8 76.414a.363.363 0 0 1 .545.314v3l-17.524 10.126v-3.068a.989.989 0 0 1 .494-.856z" fill="#282523"/>
    <path
        d="m141.475 79.053 2.387-1.378v1.053l-2.387 1.378zm-4.775 3.809 3.7-2.136v-1.053l-3.7 2.137zm-3.569 2.061 2.5-1.441v-1.052l-2.5 1.44zm-5.847 3.377 1.794-1.035v-1.054l-1.794 1.035z"
        fill="#e9751c"/>
    <path d="m139.78 43.684 11.558 6.673 15.066-8.698-11.558-6.674z" fill="#35312d"/>
</svg>
