<svg viewBox="0 0 190 170" xmlns="http://www.w3.org/2000/svg">
    <path
        d="m111.744 130.507-3.56-2.09c-2.13-1.22-5.58.77-7.71 4.45s-2.13 7.68 0 8.9l3.57 2.06c2.12 1.23 5.58-.76 7.7-4.45s2.13-7.64 0-8.87z"
        fill="#141414"/>
    <path d="m111.744 139.417c-2.12 3.69-5.58 5.68-7.7 4.45s-2.13-5.21 0-8.9 5.58-5.68 7.7-4.45 2.13 5.21 0 8.9z"
          fill="#1f1c1c"/>
    <path d="m110.024 138.417c-1.18 2-3.08 3.13-4.26 2.45s-1.17-2.88 0-4.91 3.08-3.13 4.26-2.45 1.17 2.91 0 4.91z"
          fill="#080707"/>
    <path
        d="m109.464 138.1c1.08-1.88 1.17-3.89.26-4.72-1.18-.37-2.88.71-4 2.58s-1.16 3.88-.25 4.72c1.22.357 2.91-.713 3.99-2.58z"
        fill="#34353a"/>
    <path d="m107.514 138.627c-.1-.06-.25 0-.35.2s-.1.36 0 .41l.2.12.35-.62z" fill="#949054"/>
    <path d="m107.714 139.147c-.1.17-.26.26-.35.21s-.1-.24 0-.41.25-.26.35-.21.1.24 0 .41z" fill="#adaa81"/>
    <path d="m108.784 137.287a.344.344 0 0 0 -.36.21c-.1.21-.09.35 0 .41l.2.11.35-.6z" fill="#949054"/>
    <path d="m108.974 137.817c-.1.17-.26.26-.36.2s-.1-.24 0-.41.26-.26.36-.2.1.24 0 .41z" fill="#adaa81"/>
    <path d="m109.3 135.527c-.1-.06-.25 0-.35.2s-.1.36 0 .41l.2.12.35-.62z" fill="#949054"/>
    <path d="m109.5 136.047c-.1.17-.26.26-.35.21s-.1-.24 0-.41.25-.26.35-.21.1.24 0 .41z" fill="#adaa81"/>
    <path d="m108.784 134.417c-.1-.06-.26 0-.36.2s-.09.36 0 .41l.2.12.36-.62z" fill="#949054"/>
    <path d="m108.974 134.887c-.1.17-.26.26-.36.21s-.1-.24 0-.41.26-.26.36-.21.1.24 0 .41z" fill="#adaa81"/>
    <path d="m108.854 137.747c-.53.92-1.39 1.41-1.92 1.11s-.54-1.31 0-2.23 1.39-1.42 1.92-1.11.54 1.3 0 2.23z"
          fill="#262425"/>
    <path
        d="m106.974 136.627c.53-.92 1.39-1.42 1.92-1.11l-.55-.32c-.53-.31-1.4.19-1.93 1.11s-.53 1.92 0 2.23l.56.32c-.58-.31-.58-1.31 0-2.23z"
        fill="#131112"/>
    <path d="m107.514 134.487a.332.332 0 0 0 -.35.21c-.1.21-.1.35 0 .41l.2.11.35-.61z" fill="#949054"/>
    <path d="m107.714 135.017c-.1.17-.26.26-.35.2s-.1-.24 0-.41.25-.26.35-.2.1.24 0 .41z" fill="#adaa81"/>
    <path d="m106.254 135.827c-.1-.06-.26 0-.36.21s-.1.35 0 .4l.2.12.35-.61z" fill="#949054"/>
    <path d="m106.444 136.347c-.09.17-.25.27-.35.21s-.1-.24 0-.41.26-.26.35-.2.1.23 0 .4z" fill="#adaa81"/>
    <path d="m105.724 137.6c-.1-.06-.25 0-.35.2s-.1.35 0 .41l.2.11.35-.61z" fill="#949054"/>
    <path d="m105.974 138.117c-.1.17-.26.26-.35.2s-.1-.24 0-.41.25-.26.35-.2.05.24 0 .41z" fill="#adaa81"/>
    <path d="m106.254 138.747a.344.344 0 0 0 -.36.21c-.1.21-.1.35 0 .41l.2.11.35-.61z" fill="#949054"/>
    <path d="m106.444 139.277c-.09.17-.25.26-.35.2s-.1-.24 0-.41.26-.26.35-.2.1.24 0 .41z" fill="#adaa81"/>
    <path d="m151.124 126.807v3.37l2.85 1.63v-2.2c0-2.1-1.19-3.19-2.85-2.8z" fill="#d18b00"/>
    <path d="m147.134 128.917a9.059 9.059 0 0 0 -3.91 5.83l7.93-4.58v-3.33a4.428 4.428 0 0 0 -1.16.48z" fill="#b57800"/>
    <path
        d="m145.544 132.1c1.67-2.89 4.37-4.44 6-3.48l-3.57-2.06c-1.67-1-4.37.6-6 3.48s-1.66 6 0 7l3.57 2c-1.66-.94-1.66-4.063 0-6.94z"
        fill="#141414"/>
    <ellipse cx="148.734" cy="133.594" fill="#2e2929" rx="6.051" ry="3.492"
             transform="matrix(.49829103 -.86700983 .86700983 .49829103 -41.205 195.981)"/>
    <path d="m150.224 134.8c-.92 1.59-2.41 2.45-3.33 1.92s-.91-2.25 0-3.84 2.41-2.45 3.33-1.92.92 2.247 0 3.84z"
          fill="#080707"/>
    <path d="m149.794 134.547c.84-1.46.91-3 .2-3.69-.92-.29-2.25.56-3.1 2s-.91 3-.2 3.69c.93.31 2.28-.54 3.1-2z"
          fill="#34353a"/>
    <path d="m148.264 134.967a.275.275 0 0 0 -.28.16c-.08.16-.07.27 0 .32l.16.09.28-.48z" fill="#949054"/>
    <path d="m148.424 135.417c-.08.13-.2.2-.28.16s-.08-.19 0-.32.2-.21.28-.16.07.14 0 .32z" fill="#adaa81"/>
    <path d="m149.254 133.917a.257.257 0 0 0 -.27.16c-.07.16-.08.28 0 .32l.15.09.28-.48z" fill="#949054"/>
    <path d="m149.414 134.327c-.08.13-.2.21-.28.16s-.08-.19 0-.32.2-.2.28-.16.07.193 0 .32z" fill="#adaa81"/>
    <path d="m149.664 132.537a.257.257 0 0 0 -.27.16c-.07.16-.08.28 0 .32l.15.09.28-.48z" fill="#949054"/>
    <path d="m149.824 132.947c-.08.13-.2.21-.28.16s-.08-.19 0-.32.2-.2.28-.16.07.19 0 .32z" fill="#adaa81"/>
    <path d="m149.254 131.627a.257.257 0 0 0 -.27.16c-.07.16-.08.28 0 .32l.15.09.28-.48z" fill="#949054"/>
    <path d="m149.414 132.037c-.08.14-.2.21-.28.16s-.08-.18 0-.32.2-.2.28-.16.07.19 0 .32z" fill="#adaa81"/>
    <path d="m149.314 134.277c-.42.72-1.09 1.11-1.51.87s-.41-1 0-1.74 1.09-1.12 1.51-.87.42 1.02 0 1.74z"
          fill="#262425"/>
    <path
        d="m147.8 133.417c.42-.73 1.09-1.12 1.51-.87l-.43-.26c-.42-.24-1.09.15-1.51.88s-.42 1.5 0 1.74l.43.25c-.406-.25-.406-1.03 0-1.74z"
        fill="#131112"/>
    <path d="m148.264 131.727a.275.275 0 0 0 -.28.16c-.08.16-.07.28 0 .32l.16.09.28-.48z" fill="#949054"/>
    <path d="m148.424 132.137c-.08.13-.2.21-.28.16s-.08-.19 0-.32.2-.2.28-.16.07.19 0 .32z" fill="#adaa81"/>
    <path d="m147.274 132.777a.269.269 0 0 0 -.28.16c-.08.16-.07.27 0 .32l.16.09.28-.48z" fill="#949054"/>
    <path d="m147.434 133.187c-.08.13-.2.2-.28.16s-.08-.19 0-.32.2-.21.28-.16.066.19 0 .32z" fill="#adaa81"/>
    <path d="m146.864 134.157c-.08-.05-.2 0-.28.16s-.07.27 0 .32l.16.09.28-.48z" fill="#949054"/>
    <path d="m147.024 134.567c-.08.13-.2.2-.28.16s-.08-.19 0-.32.2-.21.28-.16.07.17 0 .32z" fill="#adaa81"/>
    <path d="m147.274 135.067a.269.269 0 0 0 -.28.16c-.08.16-.07.27 0 .32l.16.09.28-.48z" fill="#949054"/>
    <path d="m147.434 135.477c-.08.13-.2.2-.28.16s-.08-.19 0-.32.2-.21.28-.16.066.18 0 .32z" fill="#adaa81"/>
    <path d="m147.134 118.347-19.82-11.44v8.31l19.82 11.44z" fill="#b57800"/>
    <path d="m154.974 114.837-19.88-11.42a2.061 2.061 0 0 0 -2 .22l-5.74 3.31 19.78 11.4 5.74-3.31a2 2 0 0 1 2.1-.2z"
          fill="#e09400"/>
    <path d="m124.384 134.057-1.48-9.93-4.32-2.5v2.54a4.1 4.1 0 0 1 -1.85 3.25l-4 2.28.47 1.41v4.21z" fill="#e09400"/>
    <path
        d="m109.444 129.557c3.52-2 6.38-.38 6.38 3.68v4.18l.6-.35v-4.167c0-2.23-.78-3.79-2.05-4.52s-3-.62-4.93.49l-3.22 1.86v.69z"
        fill="#f6b000"/>
    <path d="m111.214 128.817a6.563 6.563 0 0 1 .25 1.9v4.22l4.36 2.48v-4.18c0-3.35-1.95-5.06-4.61-4.42z"
          fill="#b57800"/>
    <path d="m110.024 125.867c-1.27-.73-3-.63-4.94.48l-3.22 1.87 4.36 2.51 3.22-1.86c1.93-1.11 3.67-1.22 4.93-.49z"
          fill="#e09400"/>
    <path d="m101.864 128.217v.68l4.36 2.52v-.69z" fill="#b57800"/>
    <path
        d="m129.324 140.107c-.64-.54-1.27-1.11-1.86-1.71s-1-1.12-1.54-1.67a7.144 7.144 0 0 1 -1.15-1.48 3.894 3.894 0 0 1 -.38-1l-4.25.84-2.52 7.93a8.091 8.091 0 0 0 -.45 2.56 1.52 1.52 0 0 0 2.5 1.44l10.57-6.11z"
        fill="#b57800"/>
    <path d="m127.314 115.217-9.92 5.73 4.32 2.49-8.02 4.63 11.35 6.36 7.85-4.54 4.32 2.5 9.92-5.73z" fill="#ffd047"/>
    <path d="m114.344 128.067 8.01-4.63-4.31-2.49 9.59-5.55 19.18 11.07-9.6 5.55-4.32-2.5-7.86 4.54z" fill="#3d3838"/>
    <path
        d="m127.584 92.227-7.79 4.5a10.578 10.578 0 0 0 -4.31 5.56c-1 3-2.06 6.36-2.94 10a88.807 88.807 0 0 0 -2.33 15.13l1.19.68c.14-2.25.41-4.87.88-7.83.35-2.22.83-4.64 1.45-7.23.88-3.66 1.9-7 2.94-10a10.542 10.542 0 0 1 4.3-5.62l7.8-4.5a2.527 2.527 0 0 1 1.37-.4c-.49-.77-1.45-.93-2.56-.29z"
        fill="#464b51"/>
    <path
        d="m128.774 92.917-7.8 4.5a10.538 10.538 0 0 0 -4.31 5.56c-1 3-2.06 6.36-2.94 10q-.93 3.885-1.45 7.23l1.1.29c.4-2.56.89-5.14 1.52-7.76.77-3.23 1.74-6.52 2.87-9.78a7.833 7.833 0 0 1 3.21-4.12l7.8-4.51c.93-.53 1.68-.09 1.68 1v23.09l1.22-.7v-23.13c0-1.85-1.29-2.6-2.9-1.67z"
        fill="#606e7a"/>
    <path d="m130.454 95.3c0-.89-.53-1.34-1.25-1.15a1.665 1.665 0 0 1 .06.46v23.15l1.19.68z" fill="#464b51"/>
    <path d="m123.424 126.657-11.14-6.43c-.47 3-.74 5.58-.88 7.83l11.13 6.36z" fill="#464b51"/>
    <path d="m113.434 120.227h-1.15l11.14 6.43.09-.61z" fill="#707d85"/>
    <path
        d="m125.974 136.467c-.43-.81-3.48-2-3.48-2l-11.13-6.4-4.66 7.35a6.416 6.416 0 0 0 -1 3.33v.13a1.76 1.76 0 0 0 .73 1.62l11.49 6.63 7.83-4s.46-6.3.22-6.66z"
        fill="#d18b00"/>
    <path d="m132.894 132.417v-2.53l-8 4.64 1.66 1.72.56 1.67 4-2.28a4.1 4.1 0 0 0 1.78-3.22z" fill="#f6b000"/>
    <path d="m134.974 120a9.19 9.19 0 0 0 -4.15 7.19v.86l8.15-4.71v-5.65z" fill="#292424"/>
    <path
        d="m134.974 120 4-2.31-5.75-3.27-4 2.32a9.168 9.168 0 0 0 -4.15 7.18v.86l5.71 3.3v-.86a9.19 9.19 0 0 1 4.19-7.22z"
        fill="#4d4848"/>
    <path
        d="m136.974 118.3-5.44 3.12a.426.426 0 0 1 -.39 0 .411.411 0 0 1 -.17-.3v-.53a2.231 2.231 0 0 1 .77-1.56 9.824 9.824 0 0 1 2.71-1.7 24.857 24.857 0 0 0 3.12-1.38z"
        fill="#4d4545"/>
    <path
        d="m130.974 121.117v-.53a2.231 2.231 0 0 1 .77-1.56 9.824 9.824 0 0 1 2.71-1.7 24.857 24.857 0 0 0 3.12-1.38l-4.72-2.73a25.724 25.724 0 0 1 -3.13 1.38 9.664 9.664 0 0 0 -2.75 1.69 2.262 2.262 0 0 0 -.76 1.57v.56a.38.38 0 0 0 .16.35l4.73 2.74a.409.409 0 0 1 -.13-.39z"
        fill="#393333"/>
    <path d="m131.144 121.477-4.32-2.5a.7.7 0 0 0 .29.65l4.73 2.73-.3-.91a.427.427 0 0 1 -.4.03z" fill="#1f1c1c"/>
    <path
        d="m138.624 108.487a1.82 1.82 0 0 0 -.93 1 20.24 20.24 0 0 0 -.7 2 16.4 16.4 0 0 0 -.54 2.66 12.4 12.4 0 0 1 -.27 1.53l-.27 1.1a14.209 14.209 0 0 0 1.67-.8l1.7-6.56a.857.857 0 0 0 -.21-.95.533.533 0 0 0 -.45.02z"
        fill="#4d4545"/>
    <path
        d="m136.454 114.117a16.315 16.315 0 0 1 .52-2.7 20.24 20.24 0 0 1 .7-2 1.82 1.82 0 0 1 .93-1 .529.529 0 0 1 .45 0l-4.73-2.73a.551.551 0 0 0 -.46 0 1.708 1.708 0 0 0 -.92 1 17.29 17.29 0 0 0 -.7 2 16.584 16.584 0 0 0 -.53 2.73 10.723 10.723 0 0 1 -.27 1.53l-.26 1.09 4.73 2.74.27-1.1a12.468 12.468 0 0 0 .27-1.56z"
        fill="#393333"/>
    <path d="m131.534 121.417c0 .43.08.8.3.91a8.308 8.308 0 0 1 2.64-2.61z" fill="#292424"/>
    <path
        d="m137.214 132.417v2.54a4.088 4.088 0 0 1 -1.85 3.2l-3.64 2.1a7.859 7.859 0 0 1 .15 1.59v4.22l11.22-6.48v-3.687a8.918 8.918 0 0 1 4-7v-2.24z"
        fill="#f6b000"/>
    <path d="m121.314 118.337-.31.56 1.34.77.3-.56 1.75.87-1.34-.77z" fill="#292424"/>
    <path d="m122.644 119.107-.3.56 1.56 1.2.49-.89z" fill="#1f1c1c"/>
    <path
        d="m122.324 125.417 1.65-.52c1-2.74.2-4.17-1-4.84a1.12 1.12 0 0 0 -1.506.491 1.085 1.085 0 0 0 -.094.259c-.53 1.73-1 3.46-1 3.46z"
        fill="#262425"/>
    <path
        d="m122.974 120.047-3.51-2a1.129 1.129 0 0 0 -1.61.75c-.53 1.73-1 3.46-1 3.46l3.52 2s.45-1.73 1-3.46a1.12 1.12 0 0 1 1.34-.844 1.156 1.156 0 0 1 .26.094z"
        fill="#4d4848"/>
    <path d="m123.124 117.147-.91 1.66a1.643 1.643 0 0 0 .26.17c.18.1.69.38.9.48s.12.05.12 0l.92-1.66z" fill="#665c5c"/>
    <path d="m121.864 115.607.14-.25c.87.4 2.53 1.28 3.71 2a4.408 4.408 0 0 1 1.08.7l-.09.17z" fill="#4e4646"/>
    <path d="m125.064 117.087-.1-.06z"/>
    <path d="m125.654 117.527-.08.15-4.07-2.24.13-.24z" fill="#615858"/>
    <path d="m121.624 115.2h-.1l.09.06v-.07z" fill="#3b3535"/>
    <path d="m124.7 116.847c.36.22.46.3.25.2l1.42.82h-.12l-.57-.27-4-2.33.36.16h.07l1.43.82c.294.17.794.39 1.16.6z"
          fill="#342e2e"/>
    <path
        d="m127.654 118.477-.38.71a3.234 3.234 0 0 1 -.67-.26c-1.14-.52-3.33-1.68-4.88-2.57a6.2 6.2 0 0 1 -1.41-.94l.38-.7a6.667 6.667 0 0 0 1.41.92c1.55.89 3.74 2 4.87 2.57.44.21.66.3.68.27z"
        fill="#5e5555"/>
    <path d="m122.234 116.647c.78.44 1.67.92 2.48 1.34l.37-.71c-.81-.42-1.69-.9-2.47-1.34z" fill="#979090"/>
    <path
        d="m126.234 117.557c1.55.9 1.88 1.2.74.67s-3.32-1.68-4.87-2.57-1.88-1.2-.74-.67 3.33 1.68 4.87 2.57zm.06.28c.86.41.61.18-.57-.5s-2.84-1.56-3.71-2c-.83-.38-.57-.15.59.52s2.74 1.51 3.63 1.92z"
        fill="#342e2e"/>
    <path
        d="m132.894 129.887v2.53a4.1 4.1 0 0 1 -1.85 3.21l-2.07 1.19.15.19a3.063 3.063 0 0 1 .69.3 4.143 4.143 0 0 1 1.89 2.92l3.64-2.1a4.088 4.088 0 0 0 1.85-3.2v-2.51z"
        fill="#e09400"/>
    <path d="m147.134 126.657-.24.14v2.26l.24-.14z" fill="#1f1c1c"/>
    <path d="m110.894 128.637 1.11-2-.47-.27-.48.21a1.64 1.64 0 0 0 -.83 1.24.579.579 0 0 0 .21.6z" fill="#e09400"/>
    <path d="m111.344 128.627.63-.21v-1.83l-.48.21a1.649 1.649 0 0 0 -.84 1.24.6.6 0 0 0 .21.6.51.51 0 0 0 .48-.01z"
          fill="#b87a00"/>
    <path
        d="m111.824 127.537a.881.881 0 0 1 -.44.66c-.22.09-.37-.05-.35-.31a.889.889 0 0 1 .45-.66c.21-.09.37.05.34.31z"
        fill="#524848"/>
    <path
        d="m112.974 127.737a.732.732 0 0 0 -.34-.46.538.538 0 0 0 -.27-.08h-3.54v1.66l3.54-.05a.459.459 0 0 0 .22-.06.9.9 0 0 0 .39-1.01z"
        fill="#5e5d59"/>
    <path d="m106.064 128.087c-.17.3-.45.47-.63.36s-.17-.42 0-.73.46-.46.63-.36.18.43 0 .73z" fill="#3d3838"/>
    <path
        d="m109.044 127.327a.5.5 0 0 0 -.49 0 .92.92 0 0 0 -.37 1.09.829.829 0 0 0 .34.46.5.5 0 0 0 .49 0 .9.9 0 0 0 .37-1.06.758.758 0 0 0 -.34-.46z"
        fill="#7d7b75"/>
    <path
        d="m109.064 127.947a.387.387 0 0 0 -.16-.22.27.27 0 0 0 -.12 0h-3.06v.76l3.07-.07h.1a.378.378 0 0 0 .16-.19.532.532 0 0 0 .01-.28z"
        fill="#d1cdc6"/>
    <path
        d="m105.844 127.777a.241.241 0 0 0 -.23 0 .42.42 0 0 0 -.17.49.349.349 0 0 0 .16.21.23.23 0 0 0 .23 0 .361.361 0 0 0 .16-.2.478.478 0 0 0 0-.29.362.362 0 0 0 -.15-.22z"
        fill="#f0ece3"/>
    <path d="m106.824 128.527c-.17.3-.45.46-.63.36s-.17-.42 0-.73.46-.46.63-.36.15.43 0 .73z" fill="#4d4747"/>
    <path
        d="m106.194 128.157c.18-.3.46-.46.63-.36l-.76-.44-.34.39c.16 0 .35.1.35.42a.439.439 0 0 1 -.17.32.17.17 0 0 1 -.1 0h-.06a.206.206 0 0 1 -.13 0h-.13l.76.44a.571.571 0 0 1 -.05-.77z"
        fill="#3d3838"/>
    <path d="m112.524 129.567 1.1-2-.46-.27-.48.21a1.649 1.649 0 0 0 -.84 1.24.588.588 0 0 0 .22.6z" fill="#e09400"/>
    <path
        d="m112.974 129.567.6-.26.06-1.78-.48.21a1.662 1.662 0 0 0 -.84 1.24.589.589 0 0 0 .22.59.481.481 0 0 0 .44 0z"
        fill="#b87a00"/>
    <path d="m113.454 128.477a.887.887 0 0 1 -.45.66c-.21.09-.37 0-.34-.31a.85.85 0 0 1 .44-.66c.22-.09.37.05.35.31z"
          fill="#524848"/>
    <path d="m115.494 110.617-10.3-5.95.79-.45 10.31 5.95z" fill="#8f8080"/>
    <path d="m105.194 104.667v2.46l10.3 5.95v-2.46z" fill="#3d3838"/>
    <path d="m115.494 110.617v2.46l.8-.46v-2.45z" fill="#756a6a"/>
    <path d="m105.194 104.667-1.77 1.02 2.38 1.38 1.76-1.02z" fill="#8f8080"/>
    <path d="m103.424 105.687v38.79l2.38 1.37v-38.78z" fill="#3d3838"/>
    <path d="m105.804 145.847 1.76-1.02v-38.78l-1.76 1.02z" fill="#756a6a"/>
    <path d="m113.114 109.247-1.76 1.02 2.37 1.37 1.77-1.02z" fill="#8f8080"/>
    <path d="m111.354 110.267v38.79l2.37 1.37v-38.79z" fill="#3d3838"/>
    <path d="m113.724 150.427 1.77-1.02v-38.79l-1.77 1.02z" fill="#756a6a"/>
    <path
        d="m111.864 133.417v15.683a2.711 2.711 0 0 1 -1.21 2.1l-12.09 7-2.47 2.06v.26l15.46-8.93a3.49 3.49 0 0 0 1.58-2.73v-16.16z"
        fill="#3d3838"/>
    <path
        d="m110.674 132.747v15.67a2.649 2.649 0 0 1 -1.21 2.09l-12.09 7 1.19.69 12.09-7a2.711 2.711 0 0 0 1.21-2.1v-15.68z"
        fill="#756a6a"/>
    <path d="m111.944 132.007-1.27.74 1.19.68 1.27-.73z" fill="#8a7c7c"/>
    <path d="m97.374 157.487-2.47 2.08 1.19.69 2.47-2.08z" fill="#8a7c7c"/>
    <path d="m94.904 159.567v.27l1.19.68v-.26z" fill="#756a6a"/>
    <path
        d="m103.974 128.857v15.67a2.649 2.649 0 0 1 -1.21 2.09l-12.08 7-2.52 2.06v.27l15.47-8.93a3.511 3.511 0 0 0 1.57-2.73v-16.17z"
        fill="#3d3838"/>
    <path
        d="m102.744 128.167v15.67a2.691 2.691 0 0 1 -1.21 2.1l-12.08 7 1.19.69 12.08-7a2.649 2.649 0 0 0 1.25-2.1v-15.67z"
        fill="#756a6a"/>
    <path d="m104.024 127.437-1.28.73 1.19.69 1.27-.74z" fill="#8a7c7c"/>
    <path d="m89.454 152.907-2.48 2.09 1.19.68 2.48-2.08z" fill="#8a7c7c"/>
    <path d="m86.974 154.997v.26l1.19.69v-.27z" fill="#756a6a"/>
    <path d="m126.674 137.747a6.854 6.854 0 0 1 .25 1.9v4.21l4.36 2.56v-4.25c0-3.36-1.95-5.067-4.61-4.42z"
          fill="#b57800"/>
    <path
        d="m127.974 139.9-3.56-2c-2.13-1.23-5.58.76-7.71 4.45s-2.13 7.67 0 8.9l3.56 2.06c2.13 1.22 5.58-.77 7.71-4.45s2.15-7.743 0-8.96z"
        fill="#141414"/>
    <path d="m127.974 148.8c-2.13 3.68-5.58 5.67-7.71 4.45s-2.12-5.22 0-8.9 5.58-5.68 7.71-4.45 2.15 5.207 0 8.9z"
          fill="#2e2929"/>
    <path d="m126.264 147.8c-1.17 2-3.07 3.13-4.25 2.45s-1.17-2.83-.04-4.91 3.08-3.13 4.25-2.45 1.22 2.867.04 4.91z"
          fill="#080707"/>
    <path
        d="m125.714 147.477c1.08-1.87 1.17-3.88.26-4.72-1.18-.37-2.88.71-4 2.58s-1.16 3.89-.25 4.72c1.25.36 2.91-.71 3.99-2.58z"
        fill="#34353a"/>
    <path d="m123.764 148.007c-.1-.06-.26 0-.35.21s-.1.35 0 .4l.19.12.37-.62z" fill="#949054"/>
    <path d="m123.974 148.527c-.1.17-.26.27-.36.21s-.09-.24 0-.41.26-.26.36-.21.09.24 0 .41z" fill="#adaa81"/>
    <path d="m125.034 146.667a.344.344 0 0 0 -.36.21c-.1.21-.1.35 0 .41l.2.11.35-.61z" fill="#949054"/>
    <path d="m125.224 147.2c-.09.17-.25.26-.35.2s-.1-.24 0-.41.26-.26.35-.2.1.237 0 .41z" fill="#adaa81"/>
    <path d="m125.554 144.907c-.1-.06-.26 0-.35.2s-.1.36 0 .41l.2.12.35-.62z" fill="#949054"/>
    <path d="m125.754 145.417c-.1.17-.26.26-.35.21s-.1-.24 0-.41.25-.26.35-.21.1.25 0 .41z" fill="#adaa81"/>
    <path d="m125.034 143.747c-.1-.06-.26 0-.36.21s-.1.35 0 .4l.2.12.35-.62z" fill="#949054"/>
    <path d="m125.224 144.267c-.09.17-.25.27-.35.21s-.1-.24 0-.41.26-.26.35-.21.1.243 0 .41z" fill="#adaa81"/>
    <path d="m125.1 147.127c-.53.92-1.39 1.42-1.92 1.11s-.54-1.3 0-2.23 1.39-1.42 1.92-1.11.534 1.31 0 2.23z"
          fill="#262425"/>
    <path
        d="m123.184 146.007c.53-.92 1.39-1.42 1.92-1.11l-.55-.32c-.53-.31-1.4.19-1.93 1.11s-.53 1.92 0 2.23l.56.32c-.54-.31-.54-1.3 0-2.23z"
        fill="#131112"/>
    <path d="m123.764 143.877c-.1-.06-.26 0-.35.2s-.1.35 0 .41l.19.11.36-.61z" fill="#949054"/>
    <path d="m123.974 144.417c-.1.17-.26.26-.36.2s-.09-.24 0-.41.26-.26.36-.2.09.22 0 .41z" fill="#adaa81"/>
    <path d="m122.494 145.207a.339.339 0 0 0 -.35.21c-.1.21-.1.35 0 .41l.2.11.35-.61z" fill="#949054"/>
    <path d="m122.694 145.737c-.09.17-.25.26-.35.2s-.1-.24 0-.41.26-.26.35-.2.1.24 0 .41z" fill="#adaa81"/>
    <path d="m121.974 146.977c-.1-.06-.26 0-.35.2s-.1.35 0 .41l.19.11.36-.61z" fill="#949054"/>
    <path d="m122.174 147.5c-.1.17-.26.26-.36.2s-.09-.23 0-.4.26-.27.36-.21.1.237 0 .41z" fill="#adaa81"/>
    <path d="m122.494 148.137c-.09-.06-.25 0-.35.2s-.1.35 0 .41l.2.11.35-.61z" fill="#949054"/>
    <path d="m122.694 148.657c-.09.17-.25.26-.35.2s-.1-.24 0-.41.26-.26.35-.2.1.24 0 .41z" fill="#adaa81"/>
    <path d="m125.474 134.787c-1.26-.73-3-.62-4.93.49l-3.23 1.86 4.36 2.52 3.23-1.86c1.92-1.12 3.67-1.22 4.93-.49z"
          fill="#e09400"/>
    <path d="m117.314 137.137v.69l4.36 2.51v-.68z" fill="#b57800"/>
    <path
        d="m124.9 138.477c3.52-2 6.38-.38 6.38 3.69v4.25l.59-.34v-4.26c0-2.22-.78-3.78-2-4.51s-3-.63-4.93.49l-3.27 1.86v.68z"
        fill="#f6b000"/>
    <path
        d="m128.974 110.087a10.7 10.7 0 0 1 4.31-5.56l7.8-4.5a2 2 0 0 1 2-.2l-1.11-.69a2 2 0 0 0 -2.05.21l-7.8 4.5a10.624 10.624 0 0 0 -4.32 5.57c-1 3-2.06 6.36-2.94 10a88.517 88.517 0 0 0 -2.33 15.06l1.19.69a88.816 88.816 0 0 1 2.33-15.07c.92-3.68 1.92-7.02 2.92-10.01z"
        fill="#464b51"/>
    <path
        d="m141.1 100.027-7.8 4.5a10.712 10.712 0 0 0 -4.33 5.56c-1 3-2.06 6.37-2.94 10a88.816 88.816 0 0 0 -2.33 15.07 4 4 0 0 1 3 .32l1.37.79a11.031 11.031 0 0 0 -1.55-2.35c-1-1.13-1.35-2.64-1-5 .42-3 1-6 1.71-9.11a96.769 96.769 0 0 1 2.87-9.78 7.868 7.868 0 0 1 3.21-4.14l7.8-4.5c.92-.53 1.67-.1 1.67 1v23.17l1.19-.71v-23.14a1.755 1.755 0 0 0 -2.87-1.68z"
        fill="#707d85"/>
    <path d="m141.534 101.267a2.081 2.081 0 0 1 0 .46v23.14l1.19.69v-23.14c.05-.9-.48-1.35-1.19-1.15z" fill="#464b51"/>
    <path
        d="m129.464 90.417a.271.271 0 0 0 -.27 0l-13.88 8a.84.84 0 0 0 -.38.66l14.9 8.6a.859.859 0 0 1 .38-.66l13.89-8a.271.271 0 0 1 .27 0z"
        fill="#f6b000"/>
    <path d="m114.974 99.147v.83a2.769 2.769 0 0 0 1.26 2.18l12.34 7.15c.7.4 1.26.08 1.26-.73v-.83z" fill="#e09400"/>
    <path
        d="m144.484 99.3a.23.23 0 0 0 -.38-.22l-13.89 8a.859.859 0 0 0 -.38.66v.83l-.18.65a15.322 15.322 0 0 1 2.67-3.09l10.65-6.16a.546.546 0 0 1 .25-.07 1.812 1.812 0 0 1 .75 1.11c.33-.07.55-.38.55-.89v-.82z"
        fill="#e09400"/>
    <path d="m129.654 98.507c-1.23 0-2.23-.58-2.23-1.29s1-1.28 2.23-1.28 2.23.57 2.23 1.28-1 1.29-2.23 1.29z"
          fill="#707d85"/>
    <path
        d="m129.654 98.507c-1.23 0-2.23-.58-2.23-1.29v.55c0 .71 1 1.29 2.23 1.29s2.23-.58 2.23-1.29v-.55c0 .71-1 1.29-2.23 1.29z"
        fill="#464b51"/>
    <path d="m129.654 95.177c-.69 0-1.25-.32-1.25-.72s.56-.73 1.25-.73 1.25.33 1.25.73-.56.72-1.25.72z" fill="#e54545"/>
    <path
        d="m129.654 95.177c-.69 0-1.25-.32-1.25-.72 0 0-.36 2.62-.36 2.76 0 .52.72.93 1.61.93s1.6-.41 1.6-.93c0-.16-.35-2.76-.35-2.76-.004.4-.56.72-1.25.72z"
        fill="#b01a1c"/>
    <path
        d="m155.644 117.147.13-.08v-.36a1.77 1.77 0 0 0 -2.9-1.67l-5.74 3.31v10.57l2.84-1.63c2.23-1.29 4-.25 4 2.32v2.2a4 4 0 0 0 1.8-3.09v-8.54l-.13.08c-.48.27-.86.05-.86-.5v-1.13a1.878 1.878 0 0 1 .86-1.48z"
        fill="#f6b000"/>
    <path d="m155.644 120.257.13-.08-.32-.18-.45.3a.6.6 0 0 0 .64-.04z" fill="#e09400"/>
    <path d="m147.134 122.057v.89l7.65-4.42a2 2 0 0 1 .8-1.35z" fill="#e09400"/>
    <path d="m154.784 119.857a.57.57 0 0 0 .22.44l.2-.12v-2.45l-.2.11a1.714 1.714 0 0 0 -.22.79z" fill="#332f2f"/>
    <path d="m155.334 120.107a.51.51 0 0 0 .23-.4v-1.93a.183.183 0 0 0 -.07-.15.163.163 0 0 0 -.16 0l-.13.08v2.45z"
          fill="#f63300"/>
    <path d="m155.1 117.667v.17l.2-.11z"/>
    <path d="m155.334 117.647a.163.163 0 0 1 .16 0l-.25-.14-.14.18.1.06z" fill="#d33300"/>
    <path d="m119.874 133.817 1.1-2-.46-.27-.48.21a1.649 1.649 0 0 0 -.84 1.24.588.588 0 0 0 .22.6z" fill="#e09400"/>
    <path
        d="m120.314 133.817.6-.26.06-1.78-.48.21a1.662 1.662 0 0 0 -.84 1.24.589.589 0 0 0 .22.59.481.481 0 0 0 .44 0z"
        fill="#b87a00"/>
    <path d="m120.8 132.727a.887.887 0 0 1 -.45.66c-.21.09-.37 0-.34-.32a.851.851 0 0 1 .44-.65c.224-.09.374.05.35.31z"
          fill="#524848"/>
    <path
        d="m121.9 132.917a.829.829 0 0 0 -.34-.46.55.55 0 0 0 -.28-.07l-3.53.03v1.66l3.54-.06a.415.415 0 0 0 .21 0 .921.921 0 0 0 .4-1.1z"
        fill="#5e5d59"/>
    <path d="m115.044 133.277c-.18.3-.46.46-.63.36s-.18-.43 0-.73.45-.46.63-.36.17.42 0 .73z" fill="#3d3838"/>
    <path
        d="m117.974 132.517a.5.5 0 0 0 -.49 0 .9.9 0 0 0 -.36 1.06.732.732 0 0 0 .34.46.5.5 0 0 0 .49 0 .9.9 0 0 0 .36-1.06.732.732 0 0 0 -.34-.46z"
        fill="#7d7b75"/>
    <path
        d="m118.034 133.127a.382.382 0 0 0 -.16-.21.244.244 0 0 0 -.12 0l-3.06.05v.76l3.06-.05h.1a.331.331 0 0 0 .16-.19.483.483 0 0 0 .02-.36z"
        fill="#d1cdc6"/>
    <path
        d="m114.814 132.967a.244.244 0 0 0 -.22 0 .44.44 0 0 0 -.095.615.408.408 0 0 0 .095.095.258.258 0 0 0 .23 0 .318.318 0 0 0 .16-.2.478.478 0 0 0 0-.29.387.387 0 0 0 -.16-.22z"
        fill="#f0ece3"/>
    <path d="m115.8 133.717c-.18.3-.46.46-.63.36s-.18-.43 0-.73.45-.47.63-.36.174.43 0 .73z" fill="#4d4747"/>
    <path
        d="m115.174 133.347c.17-.3.45-.47.63-.36l-.76-.44-.35.39c.17 0 .36.1.36.42a.471.471 0 0 1 -.17.32h-.16a.33.33 0 0 1 -.14 0h-.12l.75.44c-.24-.14-.24-.47-.04-.77z"
        fill="#3d3838"/>
    <path d="m121.494 134.757 1.11-2-.47-.34-.48.21a1.629 1.629 0 0 0 -.83 1.24.59.59 0 0 0 .21.6z" fill="#e09400"/>
    <path d="m121.974 134.757.6-.26.07-1.78-.48.21a1.64 1.64 0 0 0 -.84 1.24.59.59 0 0 0 .21.59.481.481 0 0 0 .44 0z"
          fill="#f6b000"/>
    <path d="m122.424 133.667a.839.839 0 0 1 -.44.65c-.22.1-.37 0-.35-.31a.889.889 0 0 1 .44-.65c.22-.1.38.06.35.31z"
          fill="#524848"/>
    <path
        d="m43.575 98.4-3.56-2.09c-2.13-1.22-5.58.77-7.71 4.45s-2.13 7.68 0 8.9l3.57 2.06c2.12 1.23 5.58-.76 7.7-4.45s2.13-7.637 0-8.87z"
        fill="#141414"/>
    <path d="m43.575 107.313c-2.12 3.69-5.58 5.68-7.7 4.45s-2.13-5.21 0-8.9 5.58-5.68 7.7-4.45 2.13 5.21 0 8.9z"
          fill="#1f1c1c"/>
    <path d="m41.855 106.313c-1.18 2-3.08 3.13-4.26 2.45s-1.17-2.88 0-4.91 3.08-3.13 4.26-2.45 1.17 2.91 0 4.91z"
          fill="#080707"/>
    <path
        d="m41.3 105.993c1.08-1.88 1.17-3.89.26-4.72-1.18-.37-2.88.71-4 2.58s-1.16 3.88-.25 4.72c1.215.36 2.905-.71 3.99-2.58z"
        fill="#34353a"/>
    <path d="m39.345 106.523c-.1-.06-.25 0-.35.2s-.1.36 0 .41l.2.12.35-.62z" fill="#949054"/>
    <path d="m39.545 107.043c-.1.17-.26.26-.35.21s-.1-.24 0-.41.25-.26.35-.21.1.24 0 .41z" fill="#adaa81"/>
    <path d="m40.615 105.183a.344.344 0 0 0 -.36.21c-.1.21-.09.35 0 .41l.2.11.35-.6z" fill="#949054"/>
    <path d="m40.805 105.713c-.1.17-.26.26-.36.2s-.1-.24 0-.41.26-.26.36-.2.1.24 0 .41z" fill="#adaa81"/>
    <path d="m41.135 103.423c-.1-.06-.25 0-.35.2s-.1.36 0 .41l.2.12.35-.62z" fill="#949054"/>
    <path d="m41.335 103.943c-.1.17-.26.26-.35.21s-.1-.24 0-.41.25-.26.35-.21.1.24 0 .41z" fill="#adaa81"/>
    <path d="m40.615 102.313c-.1-.06-.26 0-.36.2s-.09.36 0 .41l.2.12.36-.62z" fill="#949054"/>
    <path d="m40.805 102.783c-.1.17-.26.26-.36.21s-.1-.24 0-.41.26-.26.36-.21.1.24 0 .41z" fill="#adaa81"/>
    <path d="m40.685 105.643c-.53.92-1.39 1.41-1.92 1.11s-.54-1.31 0-2.23 1.39-1.42 1.92-1.11.54 1.3 0 2.23z"
          fill="#262425"/>
    <path
        d="m38.805 104.523c.53-.92 1.39-1.42 1.92-1.11l-.55-.32c-.53-.31-1.4.19-1.93 1.11s-.53 1.92 0 2.23l.56.32c-.58-.31-.58-1.31 0-2.23z"
        fill="#131112"/>
    <path d="m39.345 102.383a.332.332 0 0 0 -.35.21c-.1.21-.1.35 0 .41l.2.11.35-.61z" fill="#949054"/>
    <path d="m39.545 102.913c-.1.17-.26.26-.35.2s-.1-.24 0-.41.25-.26.35-.2.1.24 0 .41z" fill="#adaa81"/>
    <path d="m38.085 103.723c-.1-.06-.26 0-.36.21s-.1.35 0 .4l.2.12.35-.61z" fill="#949054"/>
    <path d="m38.275 104.243c-.09.17-.25.27-.35.21s-.1-.24 0-.41.26-.26.35-.2.1.23 0 .4z" fill="#adaa81"/>
    <path d="m37.555 105.493c-.1-.06-.25 0-.35.2s-.1.35 0 .41l.2.11.35-.61z" fill="#949054"/>
    <path d="m37.805 106.013c-.1.17-.26.26-.35.2s-.1-.24 0-.41.25-.26.35-.2.05.24 0 .41z" fill="#adaa81"/>
    <path d="m38.085 106.643a.344.344 0 0 0 -.36.21c-.1.21-.1.35 0 .41l.2.11.35-.61z" fill="#949054"/>
    <path d="m38.275 107.173c-.09.17-.25.26-.35.2s-.1-.24 0-.41.26-.26.35-.2.1.237 0 .41z" fill="#adaa81"/>
    <path d="m82.955 94.7v3.37l2.85 1.63v-2.2c0-2.1-1.19-3.187-2.85-2.8z" fill="#ce3f00"/>
    <path d="m78.965 96.813a9.059 9.059 0 0 0 -3.91 5.83l7.93-4.58v-3.33a4.395 4.395 0 0 0 -1.16.48z" fill="#b22a00"/>
    <path
        d="m77.375 99.993c1.67-2.89 4.37-4.44 6-3.48l-3.57-2.06c-1.67-1-4.37.6-6 3.48s-1.66 6 0 7l3.57 2c-1.66-.94-1.66-4.06 0-6.94z"
        fill="#141414"/>
    <ellipse cx="80.565" cy="101.49" fill="#2e2929" rx="6.051" ry="3.492"
             transform="matrix(.49829103 -.86700983 .86700983 .49829103 -47.572 120.77)"/>
    <path d="m82.055 102.693c-.92 1.59-2.41 2.45-3.33 1.92s-.91-2.25 0-3.84 2.41-2.45 3.33-1.92.92 2.247 0 3.84z"
          fill="#080707"/>
    <path d="m81.625 102.443c.84-1.46.91-3 .2-3.69-.92-.29-2.25.56-3.1 2s-.91 3-.2 3.69c.93.31 2.28-.543 3.1-2z"
          fill="#34353a"/>
    <path d="m80.1 102.863a.275.275 0 0 0 -.28.16c-.08.16-.07.27 0 .32l.16.09.28-.48z" fill="#949054"/>
    <path d="m80.255 103.313c-.08.13-.2.2-.28.16s-.08-.19 0-.32.2-.21.28-.16.07.14 0 .32z" fill="#adaa81"/>
    <path d="m81.085 101.813a.257.257 0 0 0 -.27.16c-.07.16-.08.28 0 .32l.15.09.28-.48z" fill="#949054"/>
    <path d="m81.245 102.223c-.08.13-.2.21-.28.16s-.08-.19 0-.32.2-.2.28-.16.07.19 0 .32z" fill="#adaa81"/>
    <path d="m81.5 100.433a.257.257 0 0 0 -.27.16c-.07.16-.08.28 0 .32l.15.09.28-.48z" fill="#949054"/>
    <path d="m81.655 100.843c-.08.13-.2.21-.28.16s-.08-.19 0-.32.2-.2.28-.16.07.19 0 .32z" fill="#adaa81"/>
    <path d="m81.085 99.523a.257.257 0 0 0 -.27.16c-.07.16-.08.28 0 .32l.15.09.28-.48z" fill="#949054"/>
    <path d="m81.245 99.933c-.08.14-.2.21-.28.16s-.08-.18 0-.32.2-.2.28-.16.07.187 0 .32z" fill="#adaa81"/>
    <path d="m81.145 102.173c-.42.72-1.09 1.11-1.51.87s-.41-1 0-1.74 1.09-1.12 1.51-.87.42 1.02 0 1.74z"
          fill="#262425"/>
    <path
        d="m79.635 101.313c.42-.73 1.09-1.12 1.51-.87l-.43-.26c-.42-.24-1.09.15-1.51.88s-.42 1.5 0 1.74l.43.25c-.41-.253-.41-1.03 0-1.74z"
        fill="#131112"/>
    <path d="m80.1 99.623a.275.275 0 0 0 -.28.16c-.08.16-.07.28 0 .32l.16.09.28-.48z" fill="#949054"/>
    <path d="m80.255 100.033c-.08.13-.2.21-.28.16s-.08-.19 0-.32.2-.2.28-.16.07.187 0 .32z" fill="#adaa81"/>
    <path d="m79.105 100.673a.269.269 0 0 0 -.28.16c-.08.16-.07.27 0 .32l.16.09.28-.48z" fill="#949054"/>
    <path d="m79.265 101.083c-.08.13-.2.2-.28.16s-.08-.19 0-.32.2-.21.28-.16.07.19 0 .32z" fill="#adaa81"/>
    <path d="m78.695 102.053c-.08-.05-.2 0-.28.16s-.07.27 0 .32l.16.09.28-.48z" fill="#949054"/>
    <path d="m78.855 102.463c-.08.13-.2.2-.28.16s-.08-.19 0-.32.2-.21.28-.16.07.17 0 .32z" fill="#adaa81"/>
    <path d="m79.105 102.963a.269.269 0 0 0 -.28.16c-.08.16-.07.27 0 .32l.16.09.28-.48z" fill="#949054"/>
    <path d="m79.265 103.373c-.08.13-.2.2-.28.16s-.08-.19 0-.32.2-.21.28-.16.07.18 0 .32z" fill="#adaa81"/>
    <path d="m78.965 86.243-19.82-11.44v8.31l19.82 11.44z" fill="#b24800"/>
    <path d="m86.805 82.733-19.88-11.42a2.058 2.058 0 0 0 -2 .22l-5.74 3.31 19.78 11.4 5.74-3.31a2 2 0 0 1 2.1-.2z"
          fill="#dd4f00"/>
    <path d="m56.215 101.953-1.48-9.93-4.32-2.5v2.54a4.1 4.1 0 0 1 -1.85 3.25l-4 2.28.47 1.41v4.21z" fill="#e09400"/>
    <path
        d="m41.275 97.453c3.52-2 6.38-.38 6.38 3.68v4.18l.6-.35v-4.17c0-2.23-.78-3.79-2.05-4.52s-3-.62-4.93.49l-3.22 1.86v.69z"
        fill="#f26d00"/>
    <path d="m43.045 96.713a6.563 6.563 0 0 1 .25 1.9v4.22l4.36 2.48v-4.18c0-3.35-1.95-5.06-4.61-4.42z" fill="#b57800"/>
    <path d="m41.855 93.763c-1.27-.73-3-.63-4.94.48l-3.22 1.87 4.36 2.51 3.22-1.86c1.93-1.11 3.67-1.22 4.93-.49z"
          fill="#dd4f00"/>
    <path d="m33.695 96.113v.68l4.36 2.52v-.69z" fill="#b24000"/>
    <path
        d="m61.155 108c-.64-.54-1.27-1.11-1.86-1.71s-1-1.12-1.54-1.67a7.2 7.2 0 0 1 -1.15-1.48 3.983 3.983 0 0 1 -.38-1l-4.25.84-2.52 7.93a8.086 8.086 0 0 0 -.45 2.56 1.52 1.52 0 0 0 2.5 1.44l10.57-6.11z"
        fill="#b23200"/>
    <path d="m59.145 83.113-9.92 5.73 4.32 2.49-8.02 4.63 11.35 6.36 7.85-4.54 4.32 2.5 9.92-5.73z" fill="#ff8048"/>
    <path d="m46.175 95.963 8.01-4.63-4.31-2.49 9.59-5.55 19.18 11.07-9.6 5.55-4.32-2.5-7.86 4.54z" fill="#3d3838"/>
    <path
        d="m59.415 60.123-7.79 4.5a10.574 10.574 0 0 0 -4.31 5.56c-1 3-2.06 6.36-2.94 10a88.807 88.807 0 0 0 -2.33 15.13l1.19.68c.14-2.25.41-4.87.88-7.83.35-2.22.83-4.64 1.45-7.23.88-3.66 1.9-7 2.94-10a10.542 10.542 0 0 1 4.3-5.62l7.8-4.5a2.512 2.512 0 0 1 1.37-.4c-.49-.77-1.45-.93-2.56-.29z"
        fill="#464b51"/>
    <path
        d="m60.605 60.813-7.8 4.5a10.543 10.543 0 0 0 -4.31 5.56c-1 3-2.06 6.36-2.94 10q-.93 3.885-1.45 7.23l1.1.29c.4-2.56.89-5.14 1.52-7.76.77-3.23 1.74-6.52 2.87-9.78a7.829 7.829 0 0 1 3.21-4.12l7.8-4.51c.93-.53 1.68-.09 1.68 1v23.09l1.22-.7v-23.13c0-1.85-1.29-2.6-2.9-1.67z"
        fill="#606e7a"/>
    <path d="m62.285 63.193c0-.89-.53-1.34-1.25-1.15a1.624 1.624 0 0 1 .06.46v23.15l1.19.68z" fill="#464b51"/>
    <path d="m55.255 94.553-11.14-6.43c-.47 3-.74 5.58-.88 7.83l11.13 6.36z" fill="#464b51"/>
    <path d="m45.265 88.123h-1.15l11.14 6.43.09-.61z" fill="#707d85"/>
    <path
        d="m57.805 104.363c-.43-.81-3.48-2-3.48-2l-11.13-6.4-4.66 7.35a6.425 6.425 0 0 0 -1 3.33v.13a1.761 1.761 0 0 0 .73 1.62l11.49 6.63 7.83-4s.46-6.3.22-6.66z"
        fill="#cc3e00"/>
    <path d="m64.725 100.313v-2.53l-8 4.64 1.66 1.72.56 1.67 4-2.28a4.1 4.1 0 0 0 1.78-3.22z" fill="#f47f00"/>
    <path d="m66.805 87.893a9.188 9.188 0 0 0 -4.15 7.19v.86l8.15-4.71v-5.65z" fill="#292424"/>
    <path
        d="m66.805 87.893 4-2.31-5.75-3.27-4 2.32a9.17 9.17 0 0 0 -4.15 7.18v.86l5.71 3.3v-.86a9.19 9.19 0 0 1 4.19-7.22z"
        fill="#4d4848"/>
    <path
        d="m68.805 86.193-5.44 3.12a.432.432 0 0 1 -.39 0 .411.411 0 0 1 -.17-.3v-.53a2.231 2.231 0 0 1 .77-1.56 9.8 9.8 0 0 1 2.71-1.7 24.857 24.857 0 0 0 3.12-1.38z"
        fill="#4d4545"/>
    <path
        d="m62.805 89.013v-.53a2.231 2.231 0 0 1 .77-1.56 9.8 9.8 0 0 1 2.71-1.7 24.857 24.857 0 0 0 3.12-1.38l-4.72-2.73a25.724 25.724 0 0 1 -3.13 1.38 9.656 9.656 0 0 0 -2.75 1.69 2.26 2.26 0 0 0 -.76 1.57v.56a.38.38 0 0 0 .16.35l4.73 2.74a.409.409 0 0 1 -.13-.39z"
        fill="#393333"/>
    <path d="m62.975 89.373-4.32-2.5a.7.7 0 0 0 .29.65l4.73 2.73-.3-.91a.433.433 0 0 1 -.4.03z" fill="#1f1c1c"/>
    <path
        d="m70.455 76.383a1.82 1.82 0 0 0 -.93 1 20.15 20.15 0 0 0 -.7 2 16.4 16.4 0 0 0 -.54 2.66 12.4 12.4 0 0 1 -.27 1.53l-.27 1.1a14.37 14.37 0 0 0 1.67-.8l1.7-6.56a.857.857 0 0 0 -.21-.95.53.53 0 0 0 -.45.02z"
        fill="#4d4545"/>
    <path
        d="m68.285 82.013a16.524 16.524 0 0 1 .52-2.7 20.15 20.15 0 0 1 .7-2 1.82 1.82 0 0 1 .93-1 .529.529 0 0 1 .45 0l-4.73-2.73a.551.551 0 0 0 -.46 0 1.708 1.708 0 0 0 -.92 1 17.29 17.29 0 0 0 -.7 2 16.564 16.564 0 0 0 -.53 2.73 10.723 10.723 0 0 1 -.27 1.53l-.26 1.09 4.73 2.74.27-1.1a12.319 12.319 0 0 0 .27-1.56z"
        fill="#393333"/>
    <path d="m63.365 89.313c0 .43.08.8.3.91a8.318 8.318 0 0 1 2.64-2.61z" fill="#292424"/>
    <path
        d="m69.045 100.313v2.54a4.09 4.09 0 0 1 -1.85 3.2l-3.64 2.1a7.852 7.852 0 0 1 .15 1.59v4.22l11.22-6.48v-3.69a8.921 8.921 0 0 1 4-7v-2.24z"
        fill="#f26200"/>
    <path d="m53.145 86.233-.31.56 1.34.77.3-.56 1.75.87-1.34-.77z" fill="#292424"/>
    <path d="m54.475 87.003-.3.56 1.56 1.2.49-.89z" fill="#1f1c1c"/>
    <path
        d="m54.155 93.313 1.65-.52c1-2.74.2-4.17-1-4.84a1.12 1.12 0 0 0 -1.506.49 1.156 1.156 0 0 0 -.094.26c-.53 1.73-1 3.46-1 3.46z"
        fill="#262425"/>
    <path
        d="m54.805 87.943-3.51-2a1.13 1.13 0 0 0 -1.61.75c-.53 1.73-1 3.46-1 3.46l3.52 2s.45-1.73 1-3.46a1.12 1.12 0 0 1 1.34-.844 1.077 1.077 0 0 1 .26.094z"
        fill="#4d4848"/>
    <path d="m54.955 85.043-.91 1.66a1.643 1.643 0 0 0 .26.17c.18.1.69.38.9.48s.12.05.12 0l.92-1.66z" fill="#665c5c"/>
    <path d="m53.7 83.5.14-.25c.87.4 2.53 1.28 3.71 2a4.371 4.371 0 0 1 1.08.7l-.09.17z" fill="#4e4646"/>
    <path d="m56.9 84.983-.1-.06z"/>
    <path d="m57.485 85.423-.08.15-4.07-2.24.13-.24z" fill="#615858"/>
    <path d="m53.455 83.093h-.1l.09.06v-.07z" fill="#3b3535"/>
    <path d="m56.535 84.743c.36.22.46.3.25.2l1.42.82h-.12l-.57-.27-4-2.33.36.16h.07l1.43.82c.29.17.79.39 1.16.6z"
          fill="#342e2e"/>
    <path
        d="m59.485 86.373-.38.71a3.234 3.234 0 0 1 -.67-.26c-1.14-.52-3.33-1.68-4.88-2.57a6.236 6.236 0 0 1 -1.41-.94l.38-.7a6.667 6.667 0 0 0 1.41.92c1.55.89 3.74 2 4.87 2.57.44.21.66.297.68.27z"
        fill="#5e5555"/>
    <path d="m54.065 84.543c.78.44 1.67.92 2.48 1.34l.37-.71c-.81-.42-1.69-.9-2.47-1.34z" fill="#979090"/>
    <path
        d="m58.065 85.453c1.55.9 1.88 1.2.74.67s-3.32-1.68-4.87-2.57-1.88-1.2-.74-.67 3.33 1.68 4.87 2.57zm.06.28c.86.41.61.18-.57-.5s-2.84-1.56-3.71-2c-.83-.38-.57-.15.59.52s2.74 1.51 3.63 1.92z"
        fill="#342e2e"/>
    <path
        d="m64.725 97.783v2.53a4.1 4.1 0 0 1 -1.85 3.21l-2.07 1.19.15.19a2.981 2.981 0 0 1 .69.3 4.141 4.141 0 0 1 1.89 2.92l3.64-2.1a4.09 4.09 0 0 0 1.85-3.2v-2.51z"
        fill="#dd4f00"/>
    <path d="m78.965 94.553-.24.14v2.26l.24-.14z" fill="#1f1c1c"/>
    <path d="m42.725 96.533 1.11-2-.47-.27-.48.21a1.641 1.641 0 0 0 -.83 1.24.58.58 0 0 0 .21.6z" fill="#dd3900"/>
    <path d="m43.175 96.523.63-.21v-1.83l-.48.21a1.652 1.652 0 0 0 -.84 1.24.6.6 0 0 0 .21.6.51.51 0 0 0 .48-.01z"
          fill="#b73d00"/>
    <path d="m43.655 95.433a.883.883 0 0 1 -.44.66c-.22.09-.37-.05-.35-.31a.887.887 0 0 1 .45-.66c.21-.09.37.05.34.31z"
          fill="#524848"/>
    <path
        d="m44.805 95.633a.732.732 0 0 0 -.34-.46.525.525 0 0 0 -.27-.08h-3.54v1.66l3.54-.05a.459.459 0 0 0 .22-.06.9.9 0 0 0 .39-1.01z"
        fill="#5e5d59"/>
    <path d="m37.9 95.983c-.17.3-.45.47-.63.36s-.17-.42 0-.73.46-.46.63-.36.175.43 0 .73z" fill="#3d3838"/>
    <path
        d="m40.875 95.223a.5.5 0 0 0 -.49 0 .921.921 0 0 0 -.37 1.09.829.829 0 0 0 .34.46.5.5 0 0 0 .49 0 .9.9 0 0 0 .37-1.06.758.758 0 0 0 -.34-.46z"
        fill="#7d7b75"/>
    <path
        d="m40.9 95.843a.375.375 0 0 0 -.16-.22.27.27 0 0 0 -.12 0h-3.06v.76l3.07-.07h.1a.381.381 0 0 0 .16-.19.533.533 0 0 0 .01-.28z"
        fill="#d1cdc6"/>
    <path
        d="m37.675 95.673a.241.241 0 0 0 -.23 0 .42.42 0 0 0 -.17.49.352.352 0 0 0 .16.21.23.23 0 0 0 .23 0 .361.361 0 0 0 .16-.2.478.478 0 0 0 0-.29.359.359 0 0 0 -.15-.22z"
        fill="#f0ece3"/>
    <path d="m38.655 96.423c-.17.3-.45.46-.63.36s-.17-.42 0-.73.46-.46.63-.36.15.43 0 .73z" fill="#4d4747"/>
    <path
        d="m38.025 96.053c.18-.3.46-.46.63-.36l-.76-.44-.34.39c.16 0 .35.1.35.42a.439.439 0 0 1 -.17.32.189.189 0 0 1 -.1 0h-.06a.206.206 0 0 1 -.13 0h-.13l.76.44a.571.571 0 0 1 -.05-.77z"
        fill="#3d3838"/>
    <path d="m44.355 97.463 1.1-2-.46-.27-.48.21a1.652 1.652 0 0 0 -.84 1.24.589.589 0 0 0 .22.6z" fill="#e09400"/>
    <path d="m44.805 97.463.6-.26.06-1.78-.48.21a1.66 1.66 0 0 0 -.84 1.24.591.591 0 0 0 .22.59.481.481 0 0 0 .44 0z"
          fill="#b87a00"/>
    <path d="m45.285 96.373a.889.889 0 0 1 -.45.66c-.21.09-.37 0-.34-.31a.85.85 0 0 1 .44-.66c.22-.09.37.05.35.31z"
          fill="#524848"/>
    <path d="m47.325 78.513-10.3-5.95.79-.45 10.31 5.95z" fill="#8f8080"/>
    <path d="m37.025 72.563v2.46l10.3 5.95v-2.46z" fill="#3d3838"/>
    <path d="m47.325 78.513v2.46l.8-.46v-2.45z" fill="#756a6a"/>
    <path d="m37.025 72.563-1.77 1.02 2.38 1.38 1.76-1.02z" fill="#8f8080"/>
    <path d="m35.255 73.583v38.79l2.38 1.37v-38.78z" fill="#3d3838"/>
    <path d="m37.635 113.743 1.76-1.02v-38.78l-1.76 1.02z" fill="#756a6a"/>
    <path d="m44.945 77.143-1.76 1.02 2.37 1.37 1.77-1.02z" fill="#8f8080"/>
    <path d="m43.185 78.163v38.79l2.37 1.37v-38.79z" fill="#3d3838"/>
    <path d="m45.555 118.323 1.77-1.02v-38.79l-1.77 1.02z" fill="#756a6a"/>
    <path
        d="m43.7 101.313v15.68a2.711 2.711 0 0 1 -1.21 2.1l-12.09 7-2.47 2.06v.26l15.46-8.93a3.491 3.491 0 0 0 1.58-2.73v-16.16z"
        fill="#3d3838"/>
    <path
        d="m42.505 100.643v15.67a2.649 2.649 0 0 1 -1.21 2.09l-12.09 7 1.19.69 12.09-7a2.711 2.711 0 0 0 1.21-2.1v-15.68z"
        fill="#756a6a"/>
    <path d="m43.775 99.903-1.27.74 1.19.68 1.27-.73z" fill="#8a7c7c"/>
    <path d="m29.205 125.383-2.47 2.08 1.19.69 2.47-2.08z" fill="#8a7c7c"/>
    <path d="m26.735 127.463v.27l1.19.68v-.26z" fill="#756a6a"/>
    <path
        d="m35.805 96.753v15.67a2.649 2.649 0 0 1 -1.21 2.09l-12.08 7-2.515 2.06v.27l15.47-8.93a3.511 3.511 0 0 0 1.57-2.73v-16.17z"
        fill="#3d3838"/>
    <path
        d="m34.575 96.063v15.67a2.688 2.688 0 0 1 -1.21 2.1l-12.08 7 1.19.69 12.08-7a2.651 2.651 0 0 0 1.25-2.1v-15.67z"
        fill="#756a6a"/>
    <path d="m35.855 95.333-1.28.73 1.19.69 1.27-.74z" fill="#8a7c7c"/>
    <path d="m21.285 120.803-2.48 2.09 1.19.68 2.48-2.08z" fill="#8a7c7c"/>
    <path d="m18.805 122.893v.26l1.19.69v-.27z" fill="#756a6a"/>
    <path d="m58.505 105.643a6.849 6.849 0 0 1 .25 1.9v4.21l4.36 2.56v-4.25c0-3.363-1.95-5.07-4.61-4.42z"
          fill="#b24000"/>
    <path
        d="m59.805 107.793-3.56-2c-2.13-1.23-5.58.76-7.71 4.45s-2.13 7.67 0 8.9l3.56 2.06c2.13 1.22 5.58-.77 7.71-4.45s2.15-7.74 0-8.96z"
        fill="#141414"/>
    <path d="m59.805 116.693c-2.13 3.68-5.58 5.67-7.71 4.45s-2.12-5.22 0-8.9 5.58-5.68 7.71-4.45 2.15 5.207 0 8.9z"
          fill="#2e2929"/>
    <path d="m58.1 115.693c-1.17 2-3.07 3.13-4.25 2.45s-1.17-2.83-.04-4.91 3.08-3.13 4.25-2.45 1.215 2.87.04 4.91z"
          fill="#080707"/>
    <path
        d="m57.545 115.373c1.08-1.87 1.17-3.88.26-4.72-1.18-.37-2.88.71-4 2.58s-1.16 3.89-.25 4.72c1.25.36 2.91-.71 3.99-2.58z"
        fill="#34353a"/>
    <path d="m55.6 115.9c-.1-.06-.26 0-.35.21s-.1.35 0 .4l.19.12.37-.62z" fill="#949054"/>
    <path d="m55.805 116.423c-.1.17-.26.27-.36.21s-.09-.24 0-.41.26-.26.36-.21.095.24 0 .41z" fill="#adaa81"/>
    <path d="m56.865 114.563a.344.344 0 0 0 -.36.21c-.1.21-.1.35 0 .41l.2.11.35-.61z" fill="#949054"/>
    <path d="m57.055 115.093c-.09.17-.25.26-.35.2s-.1-.24 0-.41.26-.26.35-.2.1.24 0 .41z" fill="#adaa81"/>
    <path d="m57.385 112.8c-.1-.06-.26 0-.35.2s-.1.36 0 .41l.2.12.35-.62z" fill="#949054"/>
    <path d="m57.585 113.313c-.1.17-.26.26-.35.21s-.1-.24 0-.41.25-.26.35-.21.1.25 0 .41z" fill="#adaa81"/>
    <path d="m56.865 111.643c-.1-.06-.26 0-.36.21s-.1.35 0 .4l.2.12.35-.62z" fill="#949054"/>
    <path d="m57.055 112.163c-.09.17-.25.27-.35.21s-.1-.24 0-.41.26-.26.35-.21.1.24 0 .41z" fill="#adaa81"/>
    <path d="m56.935 115.023c-.53.92-1.39 1.42-1.92 1.11s-.54-1.3 0-2.23 1.39-1.42 1.92-1.11.53 1.307 0 2.23z"
          fill="#262425"/>
    <path
        d="m55.015 113.9c.53-.92 1.39-1.42 1.92-1.11l-.55-.32c-.53-.31-1.4.19-1.93 1.11s-.53 1.92 0 2.23l.56.32c-.54-.307-.54-1.297 0-2.23z"
        fill="#131112"/>
    <path d="m55.6 111.773c-.1-.06-.26 0-.35.2s-.1.35 0 .41l.19.11.36-.61z" fill="#949054"/>
    <path d="m55.805 112.313c-.1.17-.26.26-.36.2s-.09-.24 0-.41.26-.26.36-.2.095.22 0 .41z" fill="#adaa81"/>
    <path d="m54.325 113.1a.339.339 0 0 0 -.35.21c-.1.21-.1.35 0 .41l.2.11.35-.61z" fill="#949054"/>
    <path d="m54.525 113.633c-.09.17-.25.26-.35.2s-.1-.24 0-.41.26-.26.35-.2.1.24 0 .41z" fill="#adaa81"/>
    <path d="m53.805 114.873c-.1-.06-.26 0-.35.2s-.1.35 0 .41l.19.11.36-.61z" fill="#949054"/>
    <path d="m54.005 115.393c-.1.17-.26.26-.36.2s-.09-.23 0-.4.26-.27.36-.21.1.24 0 .41z" fill="#adaa81"/>
    <path d="m54.325 116.033c-.09-.06-.25 0-.35.2s-.1.35 0 .41l.2.11.35-.61z" fill="#949054"/>
    <path d="m54.525 116.553c-.09.17-.25.26-.35.2s-.1-.24 0-.41.26-.26.35-.2.1.24 0 .41z" fill="#adaa81"/>
    <path d="m57.305 102.683c-1.26-.73-3-.62-4.93.49l-3.23 1.86 4.36 2.52 3.23-1.86c1.92-1.12 3.67-1.22 4.93-.49z"
          fill="#dd4f00"/>
    <path d="m49.145 105.033v.69l4.36 2.51v-.68z" fill="#b24000"/>
    <path
        d="m56.735 106.373c3.52-2 6.38-.38 6.38 3.69v4.25l.59-.34v-4.26c0-2.22-.78-3.78-2-4.51s-3-.63-4.93.49l-3.27 1.86v.68z"
        fill="#f26d00"/>
    <path
        d="m60.805 77.983a10.709 10.709 0 0 1 4.31-5.56l7.8-4.5a2 2 0 0 1 2-.2l-1.11-.69a2 2 0 0 0 -2.05.21l-7.8 4.5a10.629 10.629 0 0 0 -4.32 5.57c-1 3-2.06 6.36-2.94 10a88.6 88.6 0 0 0 -2.33 15.06l1.19.69a88.816 88.816 0 0 1 2.33-15.07c.92-3.68 1.92-7.02 2.92-10.01z"
        fill="#464b51"/>
    <path
        d="m72.935 67.923-7.8 4.5a10.712 10.712 0 0 0 -4.33 5.56c-1 3-2.06 6.37-2.94 10a88.816 88.816 0 0 0 -2.33 15.07 4 4 0 0 1 3 .32l1.37.79a11.006 11.006 0 0 0 -1.55-2.35c-1-1.13-1.35-2.64-1-5 .42-3 1-6 1.71-9.11a96.769 96.769 0 0 1 2.87-9.78 7.873 7.873 0 0 1 3.21-4.14l7.8-4.5c.92-.53 1.67-.1 1.67 1v23.17l1.19-.71v-23.143a1.755 1.755 0 0 0 -2.87-1.68z"
        fill="#707d85"/>
    <path d="m73.365 69.163a2.081 2.081 0 0 1 0 .46v23.14l1.19.69v-23.14c.05-.9-.48-1.35-1.19-1.15z" fill="#464b51"/>
    <path
        d="m61.3 58.313a.271.271 0 0 0 -.27 0l-13.88 8a.84.84 0 0 0 -.38.66l14.9 8.6a.862.862 0 0 1 .38-.66l13.89-8a.271.271 0 0 1 .27 0z"
        fill="#494949"/>
    <path d="m46.805 67.043v.83a2.771 2.771 0 0 0 1.26 2.18l12.34 7.15c.7.4 1.26.08 1.26-.73v-.83z" fill="#383838"/>
    <path
        d="m76.315 67.193a.23.23 0 0 0 -.38-.22l-13.89 8a.862.862 0 0 0 -.38.66v.83l-.18.65a15.294 15.294 0 0 1 2.67-3.09l10.65-6.16a.549.549 0 0 1 .25-.07 1.809 1.809 0 0 1 .75 1.11c.33-.07.55-.38.55-.89v-.82z"
        fill="#2b2b2b"/>
    <path d="m61.485 66.4c-1.23 0-2.23-.58-2.23-1.29s1-1.28 2.23-1.28 2.23.57 2.23 1.28-1 1.29-2.23 1.29z"
          fill="#707d85"/>
    <path
        d="m61.485 66.4c-1.23 0-2.23-.58-2.23-1.29v.55c0 .71 1 1.29 2.23 1.29s2.23-.58 2.23-1.29v-.55c0 .713-1 1.29-2.23 1.29z"
        fill="#464b51"/>
    <path d="m61.485 63.073c-.69 0-1.25-.32-1.25-.72s.56-.73 1.25-.73 1.25.33 1.25.73-.56.72-1.25.72z" fill="#e54545"/>
    <path
        d="m61.485 63.073c-.69 0-1.25-.32-1.25-.72 0 0-.36 2.62-.36 2.76 0 .52.72.93 1.61.93s1.6-.41 1.6-.93c0-.16-.35-2.76-.35-2.76 0 .4-.56.72-1.25.72z"
        fill="#b01a1c"/>
    <path
        d="m87.475 85.043.13-.08v-.363a1.77 1.77 0 0 0 -2.9-1.67l-5.74 3.31v10.57l2.84-1.63c2.23-1.29 4-.25 4 2.32v2.2a4 4 0 0 0 1.8-3.09v-8.54l-.13.08c-.48.27-.86.05-.86-.5v-1.13a1.878 1.878 0 0 1 .86-1.477z"
        fill="#f26200"/>
    <path d="m87.475 88.153.13-.08-.32-.18-.45.3a.6.6 0 0 0 .64-.04z" fill="#e09400"/>
    <path d="m78.965 89.953v.89l7.65-4.42a2 2 0 0 1 .8-1.35z" fill="#db4300"/>
    <path d="m86.615 87.753a.571.571 0 0 0 .22.44l.2-.12v-2.45l-.2.11a1.726 1.726 0 0 0 -.22.79z" fill="#332f2f"/>
    <path d="m87.165 88a.509.509 0 0 0 .23-.4v-1.93a.182.182 0 0 0 -.07-.15.158.158 0 0 0 -.16 0l-.13.08v2.45z"
          fill="#f63300"/>
    <path d="m86.935 85.563v.17l.2-.11z"/>
    <path d="m87.165 85.543a.158.158 0 0 1 .16 0l-.25-.14-.14.18.1.06z" fill="#d33300"/>
    <path d="m51.705 101.713 1.1-2-.46-.27-.48.21a1.652 1.652 0 0 0 -.84 1.24.589.589 0 0 0 .22.6z" fill="#dd3900"/>
    <path d="m52.145 101.713.6-.26.06-1.78-.48.21a1.66 1.66 0 0 0 -.84 1.24.591.591 0 0 0 .22.59.481.481 0 0 0 .44 0z"
          fill="#b73d00"/>
    <path d="m52.635 100.623a.889.889 0 0 1 -.45.66c-.21.09-.37 0-.34-.32a.849.849 0 0 1 .44-.65c.22-.09.37.05.35.31z"
          fill="#524848"/>
    <path
        d="m53.735 100.813a.829.829 0 0 0 -.34-.46.547.547 0 0 0 -.28-.07l-3.53.03v1.66l3.54-.06a.415.415 0 0 0 .21 0 .92.92 0 0 0 .4-1.1z"
        fill="#5e5d59"/>
    <path d="m46.875 101.173c-.18.3-.46.46-.63.36s-.18-.43 0-.73.45-.46.63-.36.17.42 0 .73z" fill="#3d3838"/>
    <path
        d="m49.805 100.413a.5.5 0 0 0 -.49 0 .9.9 0 0 0 -.36 1.06.732.732 0 0 0 .34.46.5.5 0 0 0 .49 0 .9.9 0 0 0 .36-1.06.732.732 0 0 0 -.34-.46z"
        fill="#7d7b75"/>
    <path
        d="m49.865 101.023a.374.374 0 0 0 -.16-.21.244.244 0 0 0 -.12 0l-3.06.05v.76l3.06-.05h.1a.327.327 0 0 0 .16-.19.483.483 0 0 0 .02-.36z"
        fill="#d1cdc6"/>
    <path
        d="m46.645 100.863a.238.238 0 0 0 -.22 0 .44.44 0 0 0 -.095.615.475.475 0 0 0 .095.095.258.258 0 0 0 .23 0 .32.32 0 0 0 .16-.2.478.478 0 0 0 0-.29.375.375 0 0 0 -.16-.22z"
        fill="#f0ece3"/>
    <path d="m47.635 101.613c-.18.3-.46.46-.63.36s-.18-.43 0-.73.45-.47.63-.36.17.43 0 .73z" fill="#4d4747"/>
    <path
        d="m47.005 101.243c.17-.3.45-.47.63-.36l-.76-.44-.35.39c.17 0 .36.1.36.42a.473.473 0 0 1 -.17.32h-.16a.366.366 0 0 1 -.14 0h-.115l.75.44c-.245-.14-.245-.47-.045-.77z"
        fill="#3d3838"/>
    <path d="m53.325 102.653 1.11-2-.47-.34-.48.21a1.629 1.629 0 0 0 -.83 1.24.59.59 0 0 0 .21.6z" fill="#dd3900"/>
    <path d="m53.805 102.653.6-.26.07-1.78-.48.21a1.641 1.641 0 0 0 -.84 1.24.59.59 0 0 0 .21.59.481.481 0 0 0 .44 0z"
          fill="#f46300"/>
    <path d="m54.255 101.563a.841.841 0 0 1 -.44.65c-.22.1-.37 0-.35-.31a.892.892 0 0 1 .44-.65c.22-.1.38.06.35.31z"
          fill="#524848"/>
</svg>
