<svg xmlns:xlink="http://www.w3.org/1999/xlink" viewBox="0 0 190 170" xmlns="http://www.w3.org/2000/svg">
    <filter id="a" color-interpolation-filters="sRGB" filterUnits="userSpaceOnUse" height="32766" width="12.403"
            x="35.071" y="-8467">
        <feFlood flood-color="#fff" result="bg"/>
        <feBlend in="SourceGraphic" in2="bg"/>
    </filter>
    <mask id="b" height="32766" maskUnits="userSpaceOnUse" width="12.403" x="35.071" y="-8467">
        <g filter="url(#a)"/>
    </mask>
    <linearGradient id="c" gradientUnits="userSpaceOnUse" x1="35.071" x2="48.79" y1="117.205" y2="117.205">
        <stop offset="0"/>
        <stop offset=".524" stop-color="#fff"/>
        <stop offset="1"/>
    </linearGradient>
    <filter id="d" color-interpolation-filters="sRGB" filterUnits="userSpaceOnUse" height="32766" width="12.844"
            x="101.458" y="-8467">
        <feFlood flood-color="#fff" result="bg"/>
        <feBlend in="SourceGraphic" in2="bg"/>
    </filter>
    <mask id="e" height="32766" maskUnits="userSpaceOnUse" width="12.844" x="101.458" y="-8467">
        <g filter="url(#d)"/>
    </mask>
    <linearGradient id="f" x1="101.458" x2="115.666" xlink:href="#c" y1="150.093" y2="150.093"/>
    <filter id="g" color-interpolation-filters="sRGB" filterUnits="userSpaceOnUse" height="32766" width=".008"
            x="114.302" y="-8467">
        <feFlood flood-color="#fff" result="bg"/>
        <feBlend in="SourceGraphic" in2="bg"/>
    </filter>
    <mask id="h" height="32766" maskUnits="userSpaceOnUse" width=".008" x="114.302" y="-8467">
        <g filter="url(#g)"/>
    </mask>
    <linearGradient id="i" x1="114.302" x2="114.311" xlink:href="#c" y1="153.268" y2="153.268"/>
    <filter id="j" color-interpolation-filters="sRGB" filterUnits="userSpaceOnUse" height="32766" width="12.536" x="155"
            y="-8467">
        <feFlood flood-color="#fff" result="bg"/>
        <feBlend in="SourceGraphic" in2="bg"/>
    </filter>
    <mask id="k" height="32766" maskUnits="userSpaceOnUse" width="12.536" x="155" y="-8467">
        <g filter="url(#j)"/>
    </mask>
    <linearGradient id="l" x1="155" x2="167.536" xlink:href="#c" y1="123.718" y2="123.718"/>
    <filter id="m" color-interpolation-filters="sRGB" filterUnits="userSpaceOnUse" height="32766" width="12.815"
            x="104.231" y="-8467">
        <feFlood flood-color="#fff" result="bg"/>
        <feBlend in="SourceGraphic" in2="bg"/>
    </filter>
    <mask id="n" height="32766" maskUnits="userSpaceOnUse" width="12.815" x="104.231" y="-8467">
        <g filter="url(#m)"/>
    </mask>
    <linearGradient id="o" gradientUnits="userSpaceOnUse" x1="107.537" x2="113.988" y1="117.039" y2="120.784">
        <stop offset="0"/>
        <stop offset="1" stop-color="#fff"/>
    </linearGradient>
    <filter id="p" color-interpolation-filters="sRGB" filterUnits="userSpaceOnUse" height="32766" width="12.816"
            x="91.975" y="-8467">
        <feFlood flood-color="#fff" result="bg"/>
        <feBlend in="SourceGraphic" in2="bg"/>
    </filter>
    <mask id="q" height="32766" maskUnits="userSpaceOnUse" width="12.816" x="91.975" y="-8467">
        <g filter="url(#p)"/>
    </mask>
    <linearGradient id="r" x1="95.281" x2="101.732" xlink:href="#o" y1="109.664" y2="113.409"/>
    <filter id="s" color-interpolation-filters="sRGB" filterUnits="userSpaceOnUse" height="32766" width=".008"
            x="47.473" y="-8467">
        <feFlood flood-color="#fff" result="bg"/>
        <feBlend in="SourceGraphic" in2="bg"/>
    </filter>
    <mask id="t" height="32766" maskUnits="userSpaceOnUse" width=".008" x="47.473" y="-8467">
        <g filter="url(#s)"/>
    </mask>
    <linearGradient id="u" x1="47.473" x2="47.482" xlink:href="#c" y1="120.271" y2="120.271"/>
    <filter id="v" color-interpolation-filters="sRGB" filterUnits="userSpaceOnUse" height="32766" width="4.141"
            x="88.391" y="-8467">
        <feFlood flood-color="#fff" result="bg"/>
        <feBlend in="SourceGraphic" in2="bg"/>
    </filter>
    <mask id="w" height="32766" maskUnits="userSpaceOnUse" width="4.141" x="88.391" y="-8467">
        <g filter="url(#v)"/>
    </mask>
    <linearGradient id="x" gradientUnits="userSpaceOnUse" x1="89.788" x2="90.572" y1="157.638" y2="159.468">
        <stop offset="0" stop-color="#fff"/>
        <stop offset=".356" stop-color="#fff"/>
        <stop offset="1"/>
    </linearGradient>
    <filter id="y" color-interpolation-filters="sRGB" filterUnits="userSpaceOnUse" height="32766" width="3.959"
            x="74.022" y="-8467">
        <feFlood flood-color="#fff" result="bg"/>
        <feBlend in="SourceGraphic" in2="bg"/>
    </filter>
    <mask id="z" height="32766" maskUnits="userSpaceOnUse" width="3.959" x="74.022" y="-8467">
        <g filter="url(#y)"/>
    </mask>
    <linearGradient id="A" gradientUnits="userSpaceOnUse" x1="76.167" x2="75.823" y1="134.819" y2="139.451">
        <stop offset="0" stop-color="#fff"/>
        <stop offset="1"/>
    </linearGradient>
    <filter id="B" color-interpolation-filters="sRGB" filterUnits="userSpaceOnUse" height="32766" width="10.351"
            x="92.069" y="-8467">
        <feFlood flood-color="#fff" result="bg"/>
        <feBlend in="SourceGraphic" in2="bg"/>
    </filter>
    <mask id="C" height="32766" maskUnits="userSpaceOnUse" width="10.351" x="92.069" y="-8467">
        <g filter="url(#B)"/>
    </mask>
    <linearGradient id="D" x1="96.175" x2="98.832" xlink:href="#A" y1="145.915" y2="151.608"/>
    <filter id="E" color-interpolation-filters="sRGB" filterUnits="userSpaceOnUse" height="32766" width="3.998"
            x="22.454" y="-8467">
        <feFlood flood-color="#fff" result="bg"/>
        <feBlend in="SourceGraphic" in2="bg"/>
    </filter>
    <mask id="F" height="32766" maskUnits="userSpaceOnUse" width="3.998" x="22.454" y="-8467">
        <g filter="url(#E)"/>
    </mask>
    <linearGradient id="G" x1="23.803" x2="24.56" xlink:href="#x" y1="124.491" y2="126.259"/>
    <filter id="H" color-interpolation-filters="sRGB" filterUnits="userSpaceOnUse" height="32766" width="3.822"
            x="8.581" y="-8467">
        <feFlood flood-color="#fff" result="bg"/>
        <feBlend in="SourceGraphic" in2="bg"/>
    </filter>
    <mask id="I" height="32766" maskUnits="userSpaceOnUse" width="3.822" x="8.581" y="-8467">
        <g filter="url(#H)"/>
    </mask>
    <linearGradient id="J" x1="10.651" x2="10.319" xlink:href="#A" y1="102.457" y2="106.93"/>
    <filter id="K" color-interpolation-filters="sRGB" filterUnits="userSpaceOnUse" height="32766" width="9.994"
            x="26.006" y="-8467">
        <feFlood flood-color="#fff" result="bg"/>
        <feBlend in="SourceGraphic" in2="bg"/>
    </filter>
    <mask id="L" height="32766" maskUnits="userSpaceOnUse" width="9.994" x="26.006" y="-8467">
        <g filter="url(#K)"/>
    </mask>
    <linearGradient id="M" x1="29.97" x2="32.536" xlink:href="#A" y1="113.171" y2="118.669"/>
    <linearGradient id="N" gradientUnits="userSpaceOnUse" x1="39.303" x2="40.895" y1="128.432" y2="122.61">
        <stop offset="0" stop-color="#c2c1c1"/>
        <stop offset="1" stop-color="#dfdedd"/>
    </linearGradient>
    <linearGradient id="O" gradientUnits="userSpaceOnUse" x1="39.538" x2="41.341" y1="127.596" y2="121.543">
        <stop offset="0" stop-color="#b8b7b7"/>
        <stop offset="1" stop-color="#dfdedd"/>
    </linearGradient>
    <linearGradient id="P" x1="41.009" x2="39.791" xlink:href="#N" y1="123.359" y2="128.116"/>
    <linearGradient id="Q" x1="39.843" x2="40.858" xlink:href="#N" y1="126.038" y2="126.038"/>
    <linearGradient id="R" x1="93.416" x2="95.007" xlink:href="#N" y1="97.328" y2="91.507"/>
    <linearGradient id="S" x1="93.651" x2="95.454" xlink:href="#O" y1="96.492" y2="90.44"/>
    <linearGradient id="T" x1="95.122" x2="93.904" xlink:href="#N" y1="92.256" y2="97.012"/>
    <linearGradient id="U" x1="93.957" x2="94.971" xlink:href="#N" y1="94.934" y2="94.934"/>
    <linearGradient id="V" x1="6.309" x2="58.069" xlink:href="#A" y1="102.311" y2="102.311"/>
    <filter id="W" color-interpolation-filters="sRGB" filterUnits="userSpaceOnUse" height="5.974" width="12.403"
            x="35.071" y="114.218">
        <feFlood flood-color="#fff" result="bg"/>
        <feBlend in="SourceGraphic" in2="bg"/>
    </filter>
    <mask id="X" height="5.974" maskUnits="userSpaceOnUse" width="12.403" x="35.071" y="114.218">
        <g filter="url(#W)" mask="url(#b)">
            <path
                d="m45 114.506-1.5-.288-8.427 4.413.534.619s4.152-2.241 6.055-3.233 4.175-1.635 5.013.731a16.7 16.7 0 0 1 .8 3.444c-.053-.869-.416-5.135-2.475-5.686z"
                fill="url(#c)"/>
        </g>
    </mask>
    <linearGradient id="Y" gradientUnits="userSpaceOnUse" x1="35.071" x2="48.79" y1="117.205" y2="117.205">
        <stop offset="0" stop-color="#fff"/>
        <stop offset=".524" stop-color="#5099da"/>
        <stop offset="1" stop-color="#fff"/>
    </linearGradient>
    <filter id="Z" color-interpolation-filters="sRGB" filterUnits="userSpaceOnUse" height=".157" width=".008" x="47.473"
            y="120.192">
        <feFlood flood-color="#fff" result="bg"/>
        <feBlend in="SourceGraphic" in2="bg"/>
    </filter>
    <mask id="aa" height=".157" maskUnits="userSpaceOnUse" width=".008" x="47.473" y="120.192">
        <g filter="url(#Z)" mask="url(#t)">
            <path d="m47.482 120.267-.009-.075c.006.1.009.157.009.157z" fill="url(#u)"/>
        </g>
    </mask>
    <linearGradient id="ab" gradientUnits="userSpaceOnUse" x1="47.473" x2="47.482" y1="120.271" y2="120.271">
        <stop offset="0" stop-color="#fff"/>
        <stop offset=".524" stop-color="#fff"/>
        <stop offset="1" stop-color="#fff"/>
    </linearGradient>
    <filter id="ac" color-interpolation-filters="sRGB" filterUnits="userSpaceOnUse" height="2.476" width="3.998"
            x="22.454" y="124.457">
        <feFlood flood-color="#fff" result="bg"/>
        <feBlend in="SourceGraphic" in2="bg"/>
    </filter>
    <mask id="ad" height="2.476" maskUnits="userSpaceOnUse" width="3.998" x="22.454" y="124.457">
        <g filter="url(#ac)" mask="url(#F)">
            <path
                d="m23.768 124.513c-.846-.176-.963.082-1.114.457s-.354.927-.013 1.174a15.244 15.244 0 0 0 3.546.789l.265-.779z"
                fill="url(#G)"/>
        </g>
    </mask>
    <linearGradient id="ae" gradientUnits="userSpaceOnUse" x1="23.803" x2="24.56" y1="124.491" y2="126.259">
        <stop offset="0" stop-color="#394142"/>
        <stop offset=".356" stop-color="#7a8b8f"/>
        <stop offset="1" stop-color="#515b5e"/>
    </linearGradient>
    <filter id="af" color-interpolation-filters="sRGB" filterUnits="userSpaceOnUse" height="8.149" width="3.822"
            x="8.581" y="100.235">
        <feFlood flood-color="#fff" result="bg"/>
        <feBlend in="SourceGraphic" in2="bg"/>
    </filter>
    <mask id="ag" height="8.149" maskUnits="userSpaceOnUse" width="3.822" x="8.581" y="100.235">
        <g filter="url(#af)" mask="url(#I)">
            <path
                d="m11.472 102.272a4.9 4.9 0 0 1 .112-1.7c-.031.054-.026-.13-.018-.338-.949 1.666-2.477 4.406-2.985 5.318a.611.611 0 0 1 .068.254 4.45 4.45 0 0 0 1.612 2.577 22.152 22.152 0 0 1 2.141-4.722 2.1 2.1 0 0 1 -.93-1.389z"
                fill="url(#J)"/>
        </g>
    </mask>
    <linearGradient id="ah" gradientUnits="userSpaceOnUse" x1="10.651" x2="10.319" y1="102.457" y2="106.93">
        <stop offset="0" stop-color="#fff"/>
        <stop offset="1" stop-color="#fff"/>
    </linearGradient>
    <filter id="ai" color-interpolation-filters="sRGB" filterUnits="userSpaceOnUse" height="7.003" width="9.994"
            x="26.006" y="111.799">
        <feFlood flood-color="#fff" result="bg"/>
        <feBlend in="SourceGraphic" in2="bg"/>
    </filter>
    <mask id="aj" height="7.003" maskUnits="userSpaceOnUse" width="9.994" x="26.006" y="111.799">
        <g filter="url(#ai)" mask="url(#L)">
            <path
                d="m35.387 111.8a5.95 5.95 0 0 1 -2.343 1.782 4.908 4.908 0 0 1 -1.8.278 12.9 12.9 0 0 1 -2.421-.262 35.543 35.543 0 0 0 -2.817 4.319 14.446 14.446 0 0 0 4.29.885 5.151 5.151 0 0 0 .818-.061 4.48 4.48 0 0 0 2.86-2.069c.085-.12.16-.223.223-.3 1.168-1.372 1.803-2.472 1.803-3.094a2.323 2.323 0 0 0 -.613-1.478z"
                fill="url(#M)"/>
        </g>
    </mask>
    <linearGradient id="ak" x1="29.97" x2="32.536" xlink:href="#ah" y1="113.171" y2="118.669"/>
    <linearGradient id="al" x1="105.841" x2="107.489" xlink:href="#N" y1="161.72" y2="155.691"/>
    <linearGradient id="am" x1="106.084" x2="107.951" xlink:href="#O" y1="160.854" y2="154.586"/>
    <linearGradient id="an" x1="107.608" x2="106.346" xlink:href="#N" y1="156.466" y2="161.392"/>
    <linearGradient id="ao" x1="106.401" x2="107.451" xlink:href="#N" y1="159.24" y2="159.24"/>
    <linearGradient id="ap" x1="161.883" x2="163.53" xlink:href="#N" y1="129.507" y2="123.478"/>
    <linearGradient id="aq" x1="162.125" x2="163.993" xlink:href="#O" y1="128.641" y2="122.373"/>
    <linearGradient id="ar" x1="163.65" x2="162.388" xlink:href="#N" y1="124.254" y2="129.18"/>
    <linearGradient id="as" x1="162.442" x2="163.494" xlink:href="#N" y1="127.028" y2="127.028"/>
    <linearGradient id="at" gradientUnits="userSpaceOnUse" x1="71.67" x2="180.087" y1="116.821" y2="116.821">
        <stop offset="0" stop-color="#c6c6c6"/>
        <stop offset="1" stop-color="#949494"/>
    </linearGradient>
    <filter id="au" color-interpolation-filters="sRGB" filterUnits="userSpaceOnUse" height="6.188" width="12.844"
            x="101.458" y="146.999">
        <feFlood flood-color="#fff" result="bg"/>
        <feBlend in="SourceGraphic" in2="bg"/>
    </filter>
    <mask id="av" height="6.188" maskUnits="userSpaceOnUse" width="12.844" x="101.458" y="146.999">
        <g filter="url(#au)" mask="url(#e)">
            <path
                d="m111.736 147.3-1.551-.3-8.727 4.571.554.641s4.3-2.323 6.268-3.349 4.326-1.695 5.194.756a17.539 17.539 0 0 1 .828 3.569c-.055-.902-.43-5.321-2.566-5.888z"
                fill="url(#f)"/>
        </g>
    </mask>
    <linearGradient id="aw" x1="101.458" x2="115.666" xlink:href="#ab" y1="150.093" y2="150.093"/>
    <filter id="ax" color-interpolation-filters="sRGB" filterUnits="userSpaceOnUse" height=".162" width=".008"
            x="114.302" y="153.187">
        <feFlood flood-color="#fff" result="bg"/>
        <feBlend in="SourceGraphic" in2="bg"/>
    </filter>
    <mask id="ay" height=".162" maskUnits="userSpaceOnUse" width=".008" x="114.302" y="153.187">
        <g filter="url(#ax)" mask="url(#h)">
            <path d="m114.31 153.263s0-.027-.008-.076l.008.162z" fill="url(#i)"/>
        </g>
    </mask>
    <linearGradient id="az" x1="114.302" x2="114.311" xlink:href="#ab" y1="153.268" y2="153.268"/>
    <filter id="aA" color-interpolation-filters="sRGB" filterUnits="userSpaceOnUse" height="13.252" width="12.536"
            x="155" y="117.092">
        <feFlood flood-color="#fff" result="bg"/>
        <feBlend in="SourceGraphic" in2="bg"/>
    </filter>
    <mask id="aB" height="13.252" maskUnits="userSpaceOnUse" width="12.536" x="155" y="117.092">
        <g filter="url(#aA)" mask="url(#k)">
            <path
                d="m155 130.344c0-.043-.062-1.108 1.051-4.577 1.155-3.608 3.135-5.409 6.167-7.3 3.114-1.943 5.228-1.269 5.317-1.24l-.121.361c-.02-.006-2.044-.64-5 1.2s-4.886 3.6-6.007 7.093a15.992 15.992 0 0 0 -1.034 4.436z"
                fill="url(#l)"/>
        </g>
    </mask>
    <linearGradient id="aC" x1="155" x2="167.536" xlink:href="#ab" y1="123.718" y2="123.718"/>
    <filter id="aD" color-interpolation-filters="sRGB" filterUnits="userSpaceOnUse" height="13.056" width="12.815"
            x="104.231" y="112.148">
        <feFlood flood-color="#fff" result="bg"/>
        <feBlend in="SourceGraphic" in2="bg"/>
    </filter>
    <mask id="aE" height="13.056" maskUnits="userSpaceOnUse" width="12.815" x="104.231" y="112.148">
        <g filter="url(#aD)" mask="url(#n)">
            <path
                d="m111.307 112.148-5.581 8.1a.858.858 0 0 0 .133 1.3c.775.534 3.625 2.11 3.625 2.11s1.168.346 1.7-.454 5.867-8.128 5.867-8.128l-5.784 9.276a2.064 2.064 0 0 1 -2.573.668 20.265 20.265 0 0 1 -3.684-2.056s-1.63-.749-.161-2.711 6.458-8.105 6.458-8.105z"
                fill="url(#o)"/>
        </g>
    </mask>
    <linearGradient id="aF" x1="107.537" x2="113.988" xlink:href="#ah" y1="117.039" y2="120.784"/>
    <linearGradient id="aG" x1="111.967" x2="105.566" xlink:href="#A" y1="119.584" y2="116.412"/>
    <filter id="aH" color-interpolation-filters="sRGB" filterUnits="userSpaceOnUse" height="13.057" width="12.816"
            x="91.975" y="104.773">
        <feFlood flood-color="#fff" result="bg"/>
        <feBlend in="SourceGraphic" in2="bg"/>
    </filter>
    <mask id="aI" height="13.057" maskUnits="userSpaceOnUse" width="12.816" x="91.975" y="104.773">
        <g filter="url(#aH)" mask="url(#q)">
            <path
                d="m99.05 104.773-5.58 8.1a.857.857 0 0 0 .133 1.3c.775.534 3.624 2.109 3.624 2.109s1.17.348 1.7-.454 5.867-8.128 5.867-8.128l-5.785 9.277a2.061 2.061 0 0 1 -2.572.667 20.186 20.186 0 0 1 -3.685-2.056s-1.629-.749-.16-2.71 6.458-8.105 6.458-8.105z"
                fill="url(#r)"/>
        </g>
    </mask>
    <linearGradient id="aJ" x1="95.281" x2="101.732" xlink:href="#ah" y1="109.664" y2="113.409"/>
    <linearGradient id="aK" x1="99.712" x2="93.31" xlink:href="#A" y1="112.209" y2="109.038"/>
    <filter id="aL" color-interpolation-filters="sRGB" filterUnits="userSpaceOnUse" height="2.564" width="4.141"
            x="88.391" y="157.602">
        <feFlood flood-color="#fff" result="bg"/>
        <feBlend in="SourceGraphic" in2="bg"/>
    </filter>
    <mask id="aM" height="2.564" maskUnits="userSpaceOnUse" width="4.141" x="88.391" y="157.602">
        <g filter="url(#aL)" mask="url(#w)">
            <path
                d="m89.753 157.661c-.878-.183-1 .085-1.156.474s-.365.96-.013 1.216a15.769 15.769 0 0 0 3.674.815l.274-.806z"
                fill="url(#x)"/>
        </g>
    </mask>
    <linearGradient id="aN" x1="89.788" x2="90.572" xlink:href="#ae" y1="157.638" y2="159.468"/>
    <filter id="aO" color-interpolation-filters="sRGB" filterUnits="userSpaceOnUse" height="8.44" width="3.959"
            x="74.022" y="132.517">
        <feFlood flood-color="#fff" result="bg"/>
        <feBlend in="SourceGraphic" in2="bg"/>
    </filter>
    <mask id="aP" height="8.44" maskUnits="userSpaceOnUse" width="3.959" x="74.022" y="132.517">
        <g filter="url(#aO)" mask="url(#z)">
            <path
                d="m77.018 134.626a5 5 0 0 1 .116-1.759c-.032.056-.028-.135-.02-.35-.983 1.726-2.565 4.564-3.092 5.508a.636.636 0 0 1 .071.263 4.605 4.605 0 0 0 1.67 2.669 22.852 22.852 0 0 1 2.218-4.892 2.147 2.147 0 0 1 -.963-1.439z"
                fill="url(#A)"/>
        </g>
    </mask>
    <linearGradient id="aQ" x1="76.167" x2="75.823" xlink:href="#ah" y1="134.819" y2="139.451"/>
    <filter id="aR" color-interpolation-filters="sRGB" filterUnits="userSpaceOnUse" height="7.253" width="10.351"
            x="92.069" y="144.492">
        <feFlood flood-color="#fff" result="bg"/>
        <feBlend in="SourceGraphic" in2="bg"/>
    </filter>
    <mask id="aS" height="7.253" maskUnits="userSpaceOnUse" width="10.351" x="92.069" y="144.492">
        <g filter="url(#aR)" mask="url(#C)">
            <path
                d="m101.785 144.492a6.15 6.15 0 0 1 -2.428 1.847 5.069 5.069 0 0 1 -1.863.287 13.451 13.451 0 0 1 -2.506-.27 36.612 36.612 0 0 0 -2.919 4.474 15.023 15.023 0 0 0 4.444.915 5.169 5.169 0 0 0 .848-.064 4.644 4.644 0 0 0 2.962-2.142c.088-.123.165-.23.23-.307 1.208-1.429 1.871-2.567 1.867-3.206a2.422 2.422 0 0 0 -.635-1.534z"
                fill="url(#D)"/>
        </g>
    </mask>
    <linearGradient id="aT" x1="96.175" x2="98.832" xlink:href="#ah" y1="145.915" y2="151.608"/>
    <path d="m86.073 92.059-25.345 14.711.002 6.2 25.343-14.711z" fill="#404b4d"/>
    <path d="m46.587 98.129 14.141 8.641.002 6.2-14.143-8.641z" fill="#273234"/>
    <path
        d="m99 87.843c-.643-.764-3.949-1.815-3.949-1.815l-5.331 1.3-7.093 8.482 5.53 3.166.367-.212c.195-6.288 2.432-8.224 5.468-10.14a6.426 6.426 0 0 1 1.7-.781l1.486.831a3.08 3.08 0 0 1 1.374 2.558l.556.183.567-.061a4.61 4.61 0 0 0 -.675-3.511z"
        fill="#555e61"/>
    <path
        d="m43.064 119.777-1.929-1.077c-.562.308-1.149.635-1.736.92a10.425 10.425 0 0 0 -4.409 4.541 54.31 54.31 0 0 0 -1.982 5.341l.049.031 3.561 1.974a3.491 3.491 0 0 0 3.1-.453 10.472 10.472 0 0 0 4.739-8.206 3.32 3.32 0 0 0 -1.393-3.071z"
        fill="#3a3939"/>
    <path
        d="m44.462 122.848a10.472 10.472 0 0 1 -4.739 8.206c-2.616 1.511-4.739.286-4.739-2.735a10.476 10.476 0 0 1 4.739-8.206c2.616-1.513 4.739-.285 4.739 2.735z"
        fill="#575656"/>
    <path
        d="m44.209 123.337a9.507 9.507 0 0 1 -4.3 7.451c-2.375 1.371-4.3.26-4.3-2.484a9.51 9.51 0 0 1 4.3-7.449c2.373-1.373 4.3-.261 4.3 2.482z"
        fill="#3a3939"/>
    <path
        d="m42.859 124.212a6.307 6.307 0 0 1 -2.852 4.94c-1.576.909-2.852.172-2.852-1.647a6.3 6.3 0 0 1 2.852-4.939c1.576-.911 2.852-.173 2.852 1.646z"
        fill="url(#N)"/>
    <path
        d="m40.007 122.566a4.307 4.307 0 0 0 -.618.435c.071-.048.142-.095.213-.136 1.341-.772 2.427-.145 2.427 1.4a5.361 5.361 0 0 1 -2.427 4.2c-1.33.768-2.409.155-2.425-1.371-.013.137-.022.273-.022.407 0 1.819 1.276 2.556 2.852 1.647a6.307 6.307 0 0 0 2.852-4.94c0-1.815-1.276-2.553-2.852-1.642z"
        fill="url(#O)"/>
    <path
        d="m40.205 122.463c1.252-.458 2.2.258 2.2 1.781a5.945 5.945 0 0 1 -2.69 4.657c-.974.562-1.823.454-2.3-.166.454.864 1.44 1.078 2.586.417a6.307 6.307 0 0 0 2.852-4.94c.006-1.742-1.165-2.488-2.648-1.749z"
        fill="url(#P)"/>
    <path
        d="m41.66 125.131a3.356 3.356 0 0 1 -1.52 2.631c-.84.485-1.519.092-1.519-.877a3.357 3.357 0 0 1 1.519-2.632c.839-.485 1.52-.092 1.52.878z"
        fill="#dbdbda"/>
    <path
        d="m40.858 125.745a1.117 1.117 0 0 1 -.507.878c-.28.163-.508.032-.508-.293a1.126 1.126 0 0 1 .508-.878c.281-.162.507-.032.507.293z"
        fill="url(#Q)"/>
    <g fill="#343433">
        <path
            d="m39.939 125.4a.477.477 0 0 1 -.214.373c-.119.069-.213.012-.213-.125a.466.466 0 0 1 .213-.37c.118-.065.214-.01.214.122z"/>
        <path
            d="m41.035 124.753a.478.478 0 0 1 -.214.372c-.118.067-.214.012-.214-.126a.469.469 0 0 1 .214-.369c.119-.069.214-.014.214.123z"/>
        <path
            d="m41.4 125.782a.478.478 0 0 1 -.215.373c-.118.067-.213.013-.213-.124a.472.472 0 0 1 .213-.371c.115-.068.215-.013.215.122z"/>
        <path
            d="m40.527 127.036a.481.481 0 0 1 -.214.372c-.12.067-.214.012-.214-.125a.467.467 0 0 1 .214-.37c.117-.068.214-.013.214.123z"/>
        <path
            d="m39.652 126.79a.469.469 0 0 1 -.214.368c-.118.069-.214.014-.214-.122a.471.471 0 0 1 .214-.371c.118-.065.214-.014.214.125z"/>
        <path d="m40.232 123.415a.33.33 0 1 1 -.59.267.329.329 0 1 1 .59-.267z"/>
        <path d="m41.391 123.381c.017.217-.07.4-.2.408s-.24-.155-.257-.372.069-.4.194-.409.245.158.263.373z"/>
        <path d="m38.911 124.371a.367.367 0 1 1 -.526.1.379.379 0 0 1 .526-.1z"/>
        <path d="m38.029 126.009a.335.335 0 1 1 -.418.3.365.365 0 0 1 .418-.3z"/>
        <path d="m37.959 127.489c.209-.06.412.011.455.16s-.091.319-.3.378-.413-.011-.456-.161.093-.317.301-.377z"/>
        <path d="m38.951 128.324c.134-.113.278-.162.323-.111s-.029.187-.162.3-.277.163-.321.112.027-.186.16-.301z"/>
    </g>
    <path
        d="m44.812 118.092c-.616-1.006-2.043-.285-3.677.608l1.929 1.077a3.32 3.32 0 0 1 1.4 3.071v.126l1.161.4c.136-2.886-.016-3.984-.813-5.282z"
        fill="#212020"/>
    <path
        d="m97.176 88.674-1.486-.831a6.426 6.426 0 0 0 -1.7.781c-3.036 1.916-5.273 3.852-5.468 10.14l-.015.012-.352.2 2.574 1.428a3.5 3.5 0 0 0 3.1-.453 10.475 10.475 0 0 0 4.739-8.206 3.317 3.317 0 0 0 -1.392-3.071z"
        fill="#3a3939"/>
    <path
        d="m98.574 91.745a10.475 10.475 0 0 1 -4.739 8.206c-2.616 1.509-4.737.285-4.737-2.735a10.474 10.474 0 0 1 4.737-8.207c2.617-1.509 4.739-.285 4.739 2.736z"
        fill="#575656"/>
    <path
        d="m98.322 92.234a9.51 9.51 0 0 1 -4.3 7.451c-2.375 1.371-4.3.258-4.3-2.484a9.507 9.507 0 0 1 4.3-7.449c2.378-1.372 4.3-.261 4.3 2.482z"
        fill="#3a3939"/>
    <path
        d="m96.972 93.108a6.307 6.307 0 0 1 -2.852 4.94c-1.575.908-2.852.172-2.852-1.646a6.3 6.3 0 0 1 2.852-4.941c1.58-.907 2.852-.172 2.852 1.647z"
        fill="url(#R)"/>
    <path
        d="m94.12 91.461a4.268 4.268 0 0 0 -.618.437c.07-.048.14-.094.213-.137 1.34-.772 2.427-.145 2.427 1.4a5.361 5.361 0 0 1 -2.427 4.2c-1.331.768-2.411.155-2.425-1.37a4.01 4.01 0 0 0 -.022.407c0 1.818 1.277 2.554 2.852 1.646a6.307 6.307 0 0 0 2.852-4.94c0-1.815-1.272-2.55-2.852-1.643z"
        fill="url(#S)"/>
    <path
        d="m94.319 91.358c1.25-.457 2.2.26 2.2 1.783a5.94 5.94 0 0 1 -2.691 4.659c-.971.563-1.823.455-2.294-.166.453.864 1.439 1.079 2.586.417a6.307 6.307 0 0 0 2.852-4.94c0-1.745-1.172-2.491-2.653-1.753z"
        fill="url(#T)"/>
    <path
        d="m95.771 94.027a3.358 3.358 0 0 1 -1.519 2.631c-.839.485-1.52.093-1.52-.877a3.361 3.361 0 0 1 1.52-2.632c.839-.484 1.519-.092 1.519.878z"
        fill="#dbdbda"/>
    <path
        d="m94.971 94.64a1.121 1.121 0 0 1 -.507.88c-.28.163-.507.031-.507-.294a1.125 1.125 0 0 1 .507-.878c.281-.163.507-.031.507.292z"
        fill="url(#U)"/>
    <path
        d="m94.052 94.3a.469.469 0 0 1 -.215.371c-.117.068-.212.013-.212-.125a.473.473 0 0 1 .212-.369c.12-.068.215-.012.215.123z"
        fill="#343433"/>
    <path
        d="m95.149 93.649a.473.473 0 0 1 -.216.371c-.117.068-.214.013-.214-.124a.479.479 0 0 1 .214-.372c.118-.066.216-.011.216.125z"
        fill="#343433"/>
    <path
        d="m95.515 94.679a.48.48 0 0 1 -.216.373c-.118.067-.213.013-.213-.125a.472.472 0 0 1 .213-.371c.118-.068.216-.013.216.123z"
        fill="#343433"/>
    <path
        d="m94.639 95.933a.465.465 0 0 1 -.214.37c-.118.069-.214.014-.214-.124a.469.469 0 0 1 .214-.369c.119-.069.214-.01.214.123z"
        fill="#343433"/>
    <path
        d="m93.765 95.684a.479.479 0 0 1 -.215.373c-.118.066-.213.011-.213-.124a.477.477 0 0 1 .213-.373c.118-.067.215-.012.215.124z"
        fill="#343433"/>
    <path d="m94.345 92.312a.329.329 0 1 1 -.457-.225.361.361 0 0 1 .457.225z" fill="#343433"/>
    <path d="m95.5 92.278c.017.216-.07.4-.194.409s-.24-.158-.258-.372.069-.4.195-.41.242.155.257.373z" fill="#343433"/>
    <path d="m93.024 93.266a.367.367 0 1 1 -.527.1.381.381 0 0 1 .527-.1z" fill="#343433"/>
    <path d="m92.142 94.905a.335.335 0 1 1 -.417.3.364.364 0 0 1 .417-.3z" fill="#343433"/>
    <path d="m92.073 96.385a.35.35 0 0 1 .454.16c.043.15-.092.319-.3.379s-.412-.012-.455-.162.093-.317.301-.377z"
          fill="#343433"/>
    <path d="m93.066 97.223c.131-.115.276-.165.32-.114s-.028.187-.16.3-.279.163-.324.113.029-.187.164-.299z"
          fill="#343433"/>
    <path
        d="m93.992 88.624a6.426 6.426 0 0 1 1.7-.781l1.486.831a3.08 3.08 0 0 1 1.374 2.558l.556.183.567-.061a4.61 4.61 0 0 0 -.675-3.511 10.569 10.569 0 0 0 -3.227-1.571c-1.786.4-4.411 1.5-6.186 5.512a14.911 14.911 0 0 0 -1.428 7.192l.367-.212c.193-6.288 2.43-8.224 5.466-10.14z"
        fill="#838382"/>
    <path
        d="m99.034 89.279a2.547 2.547 0 0 0 -3.345-1.436l1.487.831a3.15 3.15 0 0 1 1.385 2.707l.518.078.01-.019a5.567 5.567 0 0 0 -.055-2.161z"
        fill="#212020"/>
    <path d="m86.596 99.01v-.73l-.86-.495-25.915 14.954v2.251l.673.41 25.918-14.956v-.592l-.151-.095v-.554z"
          fill="#8897a0"/>
    <path d="m60.68 113.964-.336-.162v.909l25.917-14.954v-.554z" fill="#8897a0" opacity=".2"/>
    <path d="m85.736 97.785-25.915 14.954.859.496 25.916-14.955z" fill="#fff" opacity=".5"/>
    <path d="m86.412 99.852-25.918 14.954-.15-.095 25.917-14.954z" fill="#fff" opacity=".2"/>
    <path d="m103.543 84.336 3.497 1.986.738-.426v-2.552l-1.283-.711z" fill="#8897a0"/>
    <path d="m103.543 84.336 3.497 1.986v-2.553l-1.27-.72z" fill="#8897a0" opacity=".5"/>
    <path d="m107.778 83.344-.738.425-1.27-.72.725-.416z" fill="#fff" opacity=".5"/>
    <path d="m115.885 44.861v32.358l-54.787 31.797-26.883-15.665v-32.876l54.788-30.76z" fill="#d7dbdd"/>
    <path d="m61.098 76.66-26.883-16.185v32.876l26.883 15.665z" opacity=".15"/>
    <path d="m115.885 44.861-54.787 31.799v32.356l54.787-31.797z" opacity=".1"/>
    <path d="m61.098 76.765-26.883-16.184v-.106l.091-.052 26.792 16.131 54.692-31.745.095.052v.105z" fill="#e4eaea"/>
    <path
        d="m26.014 79.267 7.831-4.521 1.063-.613 21.741 12.9a3.66 3.66 0 0 1 1.416 2.538c.037 6.869-.185 16.228-.327 23a16.556 16.556 0 0 1 -.483 4.132l-11.624 6.669-.014.006c.145-2.89-.008-3.988-.8-5.289-.829-1.353-3.121.415-5.413 1.528a10.425 10.425 0 0 0 -4.409 4.541 54.921 54.921 0 0 0 -1.995 5.371l-.089.043a12.2 12.2 0 0 1 -5.757.881c-3.444-.25-8.412-2.726-12.557-5.222s-6.6-4.263-7.559-6.667-.778-5.429-.527-7.694a10.066 10.066 0 0 1 1.97-4.948s2.818-5.062 3.688-6.551 10.642-16.846 10.642-16.846.374-.534.957-1.361a9.969 9.969 0 0 1 2.246-1.897z"
        fill="url(#V)"/>
    <path
        d="m29.809 118.1a16.486 16.486 0 0 0 1.884-.6l.2-.708a6.457 6.457 0 0 0 1.148.057 3.282 3.282 0 0 0 .571-.433c-.2-.441-1.405-1.3-4.818-2.92a92.394 92.394 0 0 1 -16.174-9.779 6.326 6.326 0 0 1 -1.772-2.032c-1.1 1.951-2.371 4.238-2.371 4.238a10.066 10.066 0 0 0 -1.97 4.948 26.99 26.99 0 0 0 -.192 3.774 96.154 96.154 0 0 0 11.225 7.955c6.8 4.116 10.049 3.113 11.5 1.893.298-3.379.769-6.393.769-6.393z"
        opacity=".03"/>
    <path
        d="m49.236 92.237 8.009-4.624a3.527 3.527 0 0 1 .82 1.962c.037 6.869-.185 16.228-.327 23a16.556 16.556 0 0 1 -.483 4.132l-11.624 6.669-.014.006c.145-2.89-.008-3.988-.8-5.289-.829-1.353-3.121.415-5.413 1.528a10.425 10.425 0 0 0 -4.409 4.541 54.921 54.921 0 0 0 -1.995 5.367l-.089.043a11.442 11.442 0 0 1 -4.08.9c-.242-4.574.979-12.375.979-12.375s3.2-.769 4.009-1.915 3.835-5.524 3.835-5.524l7.746-13.569s.19-.413 1.218-2.288a8.722 8.722 0 0 1 2.618-2.564z"
        opacity=".1"/>
    <g mask="url(#X)">
        <path
            d="m45 114.506-1.5-.288-8.427 4.413.534.619s4.152-2.241 6.055-3.233 4.175-1.635 5.013.731a16.7 16.7 0 0 1 .8 3.444c-.053-.869-.416-5.135-2.475-5.686z"
            fill="url(#Y)" opacity=".5"/>
    </g>
    <g mask="url(#aa)">
        <path d="m47.482 120.267-.009-.075c.006.1.009.157.009.157z" fill="url(#ab)" opacity=".5"/>
    </g>
    <path
        d="m54.114 93.173s-.02 0-.044.018a2.055 2.055 0 0 1 .041.567c-.06 1.364-.238 7-1.109 8.841-1.338 2.834-5.195 5.746-10.508 8.092l-2.61 1.325a.973.973 0 0 1 -.255.034c-.279 0-.668-.131-.543-.895-.177.642-.4 1.714-.026 2.089.547.551 2.58-.78 4.438-1.836s8.639-4.138 10.012-7.913.715-10.144.604-10.322z"
        fill="#5099da" opacity=".3"/>
    <path d="m57.819 106.26-7.744 4.47s-3.16 1.68-6.576 3.487l1.5.288 12.823-7.374z" fill="#5099da" opacity=".2"/>
    <path
        d="m57.819 105.538-7.744 4.446s-13.537 7.192-14.865 7.832a10.512 10.512 0 0 1 -6.551 1.215c-3-.481-7.627-2.817-11.109-4.925a44.284 44.284 0 0 1 -8.106-5.957 5.506 5.506 0 0 1 -1.144-2.015q-.072.093-.15.207a5.736 5.736 0 0 0 1.294 2.559 44.2 44.2 0 0 0 8.106 5.956c3.482 2.108 8.109 4.445 11.109 4.925a10.506 10.506 0 0 0 6.551-1.214c1.328-.64 14.865-7.834 14.865-7.834l7.744-4.47z"
        opacity=".1"/>
    <path
        d="m53.58 92.716a.614.614 0 0 0 -.228.045s-3.131 1.679-4.606 2.618a10.851 10.851 0 0 0 -2.628 2.629s-6.365 10.992-6.918 12.683c-.385 1.181.1 1.359.426 1.359a.973.973 0 0 0 .255-.034l2.61-1.325c5.313-2.346 9.17-5.258 10.508-8.092.871-1.845 1.049-7.477 1.109-8.841.042-.887-.291-1.042-.528-1.042z"
        fill="#141c1e"/>
    <path
        d="m47.528 97.016a11.791 11.791 0 0 0 -1.023 1.237c-.953 1.647-2.292 3.991-3.539 6.221v5.5a35.8 35.8 0 0 0 4.2-2.267z"
        fill="#303e42"/>
    <path
        d="m53.579 93.173a.2.2 0 0 0 -.039.006c-.32.172-3.179 1.714-4.547 2.587a6.674 6.674 0 0 0 -.9.693l-.37 10.882a13.644 13.644 0 0 0 4.861-4.937c.776-1.645.985-6.694 1.052-8.354l.014-.313a1 1 0 0 0 -.071-.564z"
        fill="#303e42"/>
    <path
        d="m43.849 95.614c-1.071-.52-9.186-5.05-12.053-6.94s-8.181-5.214-8.181-5.214a.9.9 0 0 0 -.529-.184c-.278 0-.628.148-.958.7-.7 1.186-7.975 12.732-7.975 12.732a8.444 8.444 0 0 0 2.884 3.924 73.912 73.912 0 0 0 13.247 8.237 13.158 13.158 0 0 0 5.327 1.435 3.259 3.259 0 0 0 1.17-.158l7.756-13.232s.383-.78-.688-1.3z"
        fill="#141c1e"/>
    <path
        d="m43.649 96.027c-1.133-.551-9.248-5.087-12.107-6.97-2.83-1.866-8.116-5.176-8.169-5.209l-.035-.022-.016-.015a.462.462 0 0 0 -.236-.077c-.23 0-.432.261-.563.481-.653 1.11-6.462 10.435-7.427 11.967a10.654 10.654 0 0 0 2.945 3.233 72.037 72.037 0 0 0 12.959 7.926 14.513 14.513 0 0 0 5.088 1.637 3.549 3.549 0 0 0 1.006-.228l7.03-12.035c.05-.128.076-.415-.475-.688z"
        fill="#303e42"/>
    <path
        d="m30.284 108.874a73.912 73.912 0 0 1 -13.247-8.237 8.444 8.444 0 0 1 -2.884-3.924s-1.033 2.151 0 3.658 6.192 4.922 8.254 6.221 8.566 4.551 10.123 4.78 3.971-.743 4.251-1.221c0 0-1.918.819-6.497-1.277z"
        fill="#4d585a"/>
    <g fill="#c5d0d3" opacity=".7">
        <path
            d="m23.66 84.028c-.178-.11-.281-.176-.287-.18l-.035-.022-.016-.015a.462.462 0 0 0 -.236-.077c-.23 0-.432.261-.563.481-.318.542-1.864 3.037-3.475 5.631l-.2 4.462s-.109.488 2.82-1.358z"/>
        <path d="m24.213 84.375-1.8 8.1.08-.052a14.928 14.928 0 0 0 5.022-5.96c-1.304-.83-2.526-1.6-3.302-2.088z"/>
    </g>
    <path
        d="m18.041 99.415a72.037 72.037 0 0 0 12.959 7.926 14.513 14.513 0 0 0 5.088 1.637 3.549 3.549 0 0 0 1.006-.228l1.849-3.164a70.958 70.958 0 0 0 -10.159-7.157 109.292 109.292 0 0 0 -9.917-4.948l-3.774 2.7a10.654 10.654 0 0 0 2.948 3.234z"
        fill="#39464a"/>
    <path
        d="m40.376 103.136a5.052 5.052 0 0 0 -2.695-2.547 2.839 2.839 0 0 0 -3.224.545 29.109 29.109 0 0 0 -2.465 3.3c-.775 1.14 3.389 2.95 4.638 2.684a6.438 6.438 0 0 0 1.944-.893z"
        fill="#3d4b4f"/>
    <path
        d="m31.542 89.057c-2.83-1.866-8.116-5.176-8.169-5.209l-.035-.022-.016-.015a.462.462 0 0 0 -.236-.077c-.23 0-.432.261-.563.481-.653 1.11-6.462 10.435-7.427 11.967a9.152 9.152 0 0 0 2.3 2.689 32.3 32.3 0 0 1 15.507-8.955c-.522-.316-.986-.616-1.361-.859z"
        fill="#fff" opacity=".2"/>
    <path
        d="m36.645 99.351a1.77 1.77 0 0 0 -1.576.783 2.6 2.6 0 0 0 .114 2.5 5.561 5.561 0 0 0 3.759 2.958l.353-.6a4.789 4.789 0 0 1 -3.538-2.635 2.023 2.023 0 0 1 -.145-1.881 1.139 1.139 0 0 1 1.033-.483 4.727 4.727 0 0 1 3.656 2.645 3.5 3.5 0 0 1 .152.368l.4-.686a5.325 5.325 0 0 0 -4.208-2.969z"
        fill="#3d4b4f"/>
    <path
        d="m35.071 118.631a10.365 10.365 0 0 1 -6.412 1.147c-3-.48-7.627-2.817-11.109-4.925a44.2 44.2 0 0 1 -8.106-5.953 5.729 5.729 0 0 1 -1.293-2.555 10.8 10.8 0 0 0 -1.641 4.525c-.251 2.265-.435 5.289.527 7.694s3.413 4.169 7.559 6.667 9.113 4.972 12.557 5.222a12.2 12.2 0 0 0 5.757-.881l.089-.043a54.921 54.921 0 0 1 1.991-5.368 11.928 11.928 0 0 1 2.11-2.881l-1-1.759-.154-.273z"
        fill="#404b4d"/>
    <path
        d="m35.947 119.248-.876-.617a10.365 10.365 0 0 1 -6.412 1.147c-3-.48-7.627-2.817-11.109-4.925a44.2 44.2 0 0 1 -8.106-5.953 5.729 5.729 0 0 1 -1.293-2.555 10.093 10.093 0 0 0 -1.03 2.049 6.074 6.074 0 0 0 3.126 4.767s2.547 1.723 5.254 3.363c2.342 1.419 4.805 2.741 5.837 3.249a15.276 15.276 0 0 0 7.039 1.95c3.164.26 6.726-1.644 7.714-2.215z"
        fill="#5a6567"/>
    <path
        d="m17.55 114.853a54.664 54.664 0 0 1 -7.209-5.088 6.558 6.558 0 0 0 -1.632 2.1 33.392 33.392 0 0 0 -.367 4.856 52.38 52.38 0 0 0 5.908 4.028 56.818 56.818 0 0 0 7.723 4.1l1.76-3.978 1.945-1.933a52.254 52.254 0 0 1 -8.128-4.085z"
        fill="#c5ccd0"/>
    <path
        d="m21.292 120.167c-1.032-.507-3.494-1.829-5.837-3.25-2.707-1.639-5.254-3.362-5.254-3.362-.741-.439-.737.682-.737.682l-.07 2.921c1.086.8 2.622 1.773 5.065 3.363a59.663 59.663 0 0 0 6.251 3.41l.949-2.442a.941.941 0 0 0 -.367-1.322z"
        fill="#4d585a"/>
    <path
        d="m20.857 123.55.8-2.061a.941.941 0 0 0 -.367-1.322c-1.032-.507-3.494-1.829-5.837-3.25-2.707-1.639-5.254-3.362-5.254-3.362a1.107 1.107 0 0 0 -.119-.06 1.519 1.519 0 0 0 -.105.537l-.07 2.921c1.085.8 2.622 1.774 5.065 3.364a58.507 58.507 0 0 0 5.887 3.233z"
        fill="#1b2628"/>
    <path d="m10.323 117.253c.085.06.172.122.263.185l.258-3.453-.263-.174z" fill="#333e40"/>
    <path d="m11.6 118.124.26.172.326-3.429c-.09-.057-.176-.114-.26-.168z" fill="#333e40"/>
    <path d="m13.207 119.171c.084.054.17.109.255.166l.448-3.372-.256-.161z" fill="#333e40"/>
    <path d="m14.92 120.282.052.035c.065.04.131.084.2.125l.658-3.3-.25-.149z" fill="#333e40"/>
    <path d="m19.807 123.031.249.124 1.044-3.084-.248-.125z" fill="#333e40"/>
    <path d="m18.317 122.259c.083.045.165.089.248.132l.971-3.139c-.08-.045-.162-.089-.246-.135z" fill="#333e40"/>
    <path d="m16.643 121.333.246.143.825-3.235c-.083-.046-.165-.095-.249-.142z" fill="#333e40"/>
    <path d="m48.746 117.327.133 1.638a.436.436 0 0 0 .6.42l7-3.884.68-2.915z" fill="#5a6567"/>
    <path
        d="m10.341 109.765a6.558 6.558 0 0 0 -1.632 2.1c-.007.023-.014.048-.021.073a6.421 6.421 0 0 0 1.559 1.224s2.547 1.723 5.254 3.363c2.342 1.419 4.805 2.741 5.837 3.249a23.518 23.518 0 0 0 2.4 1.085l1.937-1.924a52.254 52.254 0 0 1 -8.128-4.078 54.664 54.664 0 0 1 -7.206-5.092z"
        fill="#dfe6ea"/>
    <path
        d="m21.088 122.958a60.31 60.31 0 0 1 -6.01-3.316q-.766-.5-1.427-.927c-1.681-1.089-2.834-1.835-3.727-2.481l-.008.333c.877.623 1.995 1.349 3.585 2.379l1.428.926a60.254 60.254 0 0 0 6.059 3.343z"
        fill="#404b4d"/>
    <path
        d="m9.933 115.838c.884.631 2.013 1.363 3.633 2.412q.66.427 1.427.927a61.612 61.612 0 0 0 6.233 3.426l.1-.257a60.647 60.647 0 0 1 -6.183-3.4l-1.428-.927c-1.71-1.108-2.874-1.863-3.773-2.514z"
        fill="#404b4d"/>
    <path
        d="m9.952 115.075c.884.63 2.015 1.365 3.64 2.417.44.287.915.593 1.427.927a62.475 62.475 0 0 0 6.459 3.537l.1-.259a62.065 62.065 0 0 1 -6.409-3.508c-.512-.334-.986-.642-1.427-.928-1.716-1.11-2.881-1.866-3.781-2.52z"
        fill="#404b4d"/>
    <path
        d="m13.678 116.7 1.428.927a66.572 66.572 0 0 0 6.642 3.636 1.265 1.265 0 0 0 .047-.283 66.1 66.1 0 0 1 -6.539-3.584l-1.429-.926c-1.755-1.139-2.934-1.9-3.842-2.565-.007.076-.008.128-.008.128l-.005.2c.894.644 2.041 1.387 3.706 2.467z"
        fill="#404b4d"/>
    <g mask="url(#ad)">
        <path
            d="m23.768 124.513c-.846-.176-.963.082-1.114.457s-.354.927-.013 1.174a15.244 15.244 0 0 0 3.546.789l.265-.779z"
            fill="url(#ae)"/>
    </g>
    <path
        d="m26.376 126.777a23.724 23.724 0 0 0 4.24-.29 1.9 1.9 0 0 0 1.408-.858s-.082.681-1.151.928a17.027 17.027 0 0 1 -4.686.376 15.244 15.244 0 0 1 -3.546-.789 26.676 26.676 0 0 0 3.735.633z"
        fill="#4d585a"/>
    <path
        d="m26.242 128.454 3.2-.091s.619.04.386.478a1.832 1.832 0 0 1 -.786.941 10.422 10.422 0 0 1 -3.247.077 27.355 27.355 0 0 1 -6.224-2.243l.025-.463a33.534 33.534 0 0 0 5.773 2.1s.177-.825.873-.799z"
        fill="#4d585a"/>
    <path
        d="m26.83 129.166a7.469 7.469 0 0 0 1.314-.765l-1.9.053c-.7-.026-.877.8-.877.8a33.534 33.534 0 0 1 -5.773-2.1l-.025.463a30.649 30.649 0 0 0 5.884 2.194c.328-.168.885-.444 1.377-.645z"
        fill="#333e40"/>
    <path d="m29.811 128.505a.687.687 0 0 0 -.373-.142l-1.29.038a.878.878 0 0 0 .837.886.866.866 0 0 0 .826-.782z"
          fill="#f0eff0"/>
    <path
        d="m26.693 125.042a22.053 22.053 0 0 1 -2.925-.529l-.024-.005c-.044.225-.106.64.032.739.194.138 2.658.924 2.658.924z"
        fill="#333e40"/>
    <path
        d="m17.829 124.073-6.281-3.785a.3.3 0 0 0 -.149-.044.222.222 0 0 0 -.219.244l-.031 1.224a.586.586 0 0 0 .26.474l6.251 3.726a.279.279 0 0 0 .149.046.23.23 0 0 0 .223-.247l.052-1.162a.572.572 0 0 0 -.255-.476z"
        opacity=".2"/>
    <path
        d="m17.734 124.23-6.281-3.785a.093.093 0 0 0 -.054-.019c-.031 0-.035.048-.035.068l-.032 1.222a.406.406 0 0 0 .171.313l6.25 3.727a.133.133 0 0 0 .056.019c.033 0 .039-.045.041-.07l.051-1.164a.39.39 0 0 0 -.167-.311z"
        fill="#fff"/>
    <path
        d="m9.306 117.985v-.5c1.071.8 2.57 1.773 4.944 3.262a61.745 61.745 0 0 0 6.35 3.481v.52c-.025.471-.5.224-.5.224a62.957 62.957 0 0 1 -5.849-3.242c-2.119-1.327-3.542-2.249-4.584-3a.911.911 0 0 1 -.361-.745z"
        fill="#4d585a"/>
    <path
        d="m9.8 117.842v.007a.911.911 0 0 0 .36.745c1.042.749 2.465 1.67 4.585 3a62.156 62.156 0 0 0 5.842 3.24.621.621 0 0 0 .012-.085v-.52a61.745 61.745 0 0 1 -6.35-3.481c-2.03-1.276-3.419-2.174-4.449-2.906z"
        fill="#1b2628"/>
    <path d="m11.508 119.52c.088.058.179.117.271.179v-.525c-.092-.059-.183-.118-.271-.178z" fill="#404b4d"/>
    <path d="m10.257 118.663c.088.063.179.125.273.192v-.508c-.093-.063-.185-.125-.273-.187z" fill="#404b4d"/>
    <path d="m13.042 120.517c.089.055.179.114.272.172v-.534l-.272-.172z" fill="#404b4d"/>
    <path d="m14.749 121.594c.092.058.182.113.273.168v-.544l-.273-.164z" fill="#404b4d"/>
    <path d="m16.408 122.6c.091.053.181.107.272.159v-.566l-.272-.155z" fill="#404b4d"/>
    <path d="m18.14 123.572c.092.051.183.1.273.148v-.586q-.135-.069-.273-.144z" fill="#404b4d"/>
    <path d="m19.551 124.316c.092.048.183.092.272.137v-.6c-.088-.043-.18-.088-.272-.135z" fill="#404b4d"/>
    <path d="m29.59 128.391a1 1 0 0 0 -.152-.028l-1.09.033a.621.621 0 0 0 1.242 0z" fill="#fff"/>
    <path
        d="m15.836 119.243a.7.7 0 0 1 -1.053.451 1.251 1.251 0 0 1 -.449-1.392.694.694 0 0 1 1.053-.45 1.248 1.248 0 0 1 .449 1.391z"
        fill="#4d585a"/>
    <path
        d="m15.723 119.182a.6.6 0 0 1 -.91.387 1.076 1.076 0 0 1 -.388-1.2.6.6 0 0 1 .909-.389 1.083 1.083 0 0 1 .389 1.202z"
        fill="#d2d5d7"/>
    <path
        d="m7.72 116.854.08-1.414a.66.66 0 0 0 -.224-.4 9.947 9.947 0 0 1 -1.219-2.44 20.471 20.471 0 0 0 0 2.714l1.073 1.646s.303.397.29-.106z"
        fill="#333e40"/>
    <path
        d="m43.768 109.713a4.99 4.99 0 0 1 .25-2.2 1.49 1.49 0 0 1 1.676-.669c.789.114 2.37.583 2.467 1.417s.1 3.436.1 3.436a1.154 1.154 0 0 1 -.77.964 11.014 11.014 0 0 1 -2.756.309s-.99-.067-.986-.986.019-2.271.019-2.271z"
        fill="#404b4d"/>
    <path
        d="m45.694 106.844a1.49 1.49 0 0 0 -1.676.669 1.417 1.417 0 0 0 -.169.439c.783.263 1.872.619 2.308.7a2.153 2.153 0 0 0 1.9-.69 3.733 3.733 0 0 0 -2.363-1.118z"
        fill="#5a6567"/>
    <path
        d="m42 106.592a7.17 7.17 0 0 0 1.6 2.088 12.3 12.3 0 0 0 2.525.61v3.217h-1.548a1.929 1.929 0 0 1 -1.6-.708c-.251-.372-.983-1.545-.983-1.545l-.1-.907a9.555 9.555 0 0 0 1.585 2.253 5.5 5.5 0 0 0 2.253.367v-2.177s-1.54-.226-2.119-.4-1.6-1.789-1.6-1.789z"
        fill="#333e40"/>
    <path
        d="m43.937 107.674a12.039 12.039 0 0 1 -1.059-1.332l-.883.25a7.17 7.17 0 0 0 1.6 2.088 1.74 1.74 0 0 0 .16.07 3.367 3.367 0 0 1 .182-1.076z"
        fill="#5a6567"/>
    <path
        d="m48.205 108.874a3 3 0 0 1 -1.19.85l.033 2.009a5.549 5.549 0 0 0 1.207-.457c-.003-.582-.014-1.645-.05-2.402z"
        fill="#c5ccd0"/>
    <path
        d="m43.747 111.731c0-.9.021-2.018.021-2.018s-.009-.109-.015-.278l-.008-.007c-.047-.012-.092-.024-.132-.036a1.317 1.317 0 0 1 -.458-.32l-1.261.275a9.555 9.555 0 0 0 1.585 2.253 1.179 1.179 0 0 0 .266.133z"
        fill="#4d585a"/>
    <path
        d="m15.28 94.4v-4.867a5.383 5.383 0 0 0 -.309-1.442c-.2-.306-.6-.383-1.228 0a2.3 2.3 0 0 0 -1.182 2.287 21.534 21.534 0 0 0 .154 2.7 5.992 5.992 0 0 0 .737 1.5 4.709 4.709 0 0 0 1.581.2z"
        fill="#404b4d"/>
    <path
        d="m15.033 94.786.247-.389v-4.864s-.011-.106-.031-.262c-.482.061-1.259.35-1.329.97-.084.748-.173 3.312-.126 4.461a7.947 7.947 0 0 0 1.239.084z"
        fill="#333e40"/>
    <path
        d="m13.92 90.241c.07-.62.847-.909 1.329-.97a3.929 3.929 0 0 0 -.278-1.18c-.2-.306-.6-.383-1.228 0a2.179 2.179 0 0 0 -.949 1.006 7.051 7.051 0 0 0 1.111 1.293c.005-.055.01-.106.015-.149z"
        fill="#5a6567"/>
    <path
        d="m13.672 94.352a3.965 3.965 0 0 0 1.4.378l.441-.7a3.457 3.457 0 0 1 -1.729-.513l.059-2.011 2.869.628c.109-.174.219-.347.329-.521l-3.257-.764-.986-1.18a9.811 9.811 0 0 0 0 3.22 11.106 11.106 0 0 0 .874 1.463z"
        fill="#404b4d"/>
    <path d="m15.28 90.631-1.41.242 3.167.743.317-.499z" fill="#5a6567"/>
    <path d="m15.28 93.481-1.5.039s.269.349 1.729.513l.174-.275z" fill="#5a6567"/>
    <path
        d="m53.936 107.667s-.644.32-.679-.334-.107-1.322-.107-1.632.011-.882.321-1.086.918-.571.918-.571.38-.3.475.477a11.032 11.032 0 0 1 -.083 2.347c-.047.287-.404.537-.845.799z"
        fill="#5a6567"/>
    <path
        d="m54.4 107.123s-.564.313-.666.358-.284-.053-.316-.631a6.449 6.449 0 0 1 0-1.744 2.516 2.516 0 0 1 .87-.612c.192-.077.424-.175.431.355s-.045 1.48-.045 1.7a.669.669 0 0 1 -.274.574z"
        fill="#4e595b"/>
    <path
        d="m54.715 104.849c-.007-.53-.239-.432-.431-.355a2.516 2.516 0 0 0 -.87.612.3.3 0 0 0 -.026.066 3.38 3.38 0 0 1 .693-.424c.192-.076.424-.173.43.355s-.045 1.481-.045 1.7a.843.843 0 0 1 -.062.316.671.671 0 0 0 .266-.57c0-.22.051-1.173.045-1.7z"
        fill="#414c4e"/>
    <path d="m54.111 107.28s0-1.293-.028-1.866a1.441 1.441 0 0 0 -.183-.779l-.116.141a2.677 2.677 0 0 1 .162.647v1.786z"
          fill="#414c4e"/>
    <path
        d="m54.111 107.28s0-1.293-.028-1.866a1.441 1.441 0 0 0 -.183-.779l.282-.156a4.08 4.08 0 0 1 .221.747l-.007 1.9z"
        fill="#5a6567"/>
    <g opacity=".2">
        <path d="m22.286 107.825-.934.971.066.065.932-.974z"/>
        <path d="m20.888 107.023-.935.974.067.064.933-.974z"/>
        <path d="m19.425 107.286h1.349v.092h-1.349z"
              transform="matrix(.69293637 -.72099874 .72099874 .69293637 -71.214 47.449)"/>
        <path d="m20.214 106.621-.934.972.066.063.934-.972z"/>
        <path d="m19.885 106.417-.933.974.067.064.933-.973z"/>
        <path d="m19.599 106.199-.932.974.066.063.932-.974z"/>
        <path d="m19.28 105.967-.933.972.066.065.933-.972z"/>
        <path d="m18.952 105.762-.933.974.065.063.935-.972z"/>
        <path d="m17.485 106.011h1.349v.091h-1.349z"
              transform="matrix(.69162652 -.72225533 .72225533 .69162652 -70.999 45.82)"/>
        <path d="m18.281 105.338-.933.971.065.065.934-.974z"/>
        <path d="m17.973 105.106-.933.972.066.064.933-.974z"/>
        <path d="m17.613 104.884-.934.973.066.064.933-.973z"/>
        <path d="m17.296 104.689-.933.972.065.064.934-.974z"/>
        <path d="m17.04 104.427-.934.973.067.065.933-.974z"/>
        <path d="m16.679 104.202-.934.973.066.064.934-.974z"/>
        <path d="m15.255 104.414h1.348v.091h-1.348z"
              transform="matrix(.69177777 -.72211046 .72211046 .69177777 -70.521 43.699)"/>
        <path d="m22.627 108.048-.934.971.066.063.933-.972z"/>
        <path d="m22.944 108.233-.933.973.066.064.933-.974z"/>
        <path d="m23.334 108.429-.934.972.067.063.933-.972z"/>
        <path d="m23.646 108.601-.934.973.066.063.935-.973z"/>
        <path d="m22.913 109.27h1.348v.091h-1.348z"
              transform="matrix(.69175256 -.72213461 .72213461 .69175256 -71.669 50.729)"/>
        <path d="m24.384 109.019-.934.973.066.064.934-.974z"/>
        <path d="m24.757 109.206-.934.973.066.062.933-.971z"/>
        <path d="m24.029 109.874h1.348v.091h-1.348z"
              transform="matrix(.69199199 -.72190517 .72190517 .69199199 -71.742 51.689)"/>
        <path d="m25.488 109.574-.934.973.067.064.934-.974z"/>
        <path d="m25.849 109.733-.934.972.067.064.934-.973z"/>
        <path d="m26.183 109.947-.933.972.067.064.933-.974z"/>
        <path d="m26.578 110.139-.934.973.067.063.933-.974z"/>
        <path d="m26.94 110.312-.934.972.066.064.933-.974z"/>
        <path d="m27.285 110.489-.933.971.066.065.934-.974z"/>
    </g>
    <path
        d="m54.033 116.848-.172-.059a55.828 55.828 0 0 0 1.817-12.73c.091-5.065-.506-12.453-.513-12.528l.184-.015c.005.074.6 7.47.513 12.546a54.863 54.863 0 0 1 -1.829 12.786z"
        opacity=".1"/>
    <path d="m57.513 115.542-9.831 5.638.09.158 9.7-5.56c.012-.078.028-.158.041-.236z" opacity=".1"/>
    <path
        d="m12.569 103.546a1.914 1.914 0 0 1 -.916-1.307 6.386 6.386 0 0 1 .24-2.217l.14-.607-.308.54c-1 1.753-2.885 5.131-3.253 5.792l-.016.029.006.032a4.558 4.558 0 0 0 1.811 2.812l.116.075.025-.136a21.945 21.945 0 0 1 2.193-4.884l.048-.084z"
        fill="#87969f"/>
    <path
        d="m11.472 102.272a4.9 4.9 0 0 1 .112-1.7c-.031.054-.026-.13-.018-.338-.949 1.666-2.477 4.406-2.985 5.318a.611.611 0 0 1 .068.254 4.45 4.45 0 0 0 1.612 2.577 22.152 22.152 0 0 1 2.141-4.722 2.1 2.1 0 0 1 -.93-1.389z"
        fill="#e3e3e4"/>
    <path
        d="m35.441 111.588-.077-.071-.061.086a5.8 5.8 0 0 1 -2.329 1.809 4.731 4.731 0 0 1 -1.73.265 12.57 12.57 0 0 1 -2.438-.271l-.057-.012-.035.046a35.4 35.4 0 0 0 -2.918 4.485l-.046.09.095.037a14.963 14.963 0 0 0 4.451.932 5.547 5.547 0 0 0 .848-.063 4.629 4.629 0 0 0 2.977-2.143c.086-.116.157-.216.216-.285.845-1 1.852-2.368 1.845-3.216a2.516 2.516 0 0 0 -.741-1.689z"
        fill="#87969f"/>
    <path
        d="m35.387 111.8a5.95 5.95 0 0 1 -2.343 1.782 4.908 4.908 0 0 1 -1.8.278 12.9 12.9 0 0 1 -2.421-.262 35.543 35.543 0 0 0 -2.817 4.319 14.446 14.446 0 0 0 4.29.885 5.151 5.151 0 0 0 .818-.061 4.48 4.48 0 0 0 2.86-2.069c.085-.12.16-.223.223-.3 1.168-1.372 1.803-2.472 1.803-3.094a2.323 2.323 0 0 0 -.613-1.478z"
        fill="#e3e3e4"/>
    <path
        d="m35.246 114.222c0 .355-.249.5-.554.321a1.223 1.223 0 0 1 -.554-.96c0-.354.248-.5.554-.32a1.229 1.229 0 0 1 .554.959z"
        fill="#f09041"/>
    <path
        d="m33.818 116.181c0 .691-.487.971-1.086.625a2.4 2.4 0 0 1 -1.087-1.881c0-.692.487-.972 1.087-.625a2.4 2.4 0 0 1 1.086 1.881z"
        fill="#fff"/>
    <path
        d="m31.276 117.248c0 .936-.657 1.316-1.467.848a3.246 3.246 0 0 1 -1.467-2.541c0-.936.657-1.316 1.467-.848a3.244 3.244 0 0 1 1.467 2.541z"
        fill="#fff"/>
    <path
        d="m11.507 105.31a2.834 2.834 0 0 0 -.7-1.146c-.517-.452-.937-.084-.937.818a3.921 3.921 0 0 0 .75 2.255c.255-.637.58-1.327.887-1.927z"
        fill="#fff"/>
    <path
        d="m11.743 103.177a1.96 1.96 0 0 0 -.459-.679c-.411-.359-.743-.069-.744.648a2.947 2.947 0 0 0 .08.656c.318-.177.756-.419 1.123-.625z"
        fill="#fff"/>
    <g mask="url(#ag)">
        <path
            d="m11.472 102.272a4.9 4.9 0 0 1 .112-1.7c-.031.054-.026-.13-.018-.338-.949 1.666-2.477 4.406-2.985 5.318a.611.611 0 0 1 .068.254 4.45 4.45 0 0 0 1.612 2.577 22.152 22.152 0 0 1 2.141-4.722 2.1 2.1 0 0 1 -.93-1.389z"
            fill="url(#ah)"/>
    </g>
    <g mask="url(#aj)">
        <path
            d="m35.387 111.8a5.95 5.95 0 0 1 -2.343 1.782 4.908 4.908 0 0 1 -1.8.278 12.9 12.9 0 0 1 -2.421-.262 35.543 35.543 0 0 0 -2.817 4.319 14.446 14.446 0 0 0 4.29.885 5.151 5.151 0 0 0 .818-.061 4.48 4.48 0 0 0 2.86-2.069c.085-.12.16-.223.223-.3 1.168-1.372 1.803-2.472 1.803-3.094a2.323 2.323 0 0 0 -.613-1.478z"
            fill="url(#ak)"/>
    </g>
    <path
        d="m109.735 152.755-2-1.115c-.583.319-1.19.658-1.8.954a10.8 10.8 0 0 0 -4.566 4.7 56.318 56.318 0 0 0 -2.053 5.532.554.554 0 0 0 .051.033l3.687 2.045a3.629 3.629 0 0 0 3.216-.47 10.846 10.846 0 0 0 4.907-8.5 3.442 3.442 0 0 0 -1.442-3.179z"
        fill="#3a3939"/>
    <path
        d="m111.182 155.937a10.846 10.846 0 0 1 -4.907 8.5c-2.71 1.565-4.907.3-4.907-2.833a10.849 10.849 0 0 1 4.907-8.5c2.709-1.565 4.907-.298 4.907 2.833z"
        fill="#575656"/>
    <path
        d="m110.922 156.444a9.845 9.845 0 0 1 -4.456 7.716c-2.46 1.421-4.454.269-4.454-2.572a9.841 9.841 0 0 1 4.454-7.716c2.46-1.421 4.456-.272 4.456 2.572z"
        fill="#3a3939"/>
    <path
        d="m109.523 157.348a6.536 6.536 0 0 1 -2.953 5.118c-1.63.942-2.953.176-2.953-1.706a6.528 6.528 0 0 1 2.953-5.117c1.63-.943 2.953-.178 2.953 1.705z"
        fill="url(#al)"/>
    <path
        d="m106.57 155.643a4.631 4.631 0 0 0 -.64.452c.073-.049.145-.1.22-.141 1.388-.8 2.513-.151 2.513 1.452a5.557 5.557 0 0 1 -2.513 4.353c-1.378.8-2.5.158-2.512-1.42-.013.141-.021.282-.021.421 0 1.882 1.323 2.648 2.953 1.706a6.536 6.536 0 0 0 2.953-5.118c0-1.883-1.323-2.648-2.953-1.705z"
        fill="url(#am)"/>
    <path
        d="m106.776 155.536c1.3-.472 2.278.269 2.278 1.845a6.158 6.158 0 0 1 -2.785 4.825c-1.009.582-1.888.469-2.377-.173.469.9 1.49 1.118 2.678.433a6.536 6.536 0 0 0 2.953-5.118c0-1.803-1.213-2.575-2.747-1.812z"
        fill="url(#an)"/>
    <path
        d="m108.28 158.3a3.481 3.481 0 0 1 -1.573 2.725c-.87.5-1.574.095-1.574-.909a3.477 3.477 0 0 1 1.574-2.726c.869-.499 1.573-.095 1.573.91z"
        fill="#dbdbda"/>
    <path
        d="m107.451 158.937a1.156 1.156 0 0 1 -.525.909c-.29.168-.525.032-.525-.3a1.157 1.157 0 0 1 .525-.909c.29-.171.525-.037.525.3z"
        fill="url(#ao)"/>
    <path
        d="m106.5 158.586a.488.488 0 0 1 -.222.383c-.124.071-.222.013-.222-.127a.489.489 0 0 1 .222-.386c.122-.07.222-.013.222.13z"
        fill="#343433"/>
    <path
        d="m107.635 157.909a.494.494 0 0 1 -.222.384c-.124.071-.222.013-.222-.127a.484.484 0 0 1 .222-.384c.122-.072.222-.015.222.127z"
        fill="#343433"/>
    <path
        d="m108.013 158.976a.487.487 0 0 1 -.223.385c-.122.07-.221.013-.221-.128a.488.488 0 0 1 .221-.384c.124-.071.223-.013.223.127z"
        fill="#343433"/>
    <path
        d="m107.108 160.275a.485.485 0 0 1 -.224.383c-.122.071-.221.014-.221-.128a.49.49 0 0 1 .221-.384c.125-.071.224-.013.224.129z"
        fill="#343433"/>
    <path
        d="m106.2 160.018a.492.492 0 0 1 -.221.384c-.124.07-.223.012-.223-.128a.485.485 0 0 1 .223-.384c.121-.07.221-.015.221.128z"
        fill="#343433"/>
    <path d="m106.8 156.523a.341.341 0 1 1 -.472-.231.378.378 0 0 1 .472.231z" fill="#343433"/>
    <path d="m108 156.489c.017.224-.073.412-.2.424s-.248-.162-.265-.386.071-.414.2-.424.249.162.265.386z"
          fill="#343433"/>
    <path d="m105.434 157.513a.38.38 0 1 1 -.545.1.393.393 0 0 1 .545-.1z" fill="#343433"/>
    <path d="m104.52 159.21a.347.347 0 1 1 -.055.682.347.347 0 1 1 .055-.682z" fill="#343433"/>
    <path d="m104.449 160.743c.215-.062.427.012.47.167s-.093.329-.309.391-.426-.012-.469-.167.091-.334.308-.391z"
          fill="#343433"/>
    <path d="m105.476 161.609c.139-.118.288-.168.334-.116s-.03.193-.167.31-.288.169-.333.116.028-.192.166-.31z"
          fill="#343433"/>
    <path
        d="m111.546 151.011c-.639-1.042-2.116-.295-3.808.629l2 1.115a3.442 3.442 0 0 1 1.447 3.182v.129l1.2.411c.143-2.984-.015-4.121-.839-5.466z"
        fill="#212020"/>
    <path
        d="m165.778 120.544-1.539-.86a6.6 6.6 0 0 0 -1.759.809c-3.146 1.984-5.461 3.989-5.663 10.5l-.017.011-.364.21 2.667 1.477a3.619 3.619 0 0 0 3.214-.47 10.84 10.84 0 0 0 4.907-8.5 3.441 3.441 0 0 0 -1.446-3.177z"
        fill="#3a3939"/>
    <path
        d="m167.224 123.725a10.84 10.84 0 0 1 -4.907 8.5c-2.71 1.565-4.907.3-4.907-2.832a10.847 10.847 0 0 1 4.907-8.5c2.71-1.566 4.907-.293 4.907 2.832z"
        fill="#575656"/>
    <path
        d="m166.964 124.231a9.851 9.851 0 0 1 -4.456 7.717c-2.46 1.419-4.454.269-4.454-2.572a9.846 9.846 0 0 1 4.454-7.716c2.46-1.421 4.456-.269 4.456 2.571z"
        fill="#3a3939"/>
    <path
        d="m165.565 125.136a6.527 6.527 0 0 1 -2.953 5.115c-1.631.943-2.954.18-2.954-1.7a6.533 6.533 0 0 1 2.954-5.117c1.631-.945 2.953-.181 2.953 1.702z"
        fill="url(#ap)"/>
    <path
        d="m162.612 123.43a4.656 4.656 0 0 0 -.639.453c.072-.05.144-.1.218-.141 1.39-.8 2.514-.151 2.514 1.452a5.549 5.549 0 0 1 -2.514 4.352c-1.377.8-2.494.16-2.511-1.42-.013.143-.022.283-.022.421 0 1.884 1.323 2.647 2.954 1.7a6.527 6.527 0 0 0 2.953-5.115c0-1.879-1.322-2.643-2.953-1.702z"
        fill="url(#aq)"/>
    <path
        d="m162.817 123.325c1.3-.474 2.279.268 2.279 1.844a6.156 6.156 0 0 1 -2.785 4.825c-1.008.581-1.889.469-2.377-.174.468.9 1.49 1.118 2.678.431a6.527 6.527 0 0 0 2.953-5.115c0-1.803-1.213-2.576-2.748-1.811z"
        fill="url(#ar)"/>
    <path
        d="m164.322 126.088a3.478 3.478 0 0 1 -1.572 2.725c-.871.5-1.575.1-1.575-.908a3.475 3.475 0 0 1 1.575-2.726c.868-.501 1.572-.094 1.572.909z"
        fill="#dbdbda"/>
    <path
        d="m163.494 126.724a1.167 1.167 0 0 1 -.526.911c-.29.167-.526.03-.526-.3a1.163 1.163 0 0 1 .526-.91c.29-.172.526-.035.526.299z"
        fill="url(#as)"/>
    <path
        d="m162.542 126.373a.493.493 0 0 1 -.222.384c-.124.071-.223.014-.223-.128a.489.489 0 0 1 .223-.385c.122-.07.222-.014.222.129z"
        fill="#343433"/>
    <path
        d="m163.677 125.7a.491.491 0 0 1 -.223.384c-.122.071-.221.014-.221-.128a.49.49 0 0 1 .221-.384c.123-.072.223-.017.223.128z"
        fill="#343433"/>
    <path
        d="m164.055 126.765a.493.493 0 0 1 -.222.384c-.122.07-.222.014-.222-.128a.494.494 0 0 1 .222-.385c.123-.07.222-.013.222.129z"
        fill="#343433"/>
    <path
        d="m163.15 128.061a.484.484 0 0 1 -.223.384c-.122.072-.222.014-.222-.127a.491.491 0 0 1 .222-.384c.124-.071.223-.014.223.127z"
        fill="#343433"/>
    <path
        d="m162.244 127.805a.5.5 0 0 1 -.222.385c-.122.07-.222.013-.222-.129a.493.493 0 0 1 .222-.384c.122-.071.222-.015.222.128z"
        fill="#343433"/>
    <path d="m162.845 124.311a.342.342 0 1 1 -.473-.232.377.377 0 0 1 .473.232z" fill="#343433"/>
    <path d="m164.044 124.276c.018.224-.072.414-.2.424s-.249-.162-.267-.386.072-.413.2-.424.249.163.267.386z"
          fill="#343433"/>
    <path d="m161.476 125.3a.379.379 0 1 1 -.545.1.394.394 0 0 1 .545-.1z" fill="#343433"/>
    <path d="m160.563 127a.347.347 0 1 1 -.055.682.347.347 0 1 1 .055-.682z" fill="#343433"/>
    <path
        d="m160.491 128.53c.217-.062.427.013.471.167s-.094.33-.31.391a.363.363 0 0 1 -.471-.165c-.043-.155.094-.331.31-.393z"
        fill="#343433"/>
    <path d="m161.52 129.4c.137-.117.286-.169.331-.115s-.028.192-.166.311-.287.169-.333.115.028-.197.168-.311z"
          fill="#343433"/>
    <path
        d="m167.7 121.171c-.268-.9-1.427-2.045-3.464-1.487l1.541.86a3.265 3.265 0 0 1 1.434 2.8l.534.082.012-.018a5.715 5.715 0 0 0 -.057-2.237z"
        fill="#212020"/>
    <path
        d="m179.6 108.8-.062-8.824s-1.341-10.7-1.708-13.869-1.127-3.256-2.056-3.811c-5.078-3.031-19.949-11.913-19.949-11.913l-.722-.4a2.657 2.657 0 0 0 -1.817-.034l-52.535 30.351c-3.084 1.8-4.014 2.555-4.911 3.826-1.913 2.712-7.08 10.05-7.08 10.05s-10.121 15.9-11.022 17.446-3.82 6.785-3.82 6.785a10.44 10.44 0 0 0 -2.04 5.122c-.26 2.35-.45 5.482.546 7.971s3.536 4.318 7.828 6.9 9.439 5.151 13 5.409a12.653 12.653 0 0 0 5.965-.911l.091-.045a56.525 56.525 0 0 1 2.062-5.561 10.8 10.8 0 0 1 4.566-4.7c2.373-1.153 4.748-2.984 5.606-1.583.826 1.347.984 2.485.835 5.477l.013-.007 44.41-25.474.017-.011c.2-6.512 2.517-8.517 5.663-10.5s4.882-.452 5.221.678a5.922 5.922 0 0 1 .044 2.334c2.176-1.287 10.22-6.074 11.073-7.007.987-1.079 1.2-4.859 1.264-6.077s-.482-1.622-.482-1.622z"
        fill="url(#at)"/>
    <path
        d="m178.818 116.5c.987-1.079 1.2-4.859 1.264-6.077s-.478-1.619-.478-1.619l-.062-8.824s-1.341-10.7-1.708-13.869a7.881 7.881 0 0 0 -.6-2.523s-.371-.759-2.3.428-52.309 30.276-52.309 30.276a19.841 19.841 0 0 0 -5.405 5.931c-2.46 4.021-5.065 9.039-5.065 9.039l-8.017 14.052s-3.138 4.53-3.973 5.719-4.151 1.983-4.151 1.983-1.264 8.082-1.015 12.816a11.864 11.864 0 0 0 4.228-.929l.091-.045a56.525 56.525 0 0 1 2.062-5.561 10.8 10.8 0 0 1 4.566-4.7c2.373-1.153 4.748-2.984 5.606-1.583.826 1.347.984 2.485.835 5.477l.013-.007 44.4-25.479.017-.011c.2-6.512 2.517-8.517 5.663-10.5s4.882-.452 5.221.678a5.922 5.922 0 0 1 .044 2.334c2.176-1.288 10.22-6.075 11.073-7.006z"
        opacity=".1"/>
    <path
        d="m96.008 151.014a16.989 16.989 0 0 0 1.952-.618l.209-.732a6.606 6.606 0 0 0 1.19.059 3.441 3.441 0 0 0 .591-.45c-.21-.457-1.454-1.342-4.989-3.021a95.905 95.905 0 0 1 -16.752-10.128 6.561 6.561 0 0 1 -1.834-2.106c-1.138 2.02-2.457 4.389-2.457 4.389a10.44 10.44 0 0 0 -2.04 5.122 28.14 28.14 0 0 0 -.2 3.911 99.721 99.721 0 0 0 11.62 8.243c7.045 4.262 10.411 3.224 11.91 1.961.312-3.503.8-6.63.8-6.63z"
        opacity=".03"/>
    <g mask="url(#av)">
        <path
            d="m111.736 147.3-1.551-.3-8.727 4.571.554.641s4.3-2.323 6.268-3.349 4.326-1.695 5.194.756a17.539 17.539 0 0 1 .828 3.569c-.055-.902-.43-5.321-2.566-5.888z"
            fill="url(#aw)" opacity=".5"/>
    </g>
    <g mask="url(#ay)">
        <path d="m114.31 153.263s0-.027-.008-.076l.008.162z" fill="url(#az)" opacity=".5"/>
    </g>
    <path
        d="m177.683 107.779-60.683 34.835s-14.018 7.448-15.393 8.112a10.879 10.879 0 0 1 -6.786 1.257c-3.107-.5-7.9-2.917-11.5-5.1a45.812 45.812 0 0 1 -8.394-6.171 5.7 5.7 0 0 1 -1.183-2.087c-.05.064-.1.137-.156.217a5.912 5.912 0 0 0 1.339 2.644 45.858 45.858 0 0 0 8.394 6.171c3.607 2.181 8.4 4.6 11.5 5.1a10.879 10.879 0 0 0 6.779-1.257c1.375-.664 15.393-8.111 15.393-8.111l59.827-34.539z"
        opacity=".1"/>
    <g fill="#fff" opacity=".5">
        <path
            d="m154.309 73.037a.294.294 0 0 1 -.064.054l-49.112 28.459a.576.576 0 0 1 -.477.02l-.664-.313a.239.239 0 0 1 -.073-.054c-.055.068-.03.147.073.2l.664.315a.583.583 0 0 0 .477-.02l49.112-28.461c.096-.06.117-.137.064-.2z"/>
        <path
            d="m156.179 74.144a.218.218 0 0 1 -.064.054l-49.115 28.46a.577.577 0 0 1 -.476.02l-.663-.314a.226.226 0 0 1 -.075-.053c-.055.067-.031.147.075.2l.663.314a.577.577 0 0 0 .476-.02l49.112-28.46c.099-.06.12-.138.067-.201z"/>
        <path
            d="m158.017 75.288a.255.255 0 0 1 -.065.052l-49.111 28.46a.582.582 0 0 1 -.476.021l-.664-.315a.232.232 0 0 1 -.075-.053c-.053.068-.029.146.075.2l.664.314a.581.581 0 0 0 .476-.02l49.111-28.459c.098-.061.118-.139.065-.2z"/>
        <path
            d="m159.929 76.39a.251.251 0 0 1 -.064.053l-49.112 28.457a.575.575 0 0 1 -.475.02l-.664-.314a.207.207 0 0 1 -.074-.053c-.055.068-.03.147.074.2l.664.314a.575.575 0 0 0 .475-.02l49.112-28.46c.098-.057.118-.136.064-.197z"/>
        <path
            d="m161.827 77.494a.22.22 0 0 1 -.064.053l-49.111 28.459a.572.572 0 0 1 -.475.021l-.665-.314a.218.218 0 0 1 -.074-.054c-.055.068-.03.148.074.2l.665.313a.572.572 0 0 0 .475-.02l49.111-28.46c.097-.059.119-.137.064-.198z"/>
        <path
            d="m163.785 78.656a.218.218 0 0 1 -.064.053l-49.111 28.461a.588.588 0 0 1 -.477.02l-.664-.315a.239.239 0 0 1 -.074-.053c-.054.068-.029.147.074.2l.664.314a.572.572 0 0 0 .477-.02l49.111-28.46c.097-.056.118-.138.064-.2z"/>
        <path
            d="m165.639 79.76a.249.249 0 0 1 -.063.054l-49.112 28.459a.572.572 0 0 1 -.477.02l-.662-.313a.227.227 0 0 1 -.075-.054c-.055.068-.03.147.075.2l.662.313a.572.572 0 0 0 .477-.019l49.112-28.46c.095-.06.116-.138.063-.2z"/>
        <path
            d="m167.631 80.942a.223.223 0 0 1 -.065.053l-49.111 28.461a.585.585 0 0 1 -.476.02l-.663-.315a.207.207 0 0 1 -.074-.053c-.055.068-.032.147.074.2l.663.314a.577.577 0 0 0 .476-.02l49.111-28.46c.097-.06.119-.142.065-.2z"/>
        <path
            d="m169.6 82.049a.265.265 0 0 1 -.063.054l-49.112 28.459a.573.573 0 0 1 -.476.02l-.662-.314a.217.217 0 0 1 -.076-.053c-.054.068-.031.147.076.2l.662.314a.577.577 0 0 0 .476-.02l49.112-28.46c.095-.06.115-.138.063-.2z"/>
        <path
            d="m171.554 83.135a.19.19 0 0 1 -.063.054l-49.112 28.46a.575.575 0 0 1 -.475.02l-.664-.314a.2.2 0 0 1 -.073-.054c-.056.069-.032.148.073.2l.664.314a.575.575 0 0 0 .475-.02l49.112-28.46c.097-.06.117-.135.063-.2z"/>
    </g>
    <g opacity=".05">
        <path
            d="m103.919 101.2a.242.242 0 0 1 .063-.053l49.118-28.457a.572.572 0 0 1 .474-.02l.664.314a.236.236 0 0 1 .075.053c.054-.067.029-.146-.075-.2l-.664-.314a.569.569 0 0 0 -.474.021l-49.114 28.459c-.099.061-.121.139-.067.197z"/>
        <path
            d="m105.789 102.311a.182.182 0 0 1 .064-.053l49.112-28.458a.568.568 0 0 1 .475-.02l.665.313a.261.261 0 0 1 .074.053c.054-.067.03-.146-.074-.2l-.665-.315a.575.575 0 0 0 -.475.021l-49.112 28.46c-.096.059-.117.137-.064.199z"/>
        <path
            d="m107.626 103.453a.253.253 0 0 1 .064-.054l49.11-28.46a.577.577 0 0 1 .476-.019l.664.313a.252.252 0 0 1 .075.055c.055-.069.029-.148-.075-.2l-.664-.314a.574.574 0 0 0 -.476.02l-49.112 28.46c-.095.059-.114.137-.062.199z"/>
        <path
            d="m109.54 104.556a.222.222 0 0 1 .064-.054l49.11-28.46a.584.584 0 0 1 .477-.02l.663.314a.2.2 0 0 1 .075.054c.055-.068.029-.148-.075-.2l-.663-.313a.572.572 0 0 0 -.477.02l-49.114 28.463c-.093.056-.113.134-.06.196z"/>
        <path
            d="m111.438 105.659a.242.242 0 0 1 .063-.053l49.113-28.46a.579.579 0 0 1 .477-.02l.662.314a.209.209 0 0 1 .074.054c.056-.068.031-.148-.074-.2l-.662-.314a.576.576 0 0 0 -.477.021l-49.114 28.462c-.094.057-.116.137-.062.196z"/>
        <path
            d="m113.4 106.822a.232.232 0 0 1 .064-.053l49.111-28.46a.576.576 0 0 1 .477-.02l.664.314a.217.217 0 0 1 .074.053c.054-.068.03-.147-.074-.2l-.664-.314a.576.576 0 0 0 -.477.02l-49.111 28.46c-.102.06-.122.138-.064.2z"/>
        <path
            d="m115.25 107.926a.206.206 0 0 1 .064-.053l49.112-28.46a.575.575 0 0 1 .475-.021l.664.314a.233.233 0 0 1 .074.054c.055-.068.031-.147-.074-.2l-.664-.314a.571.571 0 0 0 -.475.02l-49.112 28.46c-.097.06-.114.138-.064.2z"/>
        <path
            d="m117.242 109.108a.222.222 0 0 1 .064-.054l49.11-28.46a.582.582 0 0 1 .476-.02l.665.315a.217.217 0 0 1 .074.053c.055-.068.03-.146-.074-.2l-.665-.314a.574.574 0 0 0 -.476.02l-49.11 28.46c-.097.059-.117.138-.064.2z"/>
        <path
            d="m119.209 110.215a.236.236 0 0 1 .064-.054l49.112-28.461a.574.574 0 0 1 .476-.02l.663.313a.222.222 0 0 1 .074.054c.055-.067.031-.147-.074-.2l-.663-.314a.574.574 0 0 0 -.476.02l-49.112 28.46c-.096.062-.118.14-.064.202z"/>
        <path
            d="m121.167 111.3a.231.231 0 0 1 .063-.053l49.111-28.46a.577.577 0 0 1 .476-.02l.663.314a.211.211 0 0 1 .074.053c.056-.067.032-.146-.074-.2l-.663-.313a.57.57 0 0 0 -.476.02l-49.111 28.46c-.097.061-.118.139-.063.199z"/>
    </g>
    <path
        d="m124.359 133.939-.467-10.947a.974.974 0 0 1 .443-.805l52.14-29.9a.409.409 0 0 1 .2-.06.309.309 0 0 0 -.467-.1l-52.141 29.905a.98.98 0 0 0 -.444.8l.469 10.947c.009.22.134.343.3.333a.478.478 0 0 1 -.033-.173z"
        opacity=".1"/>
    <path
        d="m176.724 92.389c-.019-.228-.162-.35-.345-.327a.472.472 0 0 1 .028.119l.593 10.819a.921.921 0 0 1 -.421.8l-52.314 30.043a.418.418 0 0 1 -.153.055c.061.206.252.278.471.152l52.317-30.045a.925.925 0 0 0 .422-.8z"
        fill="#fff" opacity=".4"/>
    <path
        d="m175.308 86.626-14.456 8.374-14.479 8.331-14.48 8.33-7.239 4.166-1.81 1.04a8.345 8.345 0 0 0 -1.594 1.277 16.152 16.152 0 0 0 -2.519 3.29 12.589 12.589 0 0 1 2.325-3.48 9.413 9.413 0 0 1 .768-.726 5.482 5.482 0 0 1 .868-.624l1.809-1.044 7.235-4.174 14.468-8.347 14.47-8.348 14.492-8.308z"
        fill="#fff" opacity=".2"/>
    <path d="m117 143.389s-3.271 1.736-6.808 3.609l1.551.3 65.947-37.926-.863-.523z" fill="#fff" opacity=".2"/>
    <g mask="url(#aB)" opacity=".5">
        <path
            d="m155 130.344c0-.043-.062-1.108 1.051-4.577 1.155-3.608 3.135-5.409 6.167-7.3 3.114-1.943 5.228-1.269 5.317-1.24l-.121.361c-.02-.006-2.044-.64-5 1.2s-4.886 3.6-6.007 7.093a15.992 15.992 0 0 0 -1.034 4.436z"
            fill="url(#aC)"/>
    </g>
    <path
        d="m121.18 125.2c-.005-.007-.021 0-.046.018a2.162 2.162 0 0 1 .042.587c-.061 1.413-.245 7.244-1.148 9.157-1.386 2.933-5.382 5.95-10.883 8.382l-2.7 1.372a1.039 1.039 0 0 1 -.266.035c-.287 0-.691-.136-.56-.929-.184.666-.414 1.775-.028 2.165.566.57 2.671-.808 4.6-1.9s8.946-4.284 10.369-8.193.734-10.506.62-10.694z"
        fill="#fff" opacity=".3"/>
    <path d="m154.952 131.022-40.434 23.186.094.165 40.434-23.186z" opacity=".1"/>
    <g mask="url(#aE)">
        <path
            d="m111.307 112.148-5.581 8.1a.858.858 0 0 0 .133 1.3c.775.534 3.625 2.11 3.625 2.11s1.168.346 1.7-.454 5.867-8.128 5.867-8.128l-5.784 9.276a2.064 2.064 0 0 1 -2.573.668 20.265 20.265 0 0 1 -3.684-2.056s-1.63-.749-.161-2.711 6.458-8.105 6.458-8.105z"
            fill="url(#aF)" opacity=".3"/>
    </g>
    <path
        d="m111.307 112.148-5.581 8.1a.858.858 0 0 0 .133 1.3c.775.534 3.625 2.11 3.625 2.11s1.168.346 1.7-.454 5.867-8.128 5.867-8.128l-5.784 9.276a2.064 2.064 0 0 1 -2.573.668 20.265 20.265 0 0 1 -3.684-2.056s-1.63-.749-.161-2.711 6.458-8.105 6.458-8.105z"
        fill="url(#aG)" opacity=".1"/>
    <g mask="url(#aI)">
        <path
            d="m99.05 104.773-5.58 8.1a.857.857 0 0 0 .133 1.3c.775.534 3.624 2.109 3.624 2.109s1.17.348 1.7-.454 5.867-8.128 5.867-8.128l-5.785 9.277a2.061 2.061 0 0 1 -2.572.667 20.186 20.186 0 0 1 -3.685-2.056s-1.629-.749-.16-2.71 6.458-8.105 6.458-8.105z"
            fill="url(#aJ)" opacity=".3"/>
    </g>
    <path
        d="m99.05 104.773-5.58 8.1a.857.857 0 0 0 .133 1.3c.775.534 3.624 2.109 3.624 2.109s1.17.348 1.7-.454 5.867-8.128 5.867-8.128l-5.785 9.277a2.061 2.061 0 0 1 -2.572.667 20.186 20.186 0 0 1 -3.685-2.056s-1.629-.749-.16-2.71 6.458-8.105 6.458-8.105z"
        fill="url(#aK)" opacity=".1"/>
    <path
        d="m120.626 124.73a.645.645 0 0 0 -.236.046s-3.243 1.74-4.77 2.713a11.211 11.211 0 0 0 -2.722 2.721s-6.592 11.385-7.162 13.138c-.4 1.222.1 1.407.441 1.407a1.039 1.039 0 0 0 .266-.035l2.7-1.372c5.5-2.432 9.5-5.449 10.883-8.382.9-1.913 1.087-7.744 1.148-9.157.043-.918-.301-1.079-.548-1.079z"
        fill="#141c1e"/>
    <path
        d="m114.358 129.184a12.309 12.309 0 0 0 -1.059 1.281c-.987 1.7-2.374 4.131-3.665 6.442v5.7a37.224 37.224 0 0 0 4.348-2.347z"
        fill="#303e42"/>
    <path
        d="m120.624 125.2a.167.167 0 0 0 -.04.007c-.33.177-3.291 1.775-4.709 2.679a7.078 7.078 0 0 0 -.928.716l-.382 11.27a14.136 14.136 0 0 0 5.034-5.113c.8-1.7 1.018-6.933 1.09-8.651l.015-.323a1.029 1.029 0 0 0 -.08-.585z"
        fill="#303e42"/>
    <path
        d="m110.548 127.732c-1.109-.538-9.513-5.23-12.483-7.188s-8.472-5.4-8.472-5.4a.927.927 0 0 0 -.549-.191c-.287 0-.65.153-.99.732-.723 1.226-8.26 13.185-8.26 13.185a8.741 8.741 0 0 0 2.987 4.063 76.6 76.6 0 0 0 13.72 8.532 13.617 13.617 0 0 0 5.516 1.484 3.4 3.4 0 0 0 1.213-.163l8.032-13.7s.397-.816-.714-1.354z"
        fill="#141c1e"/>
    <path
        d="m110.342 128.158c-1.175-.569-9.578-5.266-12.538-7.217-2.932-1.933-8.407-5.36-8.462-5.395l-.037-.022-.016-.016a.469.469 0 0 0 -.245-.08c-.239 0-.448.271-.582.5-.676 1.149-6.693 10.806-7.692 12.392a11 11 0 0 0 3.051 3.348 74.411 74.411 0 0 0 13.424 8.209c2.6 1.192 4.28 1.695 5.269 1.695a3.686 3.686 0 0 0 1.042-.235l7.28-12.464c.049-.133.079-.437-.494-.715z"
        fill="#303e42"/>
    <path
        d="m96.5 141.466a76.6 76.6 0 0 1 -13.72-8.532 8.741 8.741 0 0 1 -2.987-4.063s-1.07 2.225 0 3.788 6.412 5.1 8.547 6.442 8.872 4.714 10.484 4.951 4.113-.769 4.405-1.265c.001 0-1.987.846-6.729-1.321z"
        fill="#4d585a"/>
    <g fill="#c5d0d3" opacity=".7">
        <path
            d="m89.639 115.733-.3-.187-.037-.022-.016-.016a.469.469 0 0 0 -.245-.08c-.239 0-.448.271-.582.5-.329.56-1.93 3.145-3.6 5.831l-.212 4.622s-.112.5 2.922-1.408z"/>
        <path
            d="m90.212 116.093-1.865 8.384.081-.053a15.474 15.474 0 0 0 5.2-6.172c-1.346-.852-2.614-1.652-3.416-2.159z"/>
    </g>
    <path
        d="m83.821 131.667a74.411 74.411 0 0 0 13.424 8.209c2.6 1.192 4.28 1.695 5.269 1.695a3.686 3.686 0 0 0 1.042-.235l1.913-3.276a73.461 73.461 0 0 0 -10.519-7.415 113.026 113.026 0 0 0 -10.271-5.121l-3.909 2.795a11 11 0 0 0 3.051 3.348z"
        fill="#39464a"/>
    <path
        d="m106.952 135.522a5.23 5.23 0 0 0 -2.792-2.638 2.945 2.945 0 0 0 -3.34.564 30.2 30.2 0 0 0 -2.551 3.417c-.8 1.181 3.509 3.055 4.8 2.78a6.648 6.648 0 0 0 2.013-.924z"
        fill="#3d4b4f"/>
    <path
        d="m97.8 120.941c-2.932-1.933-8.407-5.36-8.462-5.395l-.037-.022-.016-.016a.469.469 0 0 0 -.245-.08c-.239 0-.448.271-.582.5-.676 1.149-6.693 10.806-7.692 12.392a9.484 9.484 0 0 0 2.385 2.785 33.46 33.46 0 0 1 16.061-9.273c-.541-.332-1.021-.632-1.412-.891z"
        fill="#fff" opacity=".2"/>
    <path
        d="m101.456 151.57a10.732 10.732 0 0 1 -6.64 1.187c-3.107-.5-7.9-2.918-11.5-5.1a45.858 45.858 0 0 1 -8.394-6.171 5.908 5.908 0 0 1 -1.339-2.644 11.2 11.2 0 0 0 -1.7 4.686c-.26 2.35-.45 5.482.546 7.971s3.536 4.318 7.828 6.9 9.439 5.151 13 5.409a12.653 12.653 0 0 0 5.965-.911l.091-.045a56.525 56.525 0 0 1 2.062-5.561 12.355 12.355 0 0 1 2.182-2.983l-1.032-1.821-.16-.281z"
        fill="#404b4d"/>
    <path
        d="m102.364 152.21-.908-.64a10.732 10.732 0 0 1 -6.64 1.187c-3.107-.5-7.9-2.918-11.5-5.1a45.858 45.858 0 0 1 -8.394-6.171 5.908 5.908 0 0 1 -1.339-2.644 10.28 10.28 0 0 0 -1.066 2.121 6.294 6.294 0 0 0 3.236 4.938s2.638 1.784 5.441 3.481c2.426 1.471 4.977 2.839 6.045 3.367a15.845 15.845 0 0 0 7.29 2.019c3.278.269 6.966-1.7 7.99-2.3z"
        fill="#5a6567"/>
    <path
        d="m83.311 147.658a56.631 56.631 0 0 1 -7.465-5.271 6.777 6.777 0 0 0 -1.691 2.172 34.465 34.465 0 0 0 -.378 5.027 53.467 53.467 0 0 0 6.117 4.171 58.683 58.683 0 0 0 8 4.244l1.823-4.119 2.013-2a54.294 54.294 0 0 1 -8.419-4.224z"
        fill="#c5ccd0"/>
    <path
        d="m87.188 153.16c-1.07-.526-3.62-1.9-6.046-3.365-2.8-1.7-5.441-3.482-5.441-3.482-.768-.457-.763.706-.763.706l-.073 3.027c1.124.828 2.715 1.835 5.245 3.481a62.615 62.615 0 0 0 6.474 3.533l.982-2.529a.976.976 0 0 0 -.378-1.371z"
        fill="#4d585a"/>
    <path
        d="m86.736 156.664.83-2.133a.976.976 0 0 0 -.378-1.371c-1.07-.526-3.62-1.9-6.046-3.365-2.8-1.7-5.441-3.482-5.441-3.482a.785.785 0 0 0 -.124-.061 1.57 1.57 0 0 0 -.108.554l-.073 3.026c1.124.83 2.716 1.836 5.245 3.481a60.153 60.153 0 0 0 6.095 3.351z"
        fill="#1b2628"/>
    <path d="m75.827 150.143.272.19.268-3.575-.273-.181z" fill="#333e40"/>
    <path d="m77.154 151.044.269.178.338-3.551c-.093-.06-.183-.117-.269-.175z" fill="#333e40"/>
    <path d="m78.814 152.128.264.172.465-3.492-.266-.166z" fill="#333e40"/>
    <path d="m80.588 153.28.053.033.2.131.681-3.417-.259-.156z" fill="#333e40"/>
    <path d="m85.65 156.126c.085.044.172.086.257.129l1.08-3.194c-.078-.041-.165-.084-.255-.129z" fill="#333e40"/>
    <path d="m84.107 155.329.255.134 1.008-3.251-.256-.14z" fill="#333e40"/>
    <path d="m82.371 154.368.257.147.853-3.35c-.085-.049-.171-.1-.256-.147z" fill="#333e40"/>
    <path d="m115.62 150.22.137 1.694a.453.453 0 0 0 .626.437l37.578-21.6.7-3.017z" fill="#5a6567"/>
    <path
        d="m167.267 117.064-1.1 2.609a2.363 2.363 0 0 1 1.539 1.5 5.922 5.922 0 0 1 .044 2.334c2.176-1.287 10.22-6.074 11.073-7.007.987-1.079 1.2-4.859 1.264-6.077s-.478-1.619-.478-1.619l-.516 1.539z"
        fill="#5a6567"/>
    <path
        d="m75.846 142.387a6.777 6.777 0 0 0 -1.691 2.172c-.007.022-.014.048-.021.075a6.659 6.659 0 0 0 1.614 1.268s2.638 1.784 5.441 3.481c2.426 1.471 4.977 2.839 6.045 3.367a24.867 24.867 0 0 0 2.49 1.124l2-1.994a54.294 54.294 0 0 1 -8.418-4.222 56.631 56.631 0 0 1 -7.46-5.271z"
        fill="#dfe6ea"/>
    <path
        d="m86.976 156.05a62.214 62.214 0 0 1 -6.224-3.434c-.53-.345-1.021-.664-1.478-.959-1.741-1.129-2.935-1.9-3.86-2.57l-.009.345c.908.645 2.067 1.4 3.714 2.463l1.479.961a62.336 62.336 0 0 0 6.274 3.46z"
        fill="#404b4d"/>
    <path
        d="m75.423 148.677c.915.652 2.085 1.411 3.762 2.5.457.3.948.615 1.478.961a64 64 0 0 0 6.455 3.548l.105-.267a62.6 62.6 0 0 1 -6.4-3.521c-.531-.345-1.023-.662-1.478-.958-1.773-1.148-2.977-1.931-3.908-2.606z"
        fill="#404b4d"/>
    <path
        d="m75.443 147.886c.915.655 2.087 1.414 3.769 2.5.457.3.948.614 1.479.959a64.329 64.329 0 0 0 6.689 3.663l.1-.267a63.933 63.933 0 0 1 -6.637-3.635l-1.478-.96c-1.777-1.151-2.983-1.933-3.915-2.609z"
        fill="#404b4d"/>
    <path
        d="m79.3 149.569q.685.443 1.479.959a69.532 69.532 0 0 0 6.878 3.766 1.23 1.23 0 0 0 .051-.292 68.384 68.384 0 0 1 -6.773-3.712l-1.479-.96c-1.819-1.179-3.04-1.97-3.981-2.657-.006.079-.007.133-.007.133l-.006.209c.928.665 2.116 1.436 3.838 2.554z"
        fill="#404b4d"/>
    <g mask="url(#aM)">
        <path
            d="m89.753 157.661c-.878-.183-1 .085-1.156.474s-.365.96-.013 1.216a15.769 15.769 0 0 0 3.674.815l.274-.806z"
            fill="url(#aN)"/>
    </g>
    <path
        d="m92.451 160.006a24.6 24.6 0 0 0 4.392-.3 1.974 1.974 0 0 0 1.459-.889s-.085.7-1.192.961a17.568 17.568 0 0 1 -4.852.389 15.769 15.769 0 0 1 -3.674-.815 27.623 27.623 0 0 0 3.867.654z"
        fill="#4d585a"/>
    <path
        d="m92.314 161.743 3.309-.093s.641.039.4.493a1.891 1.891 0 0 1 -.815.974 10.785 10.785 0 0 1 -3.361.08 28.464 28.464 0 0 1 -6.448-2.322l.026-.481a34.709 34.709 0 0 0 5.979 2.176s.189-.854.91-.827z"
        fill="#4d585a"/>
    <path
        d="m92.922 162.48a7.622 7.622 0 0 0 1.363-.793l-1.971.056c-.721-.027-.909.827-.909.827a34.709 34.709 0 0 1 -5.979-2.176l-.026.481a31.821 31.821 0 0 0 6.095 2.272c.34-.174.919-.459 1.427-.667z"
        fill="#333e40"/>
    <path d="m96.009 161.795a.693.693 0 0 0 -.386-.145l-1.335.037a.908.908 0 0 0 .866.917.9.9 0 0 0 .855-.809z"
          fill="#f0eff0"/>
    <path d="m92.781 158.21a22.9 22.9 0 0 1 -3.028-.549h-.026c-.047.233-.111.664.034.765.2.142 2.752.957 2.752.957z"
          fill="#333e40"/>
    <path
        d="m83.6 157.205-6.5-3.919a.291.291 0 0 0 -.155-.047.232.232 0 0 0 -.226.255l-.033 1.266a.6.6 0 0 0 .269.49l6.475 3.861a.292.292 0 0 0 .155.045.237.237 0 0 0 .231-.253l.054-1.2a.6.6 0 0 0 -.27-.498z"
        opacity=".2"/>
    <path
        d="m83.5 157.368-6.5-3.92a.1.1 0 0 0 -.056-.02c-.032 0-.036.049-.036.069l-.033 1.268a.415.415 0 0 0 .178.323l6.473 3.86a.126.126 0 0 0 .058.02c.032 0 .04-.046.041-.074l.055-1.2a.407.407 0 0 0 -.18-.326z"
        fill="#fff"/>
    <path
        d="m74.773 150.9v-.521c1.108.825 2.662 1.838 5.121 3.377a64.192 64.192 0 0 0 6.575 3.606v.54c-.025.487-.518.232-.518.232a65.248 65.248 0 0 1 -6.057-3.359c-2.194-1.375-3.668-2.328-4.748-3.105a.942.942 0 0 1 -.373-.77z"
        fill="#4d585a"/>
    <path
        d="m75.287 150.753v.006a.942.942 0 0 0 .373.772c1.078.775 2.552 1.729 4.746 3.1a64.8 64.8 0 0 0 6.052 3.355.449.449 0 0 0 .011-.087v-.54a64.192 64.192 0 0 1 -6.575-3.606c-2.102-1.312-3.542-2.244-4.607-3z"
        fill="#1b2628"/>
    <path d="m77.054 152.489.282.187v-.543l-.282-.184z" fill="#404b4d"/>
    <path d="m75.759 151.6c.091.065.185.13.283.2v-.526c-.1-.065-.192-.13-.283-.193z" fill="#404b4d"/>
    <path d="m78.643 153.521.283.18v-.554c-.1-.06-.19-.119-.283-.178z" fill="#404b4d"/>
    <path d="m80.411 154.639.282.173v-.562l-.282-.172z" fill="#404b4d"/>
    <path d="m82.129 155.676.281.164v-.585l-.281-.161z" fill="#404b4d"/>
    <path d="m83.923 156.687c.095.053.19.1.282.153v-.607c-.092-.047-.187-.1-.282-.148z" fill="#404b4d"/>
    <path d="m85.384 157.456.282.142v-.622l-.282-.14z" fill="#404b4d"/>
    <path d="m95.781 161.677a.855.855 0 0 0 -.158-.027l-1.129.032a.644.644 0 0 0 1.287 0z" fill="#fff"/>
    <path
        d="m81.537 152.2a.719.719 0 0 1 -1.092.465 1.292 1.292 0 0 1 -.464-1.44.718.718 0 0 1 1.091-.466 1.293 1.293 0 0 1 .465 1.441z"
        fill="#4d585a"/>
    <path
        d="m81.419 152.139a.622.622 0 0 1 -.943.4 1.119 1.119 0 0 1 -.4-1.247.62.62 0 0 1 .942-.4 1.117 1.117 0 0 1 .401 1.247z"
        fill="#d2d5d7"/>
    <path
        d="m73.131 149.73.083-1.465a.68.68 0 0 0 -.233-.412 10.378 10.378 0 0 1 -1.261-2.528 21.435 21.435 0 0 0 0 2.812l1.116 1.7s.31.413.295-.107z"
        fill="#333e40"/>
    <path
        d="m110.465 142.334a5.2 5.2 0 0 1 .258-2.28 1.551 1.551 0 0 1 1.737-.694c.818.12 2.453.606 2.553 1.47s.1 3.557.1 3.557a1.188 1.188 0 0 1 -.8 1 11.4 11.4 0 0 1 -2.853.32s-1.026-.067-1.021-1.021.026-2.352.026-2.352z"
        fill="#404b4d"/>
    <path
        d="m112.46 139.36a1.551 1.551 0 0 0 -1.737.694 1.523 1.523 0 0 0 -.175.456c.811.273 1.939.641 2.39.727a2.237 2.237 0 0 0 1.968-.717 3.883 3.883 0 0 0 -2.446-1.16z"
        fill="#5a6567"/>
    <path
        d="m108.628 139.1a7.391 7.391 0 0 0 1.657 2.162 12.62 12.62 0 0 0 2.613.631v3.333h-1.598a2 2 0 0 1 -1.657-.735c-.259-.382-1.018-1.6-1.018-1.6l-.105-.938a9.924 9.924 0 0 0 1.642 2.334 5.7 5.7 0 0 0 2.334.38v-2.255s-1.595-.233-2.194-.412-1.661-1.851-1.661-1.851z"
        fill="#333e40"/>
    <path
        d="m110.639 140.221a12.348 12.348 0 0 1 -1.095-1.378l-.916.258a7.391 7.391 0 0 0 1.657 2.162 1.488 1.488 0 0 0 .163.073 3.535 3.535 0 0 1 .191-1.115z"
        fill="#5a6567"/>
    <path
        d="m115.06 141.466a3.134 3.134 0 0 1 -1.233.878l.035 2.08a5.624 5.624 0 0 0 1.25-.472c-.004-.601-.012-1.703-.052-2.486z"
        fill="#c5ccd0"/>
    <path
        d="m110.442 144.423c.006-.929.023-2.089.023-2.089s-.01-.114-.017-.29l-.007-.006c-.05-.013-.1-.025-.136-.037a1.372 1.372 0 0 1 -.476-.331l-1.306.284a9.924 9.924 0 0 0 1.642 2.334 1.268 1.268 0 0 0 .276.136z"
        fill="#4d585a"/>
    <path
        d="m80.961 126.47v-5.035a5.589 5.589 0 0 0 -.32-1.5c-.206-.317-.619-.4-1.272 0a2.381 2.381 0 0 0 -1.223 2.369 22.331 22.331 0 0 0 .158 2.8 6.227 6.227 0 0 0 .763 1.559 4.9 4.9 0 0 0 1.638.208z"
        fill="#404b4d"/>
    <path
        d="m80.705 126.874.256-.4v-5.035s-.011-.111-.032-.272c-.5.062-1.305.362-1.376 1-.088.774-.179 3.432-.133 4.622a8.381 8.381 0 0 0 1.285.085z"
        fill="#333e40"/>
    <path
        d="m79.553 122.166c.071-.641.876-.941 1.376-1a4.057 4.057 0 0 0 -.288-1.223c-.206-.317-.619-.4-1.272 0a2.239 2.239 0 0 0 -.983 1.042 7.222 7.222 0 0 0 1.151 1.338c.005-.059.011-.112.016-.157z"
        fill="#5a6567"/>
    <path
        d="m79.3 126.424a4.1 4.1 0 0 0 1.446.393l.456-.723a3.574 3.574 0 0 1 -1.789-.531l.06-2.084 2.972.652c.113-.179.226-.359.341-.539l-3.373-.791-1.022-1.222a10.207 10.207 0 0 0 0 3.334 11.537 11.537 0 0 0 .909 1.511z"
        fill="#404b4d"/>
    <path d="m80.961 122.57-1.459.252 3.279.77.328-.518z" fill="#5a6567"/>
    <path d="m80.961 125.524-1.553.039s.277.361 1.789.531l.18-.285z" fill="#5a6567"/>
    <path
        d="m120.994 140.213s-.666.334-.7-.345-.112-1.37-.112-1.691.013-.913.333-1.122.951-.592.951-.592.394-.309.493.493a11.494 11.494 0 0 1 -.087 2.431c-.05.295-.42.555-.878.826z"
        fill="#5a6567"/>
    <path
        d="m121.472 139.651s-.584.324-.691.37-.292-.053-.326-.653a6.666 6.666 0 0 1 0-1.807 2.64 2.64 0 0 1 .9-.633c.2-.08.441-.18.448.367s-.047 1.533-.047 1.759a.694.694 0 0 1 -.284.597z"
        fill="#4e595b"/>
    <path
        d="m121.8 137.295c-.007-.547-.247-.447-.448-.367a2.64 2.64 0 0 0 -.9.633.294.294 0 0 0 -.026.07 3.4 3.4 0 0 1 .716-.439c.2-.08.44-.18.446.366s-.046 1.535-.046 1.76a.871.871 0 0 1 -.065.327.7.7 0 0 0 .275-.591c.003-.226.056-1.213.048-1.759z"
        fill="#414c4e"/>
    <path d="m121.176 139.814s0-1.34-.029-1.934a1.487 1.487 0 0 0 -.19-.805l-.12.143a2.82 2.82 0 0 1 .169.672v1.849z"
          fill="#414c4e"/>
    <path
        d="m121.176 139.814s0-1.34-.029-1.934a1.487 1.487 0 0 0 -.19-.805l.292-.163a4.279 4.279 0 0 1 .231.773l-.008 1.966z"
        fill="#5a6567"/>
    <g opacity=".2">
        <path d="m88.215 140.377-.966 1.008.068.065.968-1.006z"/>
        <path d="m86.767 139.548-.966 1.008.068.065.967-1.006z"/>
        <path d="m86.402 139.33-.967 1.008.068.065.966-1.006z"/>
        <path d="m84.923 139.619h1.397v.094h-1.397z"
              transform="matrix(.69219356 -.72171191 .72171191 .69219356 -74.444 104.784)"/>
        <path d="m84.584 139.41h1.396v.095h-1.396z"
              transform="matrix(.69239507 -.72151858 .72151858 .69239507 -74.388 104.431)"/>
        <path d="m84.288 139.183h1.396v.095h-1.396z"
              transform="matrix(.69219356 -.72171191 .72171191 .69219356 -74.325 104.192)"/>
        <path d="m83.957 138.943h1.396v.094h-1.396z"
              transform="matrix(.69239507 -.72151858 .72151858 .69239507 -74.244 103.835)"/>
        <path d="m84.764 138.242-.967 1.007.069.065.967-1.006z"/>
        <path d="m84.393 138.009-.967 1.008.068.066.966-1.008z"/>
        <path d="m84.069 137.802-.967 1.008.069.064.967-1.007z"/>
        <path d="m83.75 137.562-.966 1.007.068.065.967-1.007z"/>
        <path d="m82.229 137.821h1.395v.095h-1.395z"
              transform="matrix(.69220616 -.72169982 .72169982 .69220616 -73.975 102.284)"/>
        <path d="m83.049 137.131-.968 1.007.069.065.967-1.007z"/>
        <path d="m82.784 136.86-.967 1.006.069.066.966-1.007z"/>
        <path d="m81.262 137.115h1.396v.095h-1.396z"
              transform="matrix(.69239507 -.72151858 .72151858 .69239507 -73.754 101.329)"/>
        <path d="m82.081 136.356-.966 1.006.069.067.966-1.008z"/>
        <path d="m88.569 140.609-.966 1.006.067.065.968-1.007z"/>
        <path d="m88.898 140.8-.966 1.007.068.067.967-1.008z"/>
        <path d="m88.156 141.492h1.396v.095h-1.396z"
              transform="matrix(.69220616 -.72169982 .72169982 .69220616 -74.8 107.692)"/>
        <path d="m89.626 141.181-.967 1.008.068.067.966-1.007z"/>
        <path d="m90.013 141.385-.967 1.007.069.066.966-1.008z"/>
        <path d="m89.241 142.104h1.397v.094h-1.397z"
              transform="matrix(.69200459 -.7218931 .7218931 .69200459 -74.917 108.71)"/>
        <path d="m90.775 141.807-.967 1.008.069.065.966-1.006z"/>
        <path d="m91.168 142.01-.966 1.007.068.067.967-1.009z"/>
        <path d="m91.532 142.189-.967 1.007.07.066.967-1.006z"/>
        <path d="m91.907 142.354-.967 1.007.069.065.967-1.007z"/>
        <path d="m91.107 143.064h1.396v.095h-1.396z"
              transform="matrix(.69200459 -.7218931 .7218931 .69200459 -75.036 110.35)"/>
        <path d="m91.514 143.264h1.396v.094h-1.396z"
              transform="matrix(.69279794 -.72113176 .72113176 .69279794 -75.018 110.523)"/>
        <path d="m93.036 142.953-.967 1.007.068.067.967-1.008z"/>
        <path d="m92.246 143.625h1.396v.095h-1.396z"
              transform="matrix(.69220616 -.72169982 .72169982 .69220616 -75.08 111.299)"/>
    </g>
    <path
        d="m121.1 149.725-.18-.063a57.807 57.807 0 0 0 1.884-13.185c.092-5.246-.526-12.9-.533-12.973l.19-.016c.006.077.625 7.737.532 12.992a57.043 57.043 0 0 1 -1.893 13.245z"
        opacity=".1"/>
    <path
        d="m78.153 135.947a1.993 1.993 0 0 1 -.949-1.354 6.561 6.561 0 0 1 .251-2.3l.144-.628-.32.56c-1.038 1.815-2.988 5.315-3.368 6l-.017.03.007.033a4.714 4.714 0 0 0 1.875 2.914l.12.078.024-.142a22.819 22.819 0 0 1 2.272-5.058l.051-.087z"
        fill="#87969f"/>
    <path
        d="m77.018 134.626a5 5 0 0 1 .116-1.759c-.032.056-.028-.135-.02-.35-.983 1.726-2.565 4.564-3.092 5.508a.636.636 0 0 1 .071.263 4.605 4.605 0 0 0 1.67 2.669 22.852 22.852 0 0 1 2.218-4.892 2.147 2.147 0 0 1 -.963-1.439z"
        fill="#e3e3e4"/>
    <path
        d="m101.84 144.276-.079-.073-.063.089a6.01 6.01 0 0 1 -2.412 1.871 4.881 4.881 0 0 1 -1.792.275 13.035 13.035 0 0 1 -2.524-.28l-.06-.013-.038.048a36.816 36.816 0 0 0 -3.021 4.645l-.046.095.1.037a15.523 15.523 0 0 0 4.611.965 5.538 5.538 0 0 0 .878-.065 4.82 4.82 0 0 0 3.085-2.22c.086-.121.162-.225.222-.3.875-1.035 1.918-2.453 1.911-3.331a2.6 2.6 0 0 0 -.772-1.743z"
        fill="#87969f"/>
    <path
        d="m101.785 144.492a6.15 6.15 0 0 1 -2.428 1.847 5.069 5.069 0 0 1 -1.863.287 13.451 13.451 0 0 1 -2.506-.27 36.612 36.612 0 0 0 -2.919 4.474 15.023 15.023 0 0 0 4.444.915 5.169 5.169 0 0 0 .848-.064 4.644 4.644 0 0 0 2.962-2.142c.088-.123.165-.23.23-.307 1.208-1.429 1.871-2.567 1.867-3.206a2.422 2.422 0 0 0 -.635-1.534z"
        fill="#e3e3e4"/>
    <path
        d="m101.64 147c0 .365-.258.515-.575.332a1.268 1.268 0 0 1 -.574-.994c0-.367.257-.514.574-.331a1.268 1.268 0 0 1 .575.993z"
        fill="#f09041"/>
    <path
        d="m100.159 149.031c0 .716-.5 1.008-1.124.649a2.484 2.484 0 0 1 -1.125-1.947c0-.718.5-1.009 1.125-.651a2.488 2.488 0 0 1 1.124 1.949z"
        fill="#fff"/>
    <path
        d="m97.527 150.137c0 .969-.679 1.363-1.519.877a3.357 3.357 0 0 1 -1.52-2.631c0-.969.681-1.362 1.52-.877a3.355 3.355 0 0 1 1.519 2.631z"
        fill="#fff"/>
    <path
        d="m77.053 137.772a2.941 2.941 0 0 0 -.718-1.186c-.537-.468-.972-.088-.972.847a4.066 4.066 0 0 0 .777 2.336c.26-.669.595-1.369.913-1.997z"
        fill="#fff"/>
    <path
        d="m77.3 135.564a2.063 2.063 0 0 0 -.477-.7c-.425-.372-.77-.07-.77.672a3.076 3.076 0 0 0 .082.677c.329-.186.782-.436 1.165-.649z"
        fill="#fff"/>
    <g mask="url(#aP)">
        <path
            d="m77.018 134.626a5 5 0 0 1 .116-1.759c-.032.056-.028-.135-.02-.35-.983 1.726-2.565 4.564-3.092 5.508a.636.636 0 0 1 .071.263 4.605 4.605 0 0 0 1.67 2.669 22.852 22.852 0 0 1 2.218-4.892 2.147 2.147 0 0 1 -.963-1.439z"
            fill="url(#aQ)"/>
    </g>
    <g mask="url(#aS)">
        <path
            d="m101.785 144.492a6.15 6.15 0 0 1 -2.428 1.847 5.069 5.069 0 0 1 -1.863.287 13.451 13.451 0 0 1 -2.506-.27 36.612 36.612 0 0 0 -2.919 4.474 15.023 15.023 0 0 0 4.444.915 5.169 5.169 0 0 0 .848-.064 4.644 4.644 0 0 0 2.962-2.142c.088-.123.165-.23.23-.307 1.208-1.429 1.871-2.567 1.867-3.206a2.422 2.422 0 0 0 -.635-1.534z"
            fill="url(#aT)"/>
    </g>
    <path d="m179.088 110.341.516-1.539-.058-8.139-.914 2.647v7.29z" fill="#bd1e2d"/>
    <path d="m179.569 103.942-.451.503v3.987l.479-.644z" fill="#e3e3e4"/>
</svg>
